<svg xmlns="http://www.w3.org/2000/svg" width="13.7" height="13.531" viewBox="0 0 13.7 13.531">
  <path id="Icon_awesome-cart-plus" data-name="Icon awesome-cart-plus" d="M12,8.457H5.032l.156.846h6.384a.621.621,0,0,1,.557.775L12,10.719a1.5,1.5,0,0,1,.751,1.332,1.409,1.409,0,0,1-1.352,1.48,1.415,1.415,0,0,1-1.312-1.439,1.564,1.564,0,0,1,.4-1.1H5.5a1.56,1.56,0,0,1,.4,1.057A1.4,1.4,0,0,1,4.5,13.53a1.415,1.415,0,0,1-1.267-1.4A1.523,1.523,0,0,1,3.9,10.768L2.233,1.691H.571A.605.605,0,0,1,0,1.057V.634A.605.605,0,0,1,.571,0H3.009a.589.589,0,0,1,.559.507l.218,1.184h9.342a.621.621,0,0,1,.557.775l-1.124,5.5A.587.587,0,0,1,12,8.457ZM9.7,4.44H8.563V3.383a.4.4,0,0,0-.381-.423H7.8a.4.4,0,0,0-.381.423V4.44H6.279a.4.4,0,0,0-.381.423v.423a.4.4,0,0,0,.381.423H7.421V6.766a.4.4,0,0,0,.381.423h.381a.4.4,0,0,0,.381-.423V5.709H9.7a.4.4,0,0,0,.381-.423V4.863A.4.4,0,0,0,9.7,4.44Z" fill="#fff"/>
</svg>
