<svg xmlns="http://www.w3.org/2000/svg" width="226.82" height="208.736" viewBox="0 0 226.82 208.736">
  <g id="added_to_cart" data-name="added to cart" transform="translate(-160.18 -239.035)">
    <path id="Path_10679" data-name="Path 10679" d="M910.869,674.064l-26.339-19.44c8.883-9.03,16.963-21.888,24.689-36.426l26.339,19.44C925.034,650.111,916.118,662.352,910.869,674.064Z" transform="translate(-559.005 -251.817)" fill="#1b81f8"/>
    <ellipse id="Ellipse_475" data-name="Ellipse 475" cx="7.774" cy="8.112" rx="7.774" ry="8.112" transform="translate(344.098 385.326)" fill="#fff"/>
    <path id="Path_10680" data-name="Path 10680" d="M618.042,536.554h-2.891a.392.392,0,0,0-.383.4v1.324a.392.392,0,0,0,.383.4h.479v1.984h1.933v-1.984h.479a.392.392,0,0,0,.383-.4v-1.324A.392.392,0,0,0,618.042,536.554Z" transform="translate(-393.235 -203.015)" fill="#e6e6e6"/>
    <path id="Path_10681" data-name="Path 10681" d="M616.7,551.682a16,16,0,0,1-2.586-9.2.325.325,0,0,0-.245-.326v-.572h-3.053v.564h-.042a.32.32,0,0,0-.313.327c0,.008,0,.016,0,.024a14.616,14.616,0,0,1-2.437,9.414.929.929,0,0,0-.156.546l.334,10.777a.913.913,0,0,0,.886.9h6.907a.914.914,0,0,0,.887-.916l.129-10.464A1.947,1.947,0,0,0,616.7,551.682Z" transform="translate(-388.992 -206.023)" fill="#ff9456"/>
    <path id="Path_10682" data-name="Path 10682" d="M619.062,537.627a.828.828,0,1,1-1.654,0" transform="translate(-394.857 -203.656)" opacity="0.2"/>
    <rect id="Rectangle_4156" data-name="Rectangle 4156" width="5.83" height="4.056" transform="translate(220.528 347.735)" fill="#fff"/>
    <path id="Path_10683" data-name="Path 10683" d="M850.831,641.218h-5.412a.734.734,0,0,0-.718.749v2.479a.734.734,0,0,0,.718.749h.9v3.714h3.618v-3.714h.9a.734.734,0,0,0,.717-.749v-2.479a.733.733,0,0,0-.717-.749Z" transform="translate(-534.53 -265.576)" fill="#e6e6e6"/>
    <path id="Path_10684" data-name="Path 10684" d="M848.31,669.536a29.952,29.952,0,0,1-4.841-17.214.608.608,0,0,0-.458-.611V650.64H837.3V651.7h-.079a.6.6,0,0,0-.586.613c0,.015,0,.03,0,.045a27.358,27.358,0,0,1-4.562,17.622,1.74,1.74,0,0,0-.292,1.022l.625,20.174a1.709,1.709,0,0,0,1.659,1.686h12.928a1.711,1.711,0,0,0,1.66-1.715l.241-19.587A3.646,3.646,0,0,0,848.31,669.536Z" transform="translate(-526.588 -271.208)" fill="#ff9456"/>
    <path id="Path_10685" data-name="Path 10685" d="M852.741,643.226a1.549,1.549,0,1,1-3.1,0" transform="translate(-537.568 -266.777)" opacity="0.2"/>
    <path id="Path_10686" data-name="Path 10686" d="M849.575,714.273H838.322a1.136,1.136,0,0,0-.877.42,1.243,1.243,0,0,0-.265.968l1.7,11.534h9.765l2.066-11.5a1.244,1.244,0,0,0-.246-.992,1.137,1.137,0,0,0-.889-.436Z" transform="translate(-529.9 -309.244)" fill="#fff"/>
    <path id="Path_10687" data-name="Path 10687" d="M769.119,690.7H736.858c2.255-12.725,1.737-28.091,0-44.616h32.261C767.429,662.61,766.924,677.975,769.119,690.7Z" transform="translate(-468.26 -268.485)" fill="#1b81f8"/>
    <ellipse id="Ellipse_476" data-name="Ellipse 476" cx="7.774" cy="8.112" rx="7.774" ry="8.112" transform="translate(277.149 390.578)" fill="#fff"/>
    <path id="Path_10688" data-name="Path 10688" d="M322.243,302.944l7.242-.687,4.609-11.679-8.23-4.81Z" transform="translate(-153.34 -21.141)" fill="#ffb8b8"/>
    <path id="Path_10689" data-name="Path 10689" d="M624.441,477.933h0a4.422,4.422,0,0,0-.341-3.867,4.057,4.057,0,0,0-3.206-1.972l-11.245-.7-1.656,5.745,11.576,3.318A4.043,4.043,0,0,0,624.441,477.933Z" transform="translate(-389.072 -164.067)" fill="#ffb8b8"/>
    <path id="Path_10690" data-name="Path 10690" d="M531.046,434.4l-.124-10.781-24.977-4.159L486.7,396.429a6.114,6.114,0,0,0-8.209-1.171h0A6.616,6.616,0,0,0,475.7,400a6.752,6.752,0,0,0,1.7,5.28l15.875,20.386Z" transform="translate(-307.751 -117.91)" fill="#1b81f8"/>
    <path id="Path_10691" data-name="Path 10691" d="M463.726,623.113h6.584l16.331-77.047,16.918,23.8,9.876,51.528h6.255l-1.317-55.307L496.317,507H474.589c-5.937,11.213-10.6,22.772-5.267,34.7Z" transform="translate(-300.419 -185.351)" fill="#2f2e41"/>
    <path id="Path_10692" data-name="Path 10692" d="M582.079,795.475a1.861,1.861,0,0,0,.172,1.466,1.719,1.719,0,0,0,1.168.834l16.111,2.984a2.644,2.644,0,0,0,3.007-1.9h0a2.8,2.8,0,0,0-1.288-3.269,24.978,24.978,0,0,1-8.885-8.061c-1.771,1.721-3.75,1.559-5.851.291l-2.229.291Z" transform="translate(-373.1 -353.034)" fill="#2f2e41"/>
    <path id="Path_10693" data-name="Path 10693" d="M455.693,795.475a1.861,1.861,0,0,0,.172,1.466,1.719,1.719,0,0,0,1.168.834l16.111,2.984a2.644,2.644,0,0,0,3.007-1.9h0a2.8,2.8,0,0,0-1.288-3.269,24.978,24.978,0,0,1-8.885-8.061c-1.771,1.721-3.75,1.559-5.852.291l-2.229.291Z" transform="translate(-295.435 -353.034)" fill="#2f2e41"/>
    <ellipse id="Ellipse_477" data-name="Ellipse 477" cx="9.218" cy="9.619" rx="9.218" ry="9.619" transform="translate(171.701 254.493)" fill="#ffb8b8"/>
    <path id="Path_10694" data-name="Path 10694" d="M476.324,439.137l24.031-.687L493.3,415.272c4.386-7.337-.028-14.667-6.275-21.995l-4.938-3.435-7.9-.687h0a20.738,20.738,0,0,0-5.223,14.1A94.213,94.213,0,0,0,476.324,439.137Z" transform="translate(-303.635 -114.909)" fill="#1b81f8"/>
    <path id="Path_10695" data-name="Path 10695" d="M607.664,534.235h0a4.379,4.379,0,0,0,1.144-3.7,4.251,4.251,0,0,0-2.2-3.129l-10.074-5.26-3.688,4.6,9.392,7.8A3.959,3.959,0,0,0,607.664,534.235Z" transform="translate(-379.761 -194.406)" fill="#ffb8b8"/>
    <path id="Path_10696" data-name="Path 10696" d="M538.17,460.179l3.951-9.962-21.4-14.077-9.009-29.071a6.279,6.279,0,0,0-7.105-4.447h0a6.313,6.313,0,0,0-4.359,3.214,6.827,6.827,0,0,0-.429,5.552l6.909,25.259Z" transform="translate(-322.356 -122.897)" fill="#1b81f8"/>
    <path id="Path_10697" data-name="Path 10697" d="M470.13,337.541c0,3.743,2.329,9.539,5.267,12.023,1.977,1.672,4.589,1.6,5.6-.687a26.755,26.755,0,0,1,10.864-11.336c8.357-4.627-2.964-12.543-10.864-11.336C475.057,327.111,470.13,331.28,470.13,337.541Z" transform="translate(-304.354 -77.208)" fill="#2f2e41"/>
    <ellipse id="Ellipse_478" data-name="Ellipse 478" cx="6.584" cy="6.87" rx="6.584" ry="6.87" transform="translate(164.788 241.439)" fill="#2f2e41"/>
    <path id="Path_10698" data-name="Path 10698" d="M494.581,308.494a6.754,6.754,0,0,0-6.09-6.844c.164-.013.327-.026.494-.026a6.877,6.877,0,0,1,0,13.741c-.167,0-.33-.013-.494-.026A6.754,6.754,0,0,0,494.581,308.494Z" transform="translate(-315.637 -62.589)" fill="#2f2e41"/>
    <ellipse id="Ellipse_479" data-name="Ellipse 479" cx="1.481" cy="2.061" rx="1.481" ry="2.061" transform="translate(179.602 263.425)" fill="#ffb8b8"/>
    <path id="Path_10699" data-name="Path 10699" d="M610.248,518.619H507.756l-21.7-107.063H467.529v-4.8h22.254l21.7,107.063h98.761Z" transform="translate(-242.619 -93.457)" fill="#3f3d56"/>
    <ellipse id="Ellipse_480" data-name="Ellipse 480" cx="9.865" cy="10.295" rx="9.865" ry="10.295" transform="translate(270.291 424.132)" fill="#3f3d56"/>
    <ellipse id="Ellipse_481" data-name="Ellipse 481" cx="9.865" cy="10.295" rx="9.865" ry="10.295" transform="translate(343.953 424.132)" fill="#3f3d56"/>
    <path id="Path_10700" data-name="Path 10700" d="M801.9,623.877h-99.72l-17.594-90.732H818.409A4.649,4.649,0,0,1,822,534.872a5.085,5.085,0,0,1,1.078,3.972l-16.512,80.865a4.771,4.771,0,0,1-4.67,4.168ZM703.262,622.5H801.9a3.442,3.442,0,0,0,3.37-3.008l16.512-80.865a3.668,3.668,0,0,0-.777-2.867,3.355,3.355,0,0,0-2.594-1.246H686.181Z" transform="translate(-436.137 -200.977)" fill="#3f3d56"/>
    <path id="Path_10701" data-name="Path 10701" d="M606.146,544.964l-11.523-89.643,1.3-.224,11.523,89.643Z" transform="translate(-320.718 -122.355)" fill="#3f3d56"/>
    <path id="Path_10702" data-name="Path 10702" d="M788.642,544.279l-1.3-.22L798.529,455.1l1.3.22Z" transform="translate(-439.145 -122.358)" fill="#3f3d56"/>
    <rect id="Rectangle_4157" data-name="Rectangle 4157" width="1.315" height="89.643" transform="translate(317.656 332.854)" fill="#3f3d56"/>
    <rect id="Rectangle_4158" data-name="Rectangle 4158" width="1.359" height="127.328" transform="translate(255.163 358.246) rotate(-89.861)" fill="#3f3d56"/>
    <rect id="Rectangle_4159" data-name="Rectangle 4159" width="111.862" height="1.339" transform="translate(261.651 400.073) rotate(-0.392)" fill="#3f3d56"/>
    <ellipse id="Ellipse_482" data-name="Ellipse 482" cx="7.235" cy="4.118" rx="7.235" ry="4.118" transform="translate(219.649 310.892)" fill="#3f3d56"/>
  </g>
</svg>
