<svg xmlns="http://www.w3.org/2000/svg" width="32" height="32" viewBox="0 0 32 32">
  <g id="Group_7838" data-name="Group 7838" transform="translate(323 -1300)">
    <g id="Group_7808" data-name="Group 7808" transform="translate(-7601 -2199)">
      <path id="Path_12012" data-name="Path 12012" d="M16,0A16,16,0,1,1,0,16,16,16,0,0,1,16,0Z" transform="translate(7278 3499)" fill="#1b81f8"/>
    </g>
    <g id="_376719901595156044" data-name="376719901595156044" transform="translate(-319.887 1304.046)">
      <path id="Path_12017" data-name="Path 12017" d="M19.775,3H8.066A2.029,2.029,0,0,0,6,5.066H6A2.029,2.029,0,0,0,8.066,7.132H19.775V20.907" fill="none" stroke="#fff" stroke-linecap="round" stroke-linejoin="round" stroke-miterlimit="10" stroke-width="0.9"/>
      <path id="Path_12018" data-name="Path 12018" d="M19.775,21.841H8.066A2.029,2.029,0,0,1,6,19.775H6V6" transform="translate(0 -0.934)" fill="none" stroke="#fff" stroke-linecap="round" stroke-linejoin="round" stroke-miterlimit="10" stroke-width="0.9"/>
      <line id="Line_84" data-name="Line 84" x1="11.029" transform="translate(8.206 5.206)" fill="none" stroke="#fff" stroke-linecap="round" stroke-linejoin="round" stroke-miterlimit="10" stroke-width="0.9"/>
      <path id="Path_12019" data-name="Path 12019" d="M11,9v8.265l2.066-.689,2.066.689V9" transform="translate(-1.556 -1.868)" fill="none" stroke="#fff" stroke-linecap="round" stroke-linejoin="round" stroke-miterlimit="10" stroke-width="0.9"/>
    </g>
  </g>
</svg>
