<svg xmlns="http://www.w3.org/2000/svg" width="73" height="73" viewBox="0 0 73 73">
  <g id="Group_7704" data-name="Group 7704" transform="translate(-2810 -1980)">
    <circle id="Ellipse_582" data-name="Ellipse 582" cx="36.5" cy="36.5" r="36.5" transform="translate(2810 1980)" fill="#1b81f8"/>
    <path id="Icon_awesome-credit-card" data-name="Icon awesome-credit-card" d="M0,23.778a2.584,2.584,0,0,0,2.583,2.583H28.417A2.584,2.584,0,0,0,31,23.778V14.306H0Zm10.333-3.66a.648.648,0,0,1,.646-.646H18.3a.648.648,0,0,1,.646.646v2.153a.648.648,0,0,1-.646.646H10.979a.648.648,0,0,1-.646-.646Zm-6.889,0a.648.648,0,0,1,.646-.646H7.965a.648.648,0,0,1,.646.646v2.153a.648.648,0,0,1-.646.646H4.09a.648.648,0,0,1-.646-.646ZM31,4.833V7.417H0V4.833A2.584,2.584,0,0,1,2.583,2.25H28.417A2.584,2.584,0,0,1,31,4.833Z" transform="translate(2831 2002.194)" fill="#fff"/>
  </g>
</svg>
