<svg xmlns="http://www.w3.org/2000/svg" width="193.995" height="154.47" viewBox="0 0 193.995 154.47">
  <g id="Group_7707" data-name="Group 7707" transform="translate(-2377.059 -1466.044)">
    <path id="Path_11976" data-name="Path 11976" d="M74.84,145.386a8.608,8.608,0,0,0-5.866,5.943c-.768,3.382,1,6.8,1.253,10.269.825,11.384-14.161,19.416-12.024,30.6.85,4.44,4.283,7.713,7.667,10.407,5.417,4.315,11.427,8.125,18.075,9.2,10.1,1.634,20.656-3.173,30.475-.134,7.919,2.45,13.979,9.634,21.844,12.284,5.988,2.019,12.436,1.222,18.662.406,3.348-.438,6.867-.947,9.574-3.121,5.041-4.048,5.346-12.041,8.717-17.769,5.2-8.842,16.609-10.57,26.175-8.851s18.848,5.954,28.539,5.6a12.225,12.225,0,0,0,6-1.476c2.2-1.335,3.681-3.685,4.993-6.011A103.107,103.107,0,0,0,251.977,144.4c.055-2.933-.039-5.993-1.315-8.59-1.611-3.277-4.832-5.233-8.053-6.554-7.71-3.153-16.227-3.663-23.784-7.243-7.289-3.449-13.195-9.5-19.541-14.675a100.54,100.54,0,0,0-42.865-20.627c-3.645-.761-7.429-1.3-11.051-.426-4.173,1.013-7.771,3.824-11,6.849-8.606,8.053-15.5,17.982-23.43,26.8a136.925,136.925,0,0,1-17.8,16.57c-2.94,2.285-6.054,5-9.324,6.688C80.814,144.742,78,144.353,74.84,145.386Z" transform="translate(2319.065 1380.211)" fill="#1b81f8" opacity="0.1"/>
    <g id="Group_7706" data-name="Group 7706" transform="translate(2279.01 1215.734)">
      <path id="Path_11967" data-name="Path 11967" d="M153.744,353.331c2.683,4.119,6.653,6.167,11.37,6.871a36.264,36.264,0,0,0,5.311.232q37.421.02,74.841.011c4.3,0,6.229,1.11,6.228,3.557s-1.957,3.566-6.226,3.566q-37.577,0-75.154,0c-14.962,0-24-7.38-26.963-22.063q-8.064-39.963-16.01-79.949c-.429-2.179-1.266-2.645-3.25-2.593-4.59.12-9.186-.019-13.777.063a5.348,5.348,0,0,1-5.065-2.421V258.1a5.566,5.566,0,0,1,4.861-2.18c6.04.07,12.083.105,18.122-.007,3.2-.06,4.692,1.344,5.233,4.45.962,5.525,2.188,11,3.3,16.5,1.258,1.284,1.356,3,1.678,4.614,4.029,20.2,8.178,40.369,12.052,60.6C151.051,345.993,152.75,349.534,153.744,353.331Z" transform="translate(0 -4.465)" fill="#364a52"/>
      <path id="Path_11968" data-name="Path 11968" d="M187.794,375.966c-3.321-3.467-3.556-8.053-4.424-12.382q-6.419-32.034-12.751-64.086l121.843.014c6.9,0,7.353.516,6.5,7.374-2.115,16.965-4.264,33.925-6.3,50.9-.34,2.842-1.537,4.227-4.441,4.6-16.649,2.154-33.284,4.409-49.919,6.665Q213.043,372.477,187.794,375.966Z" transform="translate(-34.049 -27.099)" fill="#1b81f8"/>
      <path id="Path_11969" data-name="Path 11969" d="M192.207,519.943a17.378,17.378,0,1,1,17.484,17.416A17.317,17.317,0,0,1,192.207,519.943Z" transform="translate(-45.26 -132.579)" fill="#354952"/>
      <path id="Path_11970" data-name="Path 11970" d="M354.523,502.634a17.363,17.363,0,1,1-17.41,17.241A17.509,17.509,0,0,1,354.523,502.634Z" transform="translate(-120.507 -132.585)" fill="#354952"/>
      <path id="Path_11971" data-name="Path 11971" d="M220.58,373.789c.013,2.035-1,3.53-3.211,3.706-2.3.182-3.345-1.383-3.7-3.441q-1.909-11.229-3.767-22.467c-.959-5.746-1.864-11.5-2.882-17.235-.427-2.407-.337-4.562,2.521-5.109,2.8-.535,3.822,1.218,4.239,3.748,2.187,13.241,4.456,26.468,6.693,39.7C220.53,373,220.538,373.315,220.58,373.789Z" transform="translate(-52.857 -42.496)" fill="#f9fafb"/>
      <path id="Path_11972" data-name="Path 11972" d="M260.612,370.41a3.17,3.17,0,0,1-3.143,3.3c-2.463.2-3.558-1.205-3.772-3.546q-1.684-18.473-3.413-36.94c-.211-2.266.544-4.072,2.908-4.4s3.652,1.1,3.875,3.434q1.172,12.258,2.319,24.517C259.793,361.115,260.169,365.464,260.612,370.41Z" transform="translate(-75.401 -42.301)" fill="#f9fafb"/>
      <path id="Path_11973" data-name="Path 11973" d="M293.823,349.488c0-5.419.052-10.838-.024-16.256-.034-2.4.665-4.333,3.255-4.42,2.794-.094,3.651,1.989,3.655,4.438q.027,16.413,0,32.826c-.006,2.332-.917,4.3-3.508,4.282-2.564-.022-3.419-1.871-3.393-4.3C293.863,360.535,293.823,355.011,293.823,349.488Z" transform="translate(-98.014 -42.32)" fill="#f9fafa"/>
      <path id="Path_11974" data-name="Path 11974" d="M330.406,360.756c1-9.042,2.047-18.883,3.188-28.714.245-2.113,1.579-3.56,3.794-3.321,2.156.233,3.286,1.736,3.048,3.976-.9,8.495-1.84,16.986-2.764,25.478-.135,1.243-.283,2.484-.393,3.728-.31,3.5-1.581,5.12-4.015,4.844C329.978,366.375,330.189,363.924,330.406,360.756Z" transform="translate(-116.969 -42.261)" fill="#f9fafb"/>
      <path id="Path_11975" data-name="Path 11975" d="M379.954,333.351c-1.424,5.756-3.064,12.409-4.719,19.058-.652,2.619-1.3,5.239-2.021,7.84-.561,2.026-1.825,3.445-4.064,2.93-2.326-.535-3.1-2.3-2.534-4.574q3.372-13.6,6.794-27.191c.494-1.954,1.808-3.157,3.858-2.84S380.246,330.329,379.954,333.351Z" transform="translate(-135.736 -42.173)" fill="#f9fafa"/>
    </g>
  </g>
</svg>
