<svg xmlns="http://www.w3.org/2000/svg" width="193.995" height="145.397" viewBox="0 0 193.995 145.397">
  <g id="Group_7709" data-name="Group 7709" transform="translate(-2599.291 -1451.044)">
    <g id="Group_7708" data-name="Group 7708" transform="translate(222.233 -9)">
      <path id="Path_11976" data-name="Path 11976" d="M74.84,145.386a8.608,8.608,0,0,0-5.866,5.943c-.768,3.382,1,6.8,1.253,10.269.825,11.384-14.161,19.416-12.024,30.6.85,4.44,4.283,7.713,7.667,10.407,5.417,4.315,11.427,8.125,18.075,9.2,10.1,1.634,20.656-3.173,30.475-.134,7.919,2.45,13.979,9.634,21.844,12.284,5.988,2.019,12.436,1.222,18.662.406,3.348-.438,6.867-.947,9.574-3.121,5.041-4.048,5.346-12.041,8.717-17.769,5.2-8.842,16.609-10.57,26.175-8.851s18.848,5.954,28.539,5.6a12.225,12.225,0,0,0,6-1.476c2.2-1.335,3.681-3.685,4.993-6.011A103.107,103.107,0,0,0,251.977,144.4c.055-2.933-.039-5.993-1.315-8.59-1.611-3.277-4.832-5.233-8.053-6.554-7.71-3.153-16.227-3.663-23.784-7.243-7.289-3.449-13.195-9.5-19.541-14.675a100.54,100.54,0,0,0-42.865-20.627c-3.645-.761-7.429-1.3-11.051-.426-4.173,1.013-7.771,3.824-11,6.849-8.606,8.053-15.5,17.982-23.43,26.8a136.925,136.925,0,0,1-17.8,16.57c-2.94,2.285-6.054,5-9.324,6.688C80.814,144.742,78,144.353,74.84,145.386Z" transform="translate(2319.065 1380.211)" fill="#1b81f8" opacity="0.1"/>
    </g>
    <path id="Icon_awesome-shopping-bag" data-name="Icon awesome-shopping-bag" d="M74.029,37.7V30.156C74.029,13.528,61.953,0,47.11,0S20.19,13.528,20.19,30.156V37.7H0v64.082c0,10.409,7.533,18.848,16.825,18.848H77.394c9.292,0,16.825-8.438,16.825-18.848V37.7ZM33.65,30.156c0-8.314,6.038-15.078,13.46-15.078s13.46,6.764,13.46,15.078V37.7H33.65ZM67.3,58.428c-2.788,0-5.047-2.531-5.047-5.654s2.26-5.654,5.047-5.654,5.047,2.531,5.047,5.654S70.087,58.428,67.3,58.428Zm-40.38,0c-2.788,0-5.047-2.531-5.047-5.654s2.26-5.654,5.047-5.654,5.047,2.531,5.047,5.654S29.707,58.428,26.92,58.428Z" transform="translate(2646.501 1451.044)" fill="#1b81f8"/>
    <path id="Path_11977" data-name="Path 11977" d="M589.746,424.053l-2.16-1.948c-7.67-7.042-12.734-11.613-12.734-17.306a8.1,8.1,0,0,1,8.192-8.241,8.811,8.811,0,0,1,6.7,3.147,8.81,8.81,0,0,1,6.7-3.147,8.1,8.1,0,0,1,8.192,8.241c0,5.694-5.064,10.264-12.734,17.306Z" transform="translate(2106.543 1124.526)" fill="#fff"/>
  </g>
</svg>
