<svg xmlns="http://www.w3.org/2000/svg" width="32" height="32" viewBox="0 0 32 32">
  <g id="Group_7841" data-name="Group 7841" transform="translate(323 -1340)">
    <g id="Group_7810" data-name="Group 7810" transform="translate(-7601 -2159)">
      <path id="Path_12012" data-name="Path 12012" d="M16,0A16,16,0,1,1,0,16,16,16,0,0,1,16,0Z" transform="translate(7278 3499)" fill="#1b81f8"/>
    </g>
    <g id="sofa" transform="translate(-317.341 1289.14)">
      <g id="Group_7811" data-name="Group 7811" transform="translate(0 59.002)">
        <path id="Path_12022" data-name="Path 12022" d="M20.089,64.07a2.149,2.149,0,0,0-1.118-.57,2.478,2.478,0,0,0-.853-.04C16.974,60.8,13.912,59,10.344,59a8.188,8.188,0,0,0-7.555,4.5,2.472,2.472,0,0,0-1.073,0,2.148,2.148,0,0,0-1.118.57,2.108,2.108,0,0,0-.575,1.733,2.176,2.176,0,0,0,1.7,1.719,1.739,1.739,0,0,0,.745,0l.063-.013c.072.121.3.763-.256,3.528a.459.459,0,0,0,.013.22c.328,1.05.857,1.562,1.724,1.661.018,0,.031,0,.049,0v1.347a.449.449,0,1,0,.9,0V72.923H15.731v1.347a.449.449,0,1,0,.9,0V72.923a.183.183,0,0,0,.049,0c.866-.1,1.4-.611,1.724-1.661a.459.459,0,0,0,.013-.22c-.557-2.77-.328-3.412-.256-3.528l.063.013a1.718,1.718,0,0,0,.741,0,2.176,2.176,0,0,0,1.7-1.719A2.131,2.131,0,0,0,20.089,64.07ZM10.344,59.9c3.169,0,5.885,1.544,6.918,3.838a4.573,4.573,0,0,0-1.45,1.293,4.359,4.359,0,0,0-.5,1,9.789,9.789,0,0,0-.467,2.846h-9a9.943,9.943,0,0,0-.467-2.846,4.358,4.358,0,0,0-.5-1,4.075,4.075,0,0,0-1.01-1.01c-.081-.058-.166-.117-.251-.171A7.3,7.3,0,0,1,10.344,59.9Zm9.436,5.768a1.282,1.282,0,0,1-1,.974.862.862,0,0,1-.386-.009.9.9,0,0,0-.6.04c-.75.337-.83,1.621-.278,4.422-.283.83-.637.893-.907.925H4.081c-.269-.031-.628-.094-.907-.925.552-2.8.471-4.085-.278-4.422a.954.954,0,0,0-.6-.04.863.863,0,0,1-.386.009,1.289,1.289,0,0,1-1-.974,1.262,1.262,0,0,1,.319-.965,1.279,1.279,0,0,1,.678-.328,1.537,1.537,0,0,1,.7,0,2,2,0,0,1,.741.377,3.186,3.186,0,0,1,.786.786,3.548,3.548,0,0,1,.4.795,9.7,9.7,0,0,1,.422,2.99.45.45,0,0,0,.449.449h9.876a.45.45,0,0,0,.449-.449,9.707,9.707,0,0,1,.422-2.994,3.548,3.548,0,0,1,.4-.795,3.186,3.186,0,0,1,.786-.786,1.983,1.983,0,0,1,.736-.377,1.7,1.7,0,0,1,.7,0,1.279,1.279,0,0,1,.678.328A1.254,1.254,0,0,1,19.78,65.668Z" transform="translate(0 -59.002)" fill="#fff"/>
      </g>
    </g>
  </g>
</svg>
