<svg xmlns="http://www.w3.org/2000/svg" width="32" height="32" viewBox="0 0 32 32">
  <g id="Group_7837" data-name="Group 7837" transform="translate(281 -1340)">
    <g id="Group_7824" data-name="Group 7824" transform="translate(-7559 -2159)">
      <path id="Path_12012" data-name="Path 12012" d="M16,0A16,16,0,1,1,0,16,16,16,0,0,1,16,0Z" transform="translate(7278 3499)" fill="#1b81f8"/>
    </g>
    <g id="console" transform="translate(-275.191 1294.198)">
      <g id="Group_7813" data-name="Group 7813" transform="translate(0 55.109)">
        <g id="Group_7812" data-name="Group 7812" transform="translate(0 0)">
          <path id="Path_12023" data-name="Path 12023" d="M20.37,64.367a19.024,19.024,0,0,0-.558-3.681,14.127,14.127,0,0,0-1.142-3.1c-1.777-3.122-3.706-2.64-6.016-2.031a16.535,16.535,0,0,1-2.335.457h-.254a16.535,16.535,0,0,1-2.335-.457c-2.31-.584-4.239-1.092-6.016,2.056a12.941,12.941,0,0,0-1.142,3.1,19.024,19.024,0,0,0-.558,3.681,6.917,6.917,0,0,0,.355,2.894,1.924,1.924,0,0,0,1.218,1.142,2.482,2.482,0,0,0,1.625-.178,11.931,11.931,0,0,0,3.249-2.31A5.6,5.6,0,0,1,10.191,64.8a5.6,5.6,0,0,1,3.732,1.142,11.931,11.931,0,0,0,3.249,2.31,2.655,2.655,0,0,0,1.625.178,1.9,1.9,0,0,0,1.218-1.168A6.787,6.787,0,0,0,20.37,64.367Zm-1.218,2.538a1.007,1.007,0,0,1-.609.635,1.753,1.753,0,0,1-1.041-.127,10.352,10.352,0,0,1-2.945-2.107,6.339,6.339,0,0,0-4.366-1.447,6.694,6.694,0,0,0-4.392,1.4,10.548,10.548,0,0,1-2.945,2.107,1.575,1.575,0,0,1-1.041.127,1.007,1.007,0,0,1-.609-.635,6,6,0,0,1-.254-2.437,17.51,17.51,0,0,1,.533-3.5A12.112,12.112,0,0,1,2.55,58.046c1.4-2.513,3.021-2.107,4.95-1.6a14.892,14.892,0,0,0,2.488.482h.381a14.708,14.708,0,0,0,2.513-.482c1.929-.482,3.554-.914,4.95,1.6A11.705,11.705,0,0,1,18.9,60.914a19.213,19.213,0,0,1,.533,3.5A5.874,5.874,0,0,1,19.151,66.905Z" transform="translate(0 -55.109)" fill="#fff"/>
        </g>
      </g>
      <g id="Group_7815" data-name="Group 7815" transform="translate(2.626 57.64)">
        <g id="Group_7814" data-name="Group 7814" transform="translate(0 0)">
          <path id="Path_12024" data-name="Path 12024" d="M46.6,96.758a1.542,1.542,0,0,0-.914-.432,1.444,1.444,0,0,0-.406-.888l-.025-.025a1.438,1.438,0,0,0-1.041-.432,1.5,1.5,0,0,0-1.041.432,1.475,1.475,0,0,0-.432.914,1.512,1.512,0,0,0-.914.406l-.025.025a1.438,1.438,0,0,0-.432,1.041,1.5,1.5,0,0,0,.432,1.041,1.415,1.415,0,0,0,.939.432,1.354,1.354,0,0,0,.432.914,1.438,1.438,0,0,0,1.041.432,1.5,1.5,0,0,0,1.041-.432,1.542,1.542,0,0,0,.432-.914,1.354,1.354,0,0,0,.914-.432,1.438,1.438,0,0,0,.432-1.041A1.5,1.5,0,0,0,46.6,96.758Zm-.635,1.422a.517.517,0,0,1-.381.152h-.355a.482.482,0,0,0-.482.482v.33a.533.533,0,1,1-1.066,0v-.355a.482.482,0,0,0-.482-.482h-.355a.521.521,0,0,1-.381-.888l.025-.025a.607.607,0,0,1,.355-.127H43.2a.482.482,0,0,0,.482-.482v-.355a.539.539,0,0,1,.914-.381l.025.025a.606.606,0,0,1,.127.355v.355a.482.482,0,0,0,.482.482h.355a.539.539,0,0,1,.381.914Z" transform="translate(-41.373 -94.981)" fill="#fff"/>
        </g>
      </g>
      <g id="Group_7817" data-name="Group 7817" transform="translate(13.719 57.767)">
        <g id="Group_7816" data-name="Group 7816" transform="translate(0 0)">
          <circle id="Ellipse_601" data-name="Ellipse 601" cx="0.888" cy="0.888" r="0.888" fill="#fff"/>
        </g>
      </g>
      <g id="Group_7819" data-name="Group 7819" transform="translate(13.719 61.371)">
        <g id="Group_7818" data-name="Group 7818" transform="translate(0 0)">
          <circle id="Ellipse_602" data-name="Ellipse 602" cx="0.888" cy="0.888" r="0.888" fill="#fff"/>
        </g>
      </g>
      <g id="Group_7821" data-name="Group 7821" transform="translate(11.917 59.569)">
        <g id="Group_7820" data-name="Group 7820" transform="translate(0 0)">
          <circle id="Ellipse_603" data-name="Ellipse 603" cx="0.888" cy="0.888" r="0.888" fill="#fff"/>
        </g>
      </g>
      <g id="Group_7823" data-name="Group 7823" transform="translate(15.521 59.569)">
        <g id="Group_7822" data-name="Group 7822" transform="translate(0 0)">
          <circle id="Ellipse_604" data-name="Ellipse 604" cx="0.888" cy="0.888" r="0.888" fill="#fff"/>
        </g>
      </g>
    </g>
  </g>
</svg>
