<svg xmlns="http://www.w3.org/2000/svg" width="32" height="32" viewBox="0 0 32 32">
  <g id="Group_7705" data-name="Group 7705" transform="translate(-1703.64 -1820.834)">
    <g id="Group_4" data-name="Group 4" transform="translate(-5535.36 -1681.166)">
      <circle id="Ellipse_67" data-name="Ellipse 67" cx="16" cy="16" r="16" transform="translate(7239 3502)" fill="#1b81f8"/>
    </g>
    <path id="_4396024801535956910" data-name="4396024801535956910" d="M24.238,16.673V16.6c-.115-1.358-4.19-1.7-6.353-1.7s-6.238.368-6.353,1.7v.046h0v.023a.818.818,0,0,0,.046.23l.737,3.062a2.436,2.436,0,0,0-2.624.645c-.023.023-.161.414-.161.414a3.134,3.134,0,0,0-1.98-1.243H7.456a3.352,3.352,0,0,0-1.634.207,1.588,1.588,0,0,0-1.1,1.2v.069l.023.368a4.06,4.06,0,0,0-1.957.691,1.938,1.938,0,0,0-.9,1.68,1.76,1.76,0,0,0,.622,1.243,3.934,3.934,0,0,0,2.555.875,1.314,1.314,0,0,0,1.22,1.036l.092.023a1.121,1.121,0,0,0,.276.023,2.458,2.458,0,0,0,.575-.069A1.67,1.67,0,0,0,8.1,28.643l.092.046a1.956,1.956,0,0,0,1.1.391,1.366,1.366,0,0,0,.529-.115,2.474,2.474,0,0,0,.276.76l.046.069a1.34,1.34,0,0,0,1.2.783,2.537,2.537,0,0,0,.414-.046,3.878,3.878,0,0,0,1.819,2.279,2.107,2.107,0,0,0,.875.207,1.239,1.239,0,0,0,.506-.092,1.971,1.971,0,0,0,1.22-1.519,4.471,4.471,0,0,0-.115-2.256l.161-.046c.023,0,.046-.023.069-.023a1.42,1.42,0,0,0,.6-.76c.322.023.645.046.99.046,2.141,0,4.282-.575,4.374-1.7V24.8l1.915-7.852C24.2,16.877,24.238,16.649,24.238,16.673Zm-6.353-1.1c3.683,0,5.617.737,5.663,1.082l-.023.092c-.23.345-2.141,1.013-5.64,1.013s-5.41-.668-5.64-1.013l-.023-.092C12.267,16.3,14.2,15.568,17.884,15.568Zm-5.433,2.072a16.259,16.259,0,0,0,5.433.783,16.259,16.259,0,0,0,5.433-.783l-1.68,7.067h0v.069c0,.437-1.473,1.082-3.706,1.082-.506,0-.99-.046-1.473-.092a3.064,3.064,0,0,0-1.634-1.151l.253-.23.046-.046a1.708,1.708,0,0,0,.23-1.358,4.14,4.14,0,0,0-1.611-2.371c-.023,0-.023-.023-.046-.023s-.023-.023-.046-.023a4.634,4.634,0,0,0-.575-.322ZM2.99,24.752a1.181,1.181,0,0,1-.414-.783,1.33,1.33,0,0,1,.622-1.1,3.36,3.36,0,0,1,1.588-.575l.161,2.9c0,.092.023.161.023.253A3.338,3.338,0,0,1,2.99,24.752ZM6.512,26.5l-.092-.023c-.6-.092-.714-.276-.783-1.358l-.207-3.89c.069-.345.46-.552.691-.645a2.68,2.68,0,0,1,1.266-.161h.092A2.349,2.349,0,0,1,9,21.392a1.619,1.619,0,0,1,.138.645l-1.45,3.5c-.092.276-.184.529-.253.76a.175.175,0,0,0-.092.046A1.381,1.381,0,0,1,6.512,26.5Zm2.072,1.634-.092-.046c-.737-.506-.714-.921-.23-2.233l2-4.857c.437-.575,1.519-.529,2.371-.184h.023a4.839,4.839,0,0,1,.6.3c.023,0,.023.023.046.023s.023.023.046.023A3.243,3.243,0,0,1,14.661,23.1a1.109,1.109,0,0,1-.115.829l-3.8,3.614C9.712,28.482,9.344,28.643,8.584,28.136Zm6.975,3.154a1.406,1.406,0,0,1-.783,1.036,1.232,1.232,0,0,1-.875-.092,3.264,3.264,0,0,1-1.45-1.842.085.085,0,0,0,.069-.023l2.923-.967A3.584,3.584,0,0,1,15.559,31.29ZM16,28.5l-3.683,1.2c-1.036.3-1.266.276-1.565-.253l-.046-.069a1.369,1.369,0,0,1-.207-.76V28.6c.23-.161.46-.368.714-.575l2.785-2.647a.5.5,0,0,1,.111-.069.747.747,0,0,1,.257-.046,2.084,2.084,0,0,1,1.611,1.082l.023.023c0,.023.023.023.023.046a2.266,2.266,0,0,1,.3,1.243,1.416,1.416,0,0,1-.023.3h0A.678.678,0,0,1,16,28.5Zm1.911-.783c-.3,0-.575-.023-.875-.046v-.023a3.282,3.282,0,0,0-.207-1.151c.345.023.714.046,1.082.046a7.709,7.709,0,0,0,3.706-.783v.852C21.613,27.054,20.14,27.722,17.907,27.722Z" transform="translate(1706.493 1813.988)" fill="#fff" stroke="#fff" stroke-width="0.2"/>
  </g>
</svg>
