<svg xmlns="http://www.w3.org/2000/svg" width="221.015" height="248.766" viewBox="0 0 221.015 248.766">
  <g id="order_success" data-name="order success" transform="translate(-60.522 -91.402)">
    <g id="Group_6318" data-name="Group 6318" transform="translate(-12 -41)">
      <path id="Path_10584" data-name="Path 10584" d="M277.86,549.868c-2.54-4.7.35-10.461,3.653-14.653s7.347-8.551,7.26-13.893c-.126-7.676-8.271-12.207-14.779-16.276a72.169,72.169,0,0,1-13.271-10.668,19.382,19.382,0,0,1-4.08-5.461c-1.343-3-1.309-6.413-1.221-9.7q.42-16.444,1.623-32.825" transform="translate(-172.136 -187.236)" fill="none" stroke="#3f3d56" stroke-miterlimit="10" stroke-width="4"/>
      <path id="Path_10585" data-name="Path 10585" d="M224.735,423.494a11.969,11.969,0,0,1,5.976-9.8l2.68,5.3-.08-6.417a11.973,11.973,0,1,1-8.575,10.923Z" transform="translate(-152.2 -164.938)" fill="#1b81f8"/>
      <path id="Path_10586" data-name="Path 10586" d="M283.322,643.869a11.966,11.966,0,0,0,22.6-4.9,11.812,11.812,0,0,0-.78-4.856,11.973,11.973,0,0,0-22.392.13l7.477,6.081L282,638.411A11.837,11.837,0,0,0,283.322,643.869Z" transform="translate(-189.438 -304.297)" fill="#1b81f8"/>
      <path id="Path_10587" data-name="Path 10587" d="M281.49,565.353a11.973,11.973,0,0,0,3.8-23.483l.063,4.93-2.694-5.364h-.031a11.973,11.973,0,0,0-1.116,23.921Z" transform="translate(-181.696 -249.019)" fill="#1b81f8"/>
      <path id="Path_10589" data-name="Path 10589" d="M226.818,438.847c2.764.3,5.451,1.162,8.222,1.333s5.818-.49,7.571-2.645a37.326,37.326,0,0,0,2.215-3.9,8.495,8.495,0,0,1,3.016-2.837,11.973,11.973,0,1,1-22.392,7.946C225.915,438.767,226.37,438.8,226.818,438.847Z" transform="translate(-152.673 -177.1)" fill="#1b81f8" opacity="0.1"/>
      <path id="Path_10591" data-name="Path 10591" d="M282.444,578.5a11.969,11.969,0,0,0,11.483-16.853,9.682,9.682,0,0,0-2.53,2.449,41.042,41.042,0,0,1-2.6,4.034c-2.019,2.25-5.412,3.044-8.474,2.97-2.963-.063-5.818-.791-8.764-1.018a11.979,11.979,0,0,0,10.884,8.418Z" transform="translate(-182.65 -262.17)" opacity="0.1"/>
      <path id="Path_10592" data-name="Path 10592" d="M285.78,658.114a11.966,11.966,0,0,0,22.6-4.9,11.812,11.812,0,0,0-.78-4.856,11.99,11.99,0,0,0-2.624,2.341,46.017,46.017,0,0,1-3.2,4.255c-2.449,2.4-6.4,3.394-9.915,3.5A51.337,51.337,0,0,1,285.78,658.114Z" transform="translate(-191.895 -318.543)" opacity="0.1"/>
      <path id="Path_10593" data-name="Path 10593" d="M268.038,562.53l-46.183,9.446-1.05-.1-40.585-4.093V516.347l49.682-8.4,36.037,4.2.01.227,0,.112Z" transform="translate(-79.46 -192.908)" fill="#1b81f8" opacity="0.5"/>
      <path id="Path_10594" data-name="Path 10594" d="M343.453,570.754,297.27,580.2l-1.05-.1V527.37l45.144-6.77Z" transform="translate(-154.875 -201.132)" fill="#1b81f8"/>
      <path id="Path_10595" data-name="Path 10595" d="M265.952,512.488l-.014.01-45.133,6.648-40.585-2.8,49.682-8.4,36.037,4.2.01.227Z" transform="translate(-79.46 -192.908)" opacity="0.05"/>
      <path id="Path_10596" data-name="Path 10596" d="M413.038,568.53l-46.183,9.447-1.05-.1-40.585-4.094V522.347l49.682-8.4,36.037,4.2.01.227,0,.112Z" transform="translate(-173.729 -196.808)" fill="#1b81f8" opacity="0.5"/>
      <path id="Path_10597" data-name="Path 10597" d="M488.453,576.754,442.27,586.2l-1.05-.1V533.37l45.144-6.77Z" transform="translate(-249.144 -205.032)" fill="#1b81f8"/>
      <path id="Path_10598" data-name="Path 10598" d="M410.952,518.488l-.014.01L365.8,525.146l-40.585-2.8,49.682-8.4,36.037,4.2.01.227Z" transform="translate(-173.729 -196.808)" opacity="0.05"/>
      <path id="Path_10599" data-name="Path 10599" d="M322.038,424.53l-46.183,9.447-1.05-.1-40.585-4.094V378.347l49.682-8.4,36.037,4.2.01.227,0,.112Z" transform="translate(-114.567 -103.19)" fill="#1b81f8" opacity="0.441"/>
      <path id="Path_10600" data-name="Path 10600" d="M397.453,432.754,351.27,442.2l-1.05-.1V389.37l45.144-6.77Z" transform="translate(-189.982 -111.414)" fill="#1b81f8"/>
      <path id="Path_10601" data-name="Path 10601" d="M319.952,374.488l-.014.01L274.8,381.146l-40.585-2.8,49.682-8.4,36.037,4.2.01.227Z" transform="translate(-114.567 -103.19)" opacity="0.05"/>
      <path id="Path_10602" data-name="Path 10602" d="M475.053,479.176l-24.1,4.933-.549-.056-21.181-2.138V455.074l25.929-4.384,18.809,2.194.007.119v.056Z" transform="translate(-241.342 -155.681)" fill="#1b81f8" opacity="0.549"/>
      <path id="Path_10603" data-name="Path 10603" d="M514.412,483.474l-24.1,4.933-.549-.056V460.834l23.564-3.534Z" transform="translate(-280.701 -159.979)" fill="#1b81f8"/>
      <path id="Path_10604" data-name="Path 10604" d="M473.965,453.059l-.007.007L450.4,456.536l-21.181-1.462,25.929-4.384,18.809,2.194.007.119Z" transform="translate(-241.342 -155.681)" opacity="0.05"/>
      <path id="Path_10607" data-name="Path 10607" d="M288.965,304.059l-.007.007L265.4,307.536l-21.181-1.462,25.929-4.384,18.809,2.194.007.119Z" transform="translate(-121.069 -58.812)" opacity="0.05"/>
      <path id="Path_10610" data-name="Path 10610" d="M409.965,301.059l-.007.007L386.4,304.536l-21.181-1.462,25.929-4.384,18.809,2.194.007.119Z" transform="translate(-199.734 -56.862)" opacity="0.05"/>
      <path id="Path_10629" data-name="Path 10629" d="M320.053,253.176l-24.1,4.93-.549-.053-21.181-2.138V229.074l25.929-4.384,18.809,2.194.007.119v.056Z" transform="translate(-134.572 17.248)" fill="#1b81f8"/>
    </g>
    <path id="Icon_metro-location" data-name="Icon metro-location" d="M14.826,1.928c-3.574,0-6.472,2.577-6.472,5.755,0,5.755,6.472,12.662,6.472,12.662S21.3,13.439,21.3,7.683C21.3,4.5,18.4,1.928,14.826,1.928Zm0,9.28a3.764,3.764,0,0,1-3.964-3.525,3.764,3.764,0,0,1,3.964-3.525A3.764,3.764,0,0,1,18.79,7.683,3.764,3.764,0,0,1,14.826,11.209ZM12.319,7.683a2.381,2.381,0,0,1,2.508-2.23,2.381,2.381,0,0,1,2.508,2.23,2.381,2.381,0,0,1-2.508,2.23A2.381,2.381,0,0,1,12.319,7.683Z" transform="translate(193.369 142.072)" fill="#1b81f8"/>
    <g id="Group_6341" data-name="Group 6341" transform="translate(-56 19)">
      <path id="Path_10711" data-name="Path 10711" d="M571.17,463.4a6.343,6.343,0,0,0,4.4-8.676L598.947,401.9l-13.376-3.369-18.778,52.985A6.377,6.377,0,0,0,571.17,463.4Z" transform="translate(-288.62 -258.035)" fill="#ffb8b8"/>
      <path id="Path_10712" data-name="Path 10712" d="M602.148,413.708l-13.009-6.089a2.844,2.844,0,0,1-1.166-4.146l7.906-11.94a7.9,7.9,0,0,1,14.287,6.739l-4.088,13.676a2.844,2.844,0,0,1-3.93,1.76Z" transform="translate(-298.529 -253.315)" fill="#6c63ff"/>
      <path id="Path_10713" data-name="Path 10713" d="M535.389,417.587l14.342,10.154a1.077,1.077,0,0,0,1.264,0l3.875-2.91a1.062,1.062,0,0,0,.069-1.66L543.9,413.329a1.09,1.09,0,0,0-1.077-.208l-7.182,2.57a1.083,1.083,0,0,0-.257,1.9Z" transform="translate(-277 -263.988)" fill="#3f3d56"/>
      <path id="Path_10714" data-name="Path 10714" d="M537.8,417.313l12.925,9.151a.38.38,0,0,0,.451,0l3.486-2.617a.37.37,0,0,0,.085-.518.385.385,0,0,0-.054-.059l-9.954-8.877a.388.388,0,0,0-.383-.071l-6.469,2.314a.386.386,0,0,0-.087.673Z" transform="translate(-278.107 -264.497)" fill="#fff"/>
      <path id="Path_10715" data-name="Path 10715" d="M339.826,446.964h-7.238l-3.443-27.919h10.683Z" transform="translate(-29.165 -141.98)" fill="#ffb8b8"/>
      <path id="Path_10716" data-name="Path 10716" d="M611.172,682.509H587.833v-.3a9.084,9.084,0,0,1,9.084-9.084h14.255Z" transform="translate(-298.665 -370.508)" fill="#2f2e41"/>
      <path id="Path_10717" data-name="Path 10717" d="M380.826,446.964h-7.238l-3.443-27.919h10.683Z" transform="translate(-45.958 -141.98)" fill="#ffb8b8"/>
      <path id="Path_10718" data-name="Path 10718" d="M652.172,682.509H628.833v-.3a9.084,9.084,0,0,1,9.084-9.084h14.255Z" transform="translate(-315.458 -370.508)" fill="#2f2e41"/>
      <path id="Path_10719" data-name="Path 10719" d="M633.714,575.6c-.066,0-.131,0-.2-.007l-8.324-.616a2.673,2.673,0,0,1-2.4-2.084l-14.453-79.335a.886.886,0,0,0-1.748.258l5.132,78.167a2.657,2.657,0,0,1-2.649,2.865h-6.338a2.657,2.657,0,0,1-2.475-1.689c-15.941-41.746-10.169-123.542-10.123-124.365l.59-.59h0l31.751,5.482.067.065c10.849,7.968,15.544,101.285,13.818,119.037a3.18,3.18,0,0,1-.785,2.047,2.659,2.659,0,0,1-1.867.765Z" transform="translate(-299.177 -278.381)" fill="#2f2e41"/>
      <circle id="Ellipse_485" data-name="Ellipse 485" cx="14.501" cy="14.501" r="14.501" transform="translate(280.123 92.968)" fill="#ffb8b8"/>
      <path id="Path_10720" data-name="Path 10720" d="M625.725,432.891a2.2,2.2,0,0,1-.44-.044l-37.242-4.779a3.106,3.106,0,0,1-2.213-3.311l3.564-19.676c-4.723-5.9-.26-21.152,2.626-25.007l-1.116-3.021a3.749,3.749,0,0,1-.05-2.438,2.99,2.99,0,0,1,1.4-1.765l15.114-8.03a2.506,2.506,0,0,1,3.505,1.623l2.964,8.021-.045.023c7.1,3.8,13.385,7.567,8.662,27.641l5.922,27.724a3.437,3.437,0,0,1-.985,2.331A2.4,2.4,0,0,1,625.725,432.891Z" transform="translate(-297.843 -244.117)" fill="#1b81f8"/>
      <path id="Path_10721" data-name="Path 10721" d="M557.178,419.926a6.213,6.213,0,0,1,.658.725l29.211-2.018,3.134-6.386,10.255,3.47-4.449,11.844a4.723,4.723,0,0,1-4.779,3.049l-33.217-2.519a6.2,6.2,0,1,1-.813-8.164Z" transform="translate(-281.844 -263.655)" fill="#ffb8b8"/>
      <path id="Path_10722" data-name="Path 10722" d="M613.96,407.374a2.654,2.654,0,0,1,.086-2.211l6.024-11.9a7.379,7.379,0,0,1,14.015,4.62l-2.32,13.175a2.657,2.657,0,0,1-3.456,2.06l-12.732-4.239A2.653,2.653,0,0,1,613.96,407.374Z" transform="translate(-309.284 -253.804)" fill="#1b81f8"/>
      <circle id="Ellipse_486" data-name="Ellipse 486" cx="11.808" cy="11.808" r="11.808" transform="translate(290.961 72.402)" fill="#2f2e41"/>
      <path id="Path_10727" data-name="Path 10727" d="M569.863,331.193a6.18,6.18,0,0,1-3.418-.286,4.06,4.06,0,0,1-2.029-3.062c-2.2-14.618,10.23-13.416,11.7-14.049a16.108,16.108,0,0,0,2.6-1.9c1.932-1.345,4.438-1.443,6.791-1.494,2.794-.06,5.688-.1,8.252,1.009a12.362,12.362,0,0,1,5.485,5.056,25.529,25.529,0,0,1,2.72,7.046,17.581,17.581,0,0,1,.463,8.637,10.681,10.681,0,0,1-9.694,7.769c.954-3.369-1.128-7.1-4.217-8.753a12.188,12.188,0,0,0-8.039-.957,35.389,35.389,0,0,1-5.333.664C573.386,330.941,571.275,331.044,569.863,331.193Z" transform="translate(-288.967 -221.931)" fill="#2f2e41"/>
    </g>
  </g>
</svg>
