<svg xmlns="http://www.w3.org/2000/svg" width="270.59" height="187.108" viewBox="0 0 270.59 187.108">
  <g id="password_reset" data-name="password reset" transform="translate(0 -20.892)">
    <path id="Path_11284" data-name="Path 11284" d="M369.394,578.446H317.5V568h51.894Zm-51.22-.674H368.72v-9.1H318.174Z" transform="translate(-277.4 -424.281)" fill="#3f3d56"/>
    <circle id="Ellipse_507" data-name="Ellipse 507" cx="3.5" cy="3.5" r="3.5" transform="translate(82 145)" fill="#0a66c8"/>
    <ellipse id="Ellipse_508" data-name="Ellipse 508" cx="3" cy="3.5" rx="3" ry="3.5" transform="translate(73 145)" fill="#0a66c8"/>
    <circle id="Ellipse_509" data-name="Ellipse 509" cx="3.5" cy="3.5" r="3.5" transform="translate(63 145)" fill="#0a66c8"/>
    <ellipse id="Ellipse_510" data-name="Ellipse 510" cx="3" cy="3.5" rx="3" ry="3.5" transform="translate(54 145)" fill="#0a66c8"/>
    <circle id="Ellipse_511" data-name="Ellipse 511" cx="3.5" cy="3.5" r="3.5" transform="translate(45 145)" fill="#0a66c8"/>
    <path id="Path_11314" data-name="Path 11314" d="M0,0H41.1V8.6H0Z" transform="translate(181.61 161.537)" fill="#0a66c8"/>
    <rect id="Rectangle_4214" data-name="Rectangle 4214" width="61" height="8" transform="translate(171 119)" fill="#f0f0f0"/>
    <rect id="Rectangle_4215" data-name="Rectangle 4215" width="262" height="1" transform="translate(0 207)" fill="#3f3d56"/>
    <path id="Path_11286" data-name="Path 11286" d="M750.154,442.9H673.536a9.046,9.046,0,0,1-9.036-9.036V291.536a9.046,9.046,0,0,1,9.036-9.036h76.618a9.046,9.046,0,0,1,9.036,9.036V433.864A9.046,9.046,0,0,1,750.154,442.9ZM673.536,283.174a8.371,8.371,0,0,0-8.362,8.362V433.864a8.371,8.371,0,0,0,8.362,8.362h76.618a8.371,8.371,0,0,0,8.362-8.362V291.536a8.371,8.371,0,0,0-8.362-8.362Z" transform="translate(-507.47 -234.987)" fill="#3f3d56"/>
    <path id="Path_11287" data-name="Path 11287" d="M774.022,294.544a2.022,2.022,0,1,1,2.022-2.022A2.022,2.022,0,0,1,774.022,294.544Zm0-3.37a1.348,1.348,0,1,0,1.348,1.348A1.348,1.348,0,0,0,774.022,291.174Z" transform="translate(-578.745 -240.291)" fill="#3f3d56"/>
    <rect id="Rectangle_4216" data-name="Rectangle 4216" width="14.827" height="0.674" transform="translate(200.331 51.894)" fill="#3f3d56"/>
    <path id="Path_11288" data-name="Path 11288" d="M874.458,311.5v26.958A26.959,26.959,0,0,1,847.5,311.5Z" transform="translate(-628.804 -254.214)" fill="#0a66c8"/>
    <path id="Path_11289" data-name="Path 11289" d="M764.733,452.366H681.5V310.5h83.233Zm-82.559-.674h81.885V311.174H682.174Z" transform="translate(-518.742 -253.551)" fill="#3f3d56"/>
    <circle id="Ellipse_513" data-name="Ellipse 513" cx="9" cy="9" r="9" transform="translate(219 64)" fill="#0a66c8"/>
    <rect id="Rectangle_4217" data-name="Rectangle 4217" width="14" height="5" transform="translate(166 63)" fill="#3f3d56"/>
    <rect id="Rectangle_4218" data-name="Rectangle 4218" width="12" height="5" transform="translate(174 107)" fill="#3f3d56"/>
    <path id="Path_11290" data-name="Path 11290" d="M775.5,495.261h-62V486.5h62Zm-61.329-.674h60.655v-7.413H714.174Z" transform="translate(-539.958 -370.244)" fill="#3f3d56"/>
    <rect id="Rectangle_4219" data-name="Rectangle 4219" width="61" height="8" transform="translate(171 144)" fill="#f0f0f0"/>
    <rect id="Rectangle_4220" data-name="Rectangle 4220" width="12" height="5" transform="translate(174 133)" fill="#3f3d56"/>
    <path id="Path_11291" data-name="Path 11291" d="M775.5,571.261h-62V562.5h62Zm-61.329-.674h60.655v-7.413H714.174Z" transform="translate(-539.958 -420.634)" fill="#3f3d56"/>
    <path id="Path_11292" data-name="Path 11292" d="M784.959,622.935H742.5V613.5h42.459Zm-41.785-.674h41.111v-8.087H743.174Z" transform="translate(-559.186 -454.448)" fill="#3f3d56"/>
    <path id="Path_11293" data-name="Path 11293" d="M879.237,495.87a3.37,3.37,0,0,1-5.968,2.147l0,0a3.37,3.37,0,1,1,5.873-2.942,0,0,0,0,0,0,0h0A3.448,3.448,0,0,1,879.237,495.87Z" transform="translate(-645.377 -374.222)" fill="rgba(67,67,67,0.85)"/>
    <path id="Path_11294" data-name="Path 11294" d="M880.565,498.521a3.37,3.37,0,0,1-5.968,2.147l0,0a3.446,3.446,0,0,1-.094-.8,3.37,3.37,0,0,1,5.968-2.146v0h0A3.445,3.445,0,0,1,880.565,498.521Z" transform="translate(-646.706 -376.874)" opacity="0.1"/>
    <circle id="Ellipse_514" data-name="Ellipse 514" cx="3.5" cy="3.5" r="3.5" transform="translate(228 120)" fill="#0a66c8"/>
    <path id="Path_11295" data-name="Path 11295" d="M879.237,571.87a3.37,3.37,0,0,1-5.968,2.146l0,0a3.369,3.369,0,1,1,5.873-2.942,0,0,0,0,0,0,0h0a3.448,3.448,0,0,1,.094.8Z" transform="translate(-645.377 -424.612)" fill="rgba(67,67,67,0.85)"/>
    <path id="Path_11296" data-name="Path 11296" d="M880.565,574.521a3.37,3.37,0,0,1-5.968,2.147l0,0a3.446,3.446,0,0,1-.094-.8,3.37,3.37,0,0,1,5.968-2.147v0h0A3.445,3.445,0,0,1,880.565,574.521Z" transform="translate(-646.706 -427.264)" opacity="0.1"/>
    <circle id="Ellipse_515" data-name="Ellipse 515" cx="3.5" cy="3.5" r="3.5" transform="translate(228 146)" fill="#0a66c8"/>
    <path id="Path_11297" data-name="Path 11297" d="M861.544,211.587a4.044,4.044,0,1,1,4.044-4.044A4.044,4.044,0,0,1,861.544,211.587Zm0-7.413a3.37,3.37,0,1,0,3.37,3.37A3.37,3.37,0,0,0,861.544,204.174Z" transform="translate(-635.434 -182.608)" fill="#3f3d56"/>
    <path id="Path_11298" data-name="Path 11298" d="M588.261,377.261H579.5V368.5h8.761Zm-8.087-.674h7.413v-7.413h-7.413Z" transform="translate(-451.113 -292.007)" fill="#3f3d56"/>
    <path id="Path_11299" data-name="Path 11299" d="M984.261,571.261H975.5V562.5h8.761Zm-8.087-.674h7.413v-7.413h-7.413Z" transform="translate(-713.671 -420.634)" fill="#3f3d56"/>
    <path id="Path_11300" data-name="Path 11300" d="M488.5,390.739l1.5.81,5.116,2.757,8.259,4.45,4.813-8.93a7.253,7.253,0,0,0-2.946-9.836A9.634,9.634,0,0,0,494,381.516l0,0a9.644,9.644,0,0,0-1.811,2.384Z" transform="translate(-390.78 -298.858)" fill="#2f2e41"/>
    <path id="Path_11301" data-name="Path 11301" d="M342.506,540.951l-1.009,11.1-3.784.5-2.523-12.613Z" transform="translate(-222.24 -357.996)" fill="#ffb8b8"/>
    <path id="Path_11302" data-name="Path 11302" d="M535.866,716.341s4.793-2.523,5.8-.5c0,0-.757,6.054,2.27,6.811s4.289,6.054,0,6.559-7.063-1.009-8.577-1.009,0-5.3,0-5.3Z" transform="translate(-421.402 -521.781)" fill="rgba(67,67,67,0.85)"/>
    <path id="Path_11303" data-name="Path 11303" d="M266.316,540.951l1.009,11.1,3.784.5,2.523-12.613Z" transform="translate(-176.574 -357.996)" fill="#ffb8b8"/>
    <path id="Path_11304" data-name="Path 11304" d="M460.713,716.341s-4.793-2.523-5.8-.5c0,0,.757,6.054-2.27,6.811s-4.289,6.054,0,6.559,7.064-1.009,8.577-1.009,0-5.3,0-5.3Z" transform="translate(-365.169 -521.781)" fill="rgba(67,67,67,0.85)"/>
    <circle id="Ellipse_516" data-name="Ellipse 516" cx="6.559" cy="6.559" r="6.559" transform="translate(103.869 80.787)" fill="#ffb8b8"/>
    <path id="Path_11305" data-name="Path 11305" d="M464.067,413.572l5.3,8.325,6.307-.5,10.343.757s.976-1.953,1.773-3.852a14.921,14.921,0,0,0,1-2.959c.252-1.766-3.279-3.532-3.279-3.532s-.139-.025-.371-.081c-.308-.073-.782-.194-1.3-.371-1.173-.4-2.583-1.075-2.868-2.071-.5-1.766,3.279-4.289,3.279-4.289l-4.541-4.289s-4.034,5.6-8.933,6.879a7.809,7.809,0,0,1-.863.177l-.043.008A6.717,6.717,0,0,0,464.067,413.572Z" transform="translate(-374.578 -313.36)" fill="#ffb8b8"/>
    <path id="Path_11306" data-name="Path 11306" d="M455.072,432.149l-2.775,2.27s-2.27,10.848-1.514,13.875-.252,5.8-.252,6.307-2.27,19.425-2.27,19.425-4.541,10.091.252,9.082,3.027-11.1,3.027-11.1l5.8-17.659V439.465Z" transform="translate(-362.808 -334.208)" fill="#ffb8b8"/>
    <path id="Path_11307" data-name="Path 11307" d="M529.459,438.138l2.018,1.514,1.009,21.191,7.568,18.163s5.55,8.829,2.018,9.082-5.8-9.082-5.8-9.082L529.459,461.6l-1.009-16.9Z" transform="translate(-417.265 -338.179)" fill="#ffb8b8"/>
    <path id="Path_11308" data-name="Path 11308" d="M469.67,442.629s5.045,3.532,13.118,2.27c0,0,2.27,4.541,1.009,7.064s1.514,8.577,2.018,9.334,6.307,16.4,8.325,33.3,7.568,28.506,2.775,30.02-14.632,3.279-15.641,1.766-2.523-39.1-2.523-39.1l-2.775,14.379s3.784,24.47,1.009,24.975-20.181-1.009-19.677-4.036,5.55-18.92,5.55-18.92-.252-31.786,4.793-37.84c0,0,2.018-3.279-.757-7.568s-2.523-11.1-2.523-11.1S466.39,447.17,469.67,442.629Z" transform="translate(-370.09 -341.156)" fill="rgba(67,67,67,0.85)"/>
    <path id="Path_11309" data-name="Path 11309" d="M282.913,279.8l4.246,9.342,1.009-.5-4.392-9.014Z" transform="translate(-187.579 -185.396)" fill="#2f2e41"/>
    <path id="Path_11310" data-name="Path 11310" d="M522.737,432.306l3.186,7.011.764-.068-.26-1.193-2.389-5.378C523.731,432.6,523.257,432.483,522.737,432.306Z" transform="translate(-413.478 -334.312)" fill="#2f2e41"/>
    <path id="Path_11311" data-name="Path 11311" d="M492.593,391.553a4.153,4.153,0,0,0,7.618.742c-3.191-4.172-.454-6.794,4.73-8.776a4.149,4.149,0,0,0-.447-4.6,9.667,9.667,0,0,0-7.909,2.6l0,0-3.683,6.831A4.132,4.132,0,0,0,492.593,391.553Z" transform="translate(-393.366 -298.862)" fill="#2f2e41"/>
    <ellipse id="Ellipse_517" data-name="Ellipse 517" cx="0.883" cy="1.514" rx="0.883" ry="1.514" transform="translate(105.635 86.589)" fill="#ffb8b8"/>
    <path id="Path_11312" data-name="Path 11312" d="M522.408,385.676l7.583,3.436,1.39-3.068a7.266,7.266,0,0,0-1.463-3.06L524.7,380.62Z" transform="translate(-413.259 -300.043)" fill="#2f2e41"/>
    <circle id="Ellipse_518" data-name="Ellipse 518" cx="3.5" cy="3.5" r="3.5" transform="translate(124 146)" fill="#0a66c8"/>
    <rect id="Rectangle_4222" data-name="Rectangle 4222" width="0.674" height="25.075" transform="translate(29.645 182.631)" fill="#3f3d56"/>
    <circle id="Ellipse_520" data-name="Ellipse 520" cx="3.546" cy="3.546" r="3.546" transform="translate(26.436 179.085)" fill="#3f3d56"/>
    <path id="Path_11313" data-name="Path 11313" d="M266.046,710.187s-.507-10.9-10.891-9.629" transform="translate(-236.064 -512.103)" fill="#3f3d56"/>
  </g>
</svg>
