<svg xmlns="http://www.w3.org/2000/svg" width="32" height="32" viewBox="0 0 32 32">
  <g id="Group_7839" data-name="Group 7839" transform="translate(284 -1300)">
    <g id="Group_7809" data-name="Group 7809" transform="translate(-7562 -2199)">
      <path id="Path_12012" data-name="Path 12012" d="M16,0A16,16,0,1,1,0,16,16,16,0,0,1,16,0Z" transform="translate(7278 3499)" fill="#1b81f8"/>
    </g>
    <g id="_11572600301536039566" data-name="11572600301536039566" transform="translate(-281.243 1295.121)">
      <path id="Path_12020" data-name="Path 12020" d="M13.135,23.768a2.221,2.221,0,0,0-.955.037l-2.889-4.34a.3.3,0,0,0,0-.1l3.527-5.375a.307.307,0,0,0-.513-.337L8.89,18.862,5.507,13.779a.307.307,0,0,0-.511.34l3.577,5.374L5.811,23.855a2.24,2.24,0,0,0-2.306.98,2.291,2.291,0,0,0,.632,3.157,2.216,2.216,0,0,0,1.241.381,2.251,2.251,0,0,0,1.885-1.023h0a2.3,2.3,0,0,0-.637-3.155,2.265,2.265,0,0,0-.221-.129l2.541-4.011L11.6,24.045c-.05.03-.1.06-.148.094a2.3,2.3,0,0,0-.57,3.169h0a2.255,2.255,0,0,0,1.86.984,2.222,2.222,0,0,0,1.278-.406,2.3,2.3,0,0,0,.568-3.171A2.238,2.238,0,0,0,13.135,23.768ZM6.749,27.014a1.63,1.63,0,0,1-1.046.712,1.608,1.608,0,0,1-1.225-.244,1.676,1.676,0,0,1-.46-2.311A1.618,1.618,0,0,1,6.283,24.7,1.685,1.685,0,0,1,6.749,27.014Zm6.923.37a1.607,1.607,0,0,1-1.218.268,1.634,1.634,0,0,1-1.062-.69,1.685,1.685,0,0,1,.416-2.321,1.61,1.61,0,0,1,1.218-.269,1.63,1.63,0,0,1,1.06.69A1.686,1.686,0,0,1,13.672,27.384Z" transform="translate(0 -0.412)" fill="#fff" stroke="#fff" stroke-width="0.3"/>
      <path id="Path_12021" data-name="Path 12021" d="M73.626,15.66a.307.307,0,0,0,0-.614H68.614V13.614h5.012a.307.307,0,0,0,0-.614H68.307a.307.307,0,0,0-.307.307V27.423a.307.307,0,0,0,.307.307h5.319a.307.307,0,0,0,0-.614H68.614V25.479h5.012a.307.307,0,0,0,0-.614H68.614V23.024h5.012a.307.307,0,0,0,0-.614H68.614V20.569h5.012a.307.307,0,0,0,0-.614H68.614V18.115h5.012a.307.307,0,1,0,0-.614H68.614V15.66Z" transform="translate(-51.6 0)" fill="#fff" stroke="#fff" stroke-width="0.3"/>
    </g>
  </g>
</svg>
