<svg xmlns="http://www.w3.org/2000/svg" width="127.558" height="141.269" viewBox="0 0 127.558 141.269">
  <g id="sale" transform="translate(-4075.377 -3804.931)">
    <g id="Group_6604" data-name="Group 6604" transform="translate(4092.666 3790.713)">
      <g id="Group_6603" data-name="Group 6603" transform="translate(0 14.218)">
        <path id="Path_11209" data-name="Path 11209" d="M4307.264,3883.682s11.973-3.8,11.973-16.483c0-12.621-16.046-19.586-16.192-19.649v-3.705h-7.283v5.256l-17.373,21.268h-.175l-17.373-21.268v-5.256h-7.283v3.705c-.146.063-16.192,7.028-16.192,19.649,0,12.679,11.973,16.483,11.973,16.483a138.215,138.215,0,0,1-.285,22.171h58.494A138.141,138.141,0,0,1,4307.264,3883.682Z" transform="translate(-4225.955 -3843.845)" fill="#1b81f8"/>
        <path id="Path_11210" data-name="Path 11210" d="M4194.723,4166.252h104.692s-4.814-32.966-15.816-50.717c-4.212-6.795-6.4-15.818-7.511-24.37h-58.038c-1.107,8.552-3.3,17.575-7.511,24.37C4199.538,4133.286,4194.723,4166.252,4194.723,4166.252Z" transform="translate(-4194.723 -4024.983)" fill="#1b81f8"/>
        <path id="Path_11211" data-name="Path 11211" d="M4336.281,4075.568h-60.7q-.2,2.056-.49,4.174h61.68Q4336.482,4077.628,4336.281,4075.568Z" transform="translate(-4253.586 -4013.56)" fill="#1b81f8"/>
      </g>
      <path id="Path_11212" data-name="Path 11212" d="M4357.875,4106.592a1.047,1.047,0,0,1-.976-.672,47.36,47.36,0,0,1-3.209-21.395c-2.637,3.858-6.333,10.583-5.9,17.481a1.043,1.043,0,1,1-2.082.13c-.716-11.434,8.563-21.885,8.959-22.324a1.043,1.043,0,0,1,1.774,1c-.029.1-2.946,10.307,2.41,24.368a1.043,1.043,0,0,1-.6,1.347A1.026,1.026,0,0,1,4357.875,4106.592Z" transform="translate(-4301.31 -4002.197)" fill="#f1e6e7"/>
    </g>
    <g id="Group_6608" data-name="Group 6608" transform="translate(4075.377 3827.737)">
      <path id="Path_11213" data-name="Path 11213" d="M4276.728,3938.39c-.181-.079-.356-.166-.531-.259h0l.945-1.754c.135.073.265.136.389.192h0a3.746,3.746,0,0,0,4.066-.6h0a12.935,12.935,0,0,0,3.535-5.035h0c2.233-4.994,3.045-12.051,1.7-16.062h0l1.895-.623c1.543,4.812.612,12.034-1.768,17.49h0a14.841,14.841,0,0,1-4.146,5.811h0a5.762,5.762,0,0,1-6.02.867h0c-.021-.009-.042-.017-.061-.027Z" transform="translate(-4212.554 -3914.216)" fill="#fff"/>
      <path id="Path_11214" data-name="Path 11214" d="M4307.653,4023.545a4.487,4.487,0,0,1-1.648,6.125l-31.087,17.908a4.481,4.481,0,0,1-6.122-1.65l-31.006-53.821c-1.237-2.146,5.526-33.659,5.526-33.659s32.093,9.13,33.331,11.275Z" transform="translate(-4180.693 -3946.586)" fill="rgba(67,67,67,0.85)"/>
      <path id="Path_11215" data-name="Path 11215" d="M4276.63,3986.881a5.314,5.314,0,1,1-7.256-1.954A5.309,5.309,0,0,1,4276.63,3986.881Z" transform="translate(-4205.908 -3965.461)" fill="#fff"/>
      <path id="Path_11216" data-name="Path 11216" d="M4095.594,4034.98a4.487,4.487,0,0,1-6.055,1.885l-31.763-16.679a4.481,4.481,0,0,1-1.882-6.055l28.876-54.994c1.152-2.193,31.392-13.343,31.392-13.343s9.46,32,8.31,34.191Z" transform="translate(-4055.377 -3937.32)" fill="#da4643"/>
      <path id="Path_11217" data-name="Path 11217" d="M4248.972,3981.555a5.314,5.314,0,1,1-2.232-7.176A5.31,5.31,0,0,1,4248.972,3981.555Z" transform="translate(-4186.137 -3957.808)" fill="#fff"/>
      <g id="Group_6605" data-name="Group 6605" transform="translate(57.214)">
        <path id="Path_11218" data-name="Path 11218" d="M4253.134,3934.093a11.944,11.944,0,0,1,1.568-4.956h0a42.092,42.092,0,0,1,13-14.073h0a6.509,6.509,0,0,1,4.13-.905l.026.074-.22,1.451a5.669,5.669,0,0,0-2.9,1.085h0a28.773,28.773,0,0,0-4.4,3.436h0a40.56,40.56,0,0,0-7.873,9.858h0a10.157,10.157,0,0,0-1.339,4.089h0a1.925,1.925,0,0,0,1.028,2h0c.043.021.078.041.118.059h0l-.866,1.8-.177-.09h0l-.062-.031h0a3.953,3.953,0,0,1-2.033-3.792Z" transform="translate(-4253.128 -3914.125)" fill="#fff"/>
      </g>
      <g id="Group_6606" data-name="Group 6606" transform="translate(17.332 33.109)">
        <path id="Path_11219" data-name="Path 11219" d="M4122.474,4179.273a6.554,6.554,0,0,1,2.16-1.17l.835,2.517a3.227,3.227,0,0,0-2.184,1.84q-.757,1.508-.255,2.284a1.1,1.1,0,0,0,1.214.611,3.71,3.71,0,0,0,1.721-1.548,6.981,6.981,0,0,1,2.5-2.363,3.52,3.52,0,0,1,3.458.11,3.6,3.6,0,0,1,1.9,2.69,5.689,5.689,0,0,1-.531,3.776,8.334,8.334,0,0,1-1.972,2.671,7.1,7.1,0,0,1-2.349,1.337l-.834-2.517a4.457,4.457,0,0,0,2.6-2.26q.841-1.674.337-2.446a1.485,1.485,0,0,0-1.425-.715q-.919.057-1.929,1.648a7.56,7.56,0,0,1-2.31,2.3,3.111,3.111,0,0,1-3.227-.048,3.5,3.5,0,0,1-1.958-2.773,5.623,5.623,0,0,1,.465-3.442A7.83,7.83,0,0,1,4122.474,4179.273Z" transform="translate(-4120.146 -4140.573)" fill="#fff"/>
        <path id="Path_11220" data-name="Path 11220" d="M4153.416,4154.1l-10.041-11.335,1.262-2.513,15.076,1.287-1.334,2.676-2.3-.213-2.86,5.7,1.548,1.721Zm-6.025-10.977,3.815,4.307,1.893-3.769Z" transform="translate(-4137.159 -4112.847)" fill="#fff"/>
        <path id="Path_11221" data-name="Path 11221" d="M4162.338,4100.7l10.22,5.132,3.365-6.7,2.345,1.177-4.627,9.215-12.564-6.31Z" transform="translate(-4150.124 -4082.733)" fill="#fff"/>
        <path id="Path_11222" data-name="Path 11222" d="M4194.774,4053.394l-12.558-6.306,4.627-9.234,2.346,1.177-3.374,6.718,2.681,1.347,2.528-5.035,2.337,1.174-2.528,5.034,2.857,1.435,3.365-6.7,2.345,1.178Z" transform="translate(-4165.607 -4037.854)" fill="#fff"/>
      </g>
      <g id="Group_6607" data-name="Group 6607" transform="translate(77.226 47.86)">
        <path id="Path_11223" data-name="Path 11223" d="M4318.27,4113.19a6.494,6.494,0,1,1,4.792-.778A6.121,6.121,0,0,1,4318.27,4113.19Zm3.2-3.309a3,3,0,0,0,1.474-2.011,3.63,3.63,0,0,0-2.463-4.075,3.039,3.039,0,0,0-2.475.388,3,3,0,0,0-1.464,1.994,3.63,3.63,0,0,0,2.463,4.075A3,3,0,0,0,4321.471,4109.881Zm6.993,14.162-.818-28.947,3.508-2.12L4332,4121.9Zm9.847-7.9a6.453,6.453,0,1,1,4.754-.773A6.063,6.063,0,0,1,4338.311,4116.146Zm3.118-3.317a2.946,2.946,0,0,0,1.443-1.962,3.51,3.51,0,0,0-2.4-3.967,2.964,2.964,0,0,0-2.423.375,2.925,2.925,0,0,0-1.429,1.954,3.509,3.509,0,0,0,2.4,3.966A2.949,2.949,0,0,0,4341.429,4112.829Z" transform="translate(-4313.424 -4092.976)" fill="#fff"/>
      </g>
    </g>
  </g>
</svg>
