<?xml version="1.0" encoding="utf-8"?>
<!-- Generator: Adobe Illustrator 26.0.1, SVG Export Plug-In . SVG Version: 6.00 Build 0)  -->
<svg version="1.1" id="Layer_1" xmlns="http://www.w3.org/2000/svg" xmlns:xlink="http://www.w3.org/1999/xlink" x="0px" y="0px"
	 viewBox="0 0 1920 1080" style="enable-background:new 0 0 1920 1080;" xml:space="preserve">
<style type="text/css">
	.st0{opacity:0.11;fill:#2A94F4;enable-background:new    ;}
	.st1{fill:#0B4870;}
	.st2{fill:#F7F7F7;}
	.st3{fill:#FFBE55;}
	.st4{opacity:0.52;fill:#2A94F4;enable-background:new    ;}
	.st5{opacity:0.11;fill:#FFBE55;enable-background:new    ;}
	.st6{fill:#0E538C;}
	.st7{fill:#FCD2B1;}
	.st8{fill:#FFE3CA;}
	.st9{fill:#FAB9AF;}
</style>
<g>
	<g>
		<path class="st0" d="M771.6,1028.37c-110.05-55.77-309.34-66.83-291.27-419.18c18.07-352.36,499.52-364.06,555.36-538.23
			c55.84-174.17,643.48-23.51,295.75,406.17c-61.57,76.08,82.96,160.56,57.67,298.99S881.65,1084.14,771.6,1028.37z"/>
		<ellipse class="st0" cx="986.22" cy="1019.47" rx="393.86" ry="60.53"/>
	</g>
	<path class="st1" d="M1283.96,1011.58H662.07c-13.26,0-24-10.74-24-24v-857.4c0-13.25,10.74-24,24-24h621.89
		c13.26,0,24,10.75,24,24v857.4C1307.96,1000.83,1297.21,1011.58,1283.96,1011.58z"/>
	<path class="st2" d="M1254.15,978.98H691.87c-13.26,0-24-10.74-24-24v-792.2c0-13.26,10.74-24,24-24h562.28c13.26,0,24,10.74,24,24
		v792.2C1278.15,968.23,1267.41,978.98,1254.15,978.98L1254.15,978.98z"/>
	<path class="st0" d="M748.12,251.98h85.53v85.53h-85.53V251.98z"/>
	<path class="st3" d="M743.79,276.35c4.34,2.21,8.36,4.73,12.27,7.34c3.89,2.63,7.69,5.36,11.35,8.21
		c7.36,5.67,14.3,11.73,20.96,18.05l-14.76,1.09c2.1-3.34,4.32-6.59,6.66-9.76c2.29-3.15,4.71-6.18,7.2-9.17
		c5.02-5.94,10.38-11.61,16.21-16.83c5.86-5.2,12.11-10.03,18.9-14.13c6.84-4.01,14.12-7.52,21.99-9.18
		c-5.04,6.27-9.75,12.05-14.37,17.91l-13.63,17.5c-4.52,5.81-9.06,11.6-13.63,17.37l-13.7,17.13l-7.66,9.58l-7.1-8.48
		c-5.89-7.04-11.5-14.36-16.69-22.06c-2.61-3.83-5.09-7.8-7.47-11.85C747.98,284.99,745.72,280.82,743.79,276.35L743.79,276.35z"/>
	<path class="st0" d="M748.12,502.68h85.53v85.53h-85.53V502.68z M748.12,759.76h85.53v85.53h-85.53V759.76z"/>
	<path class="st4" d="M872.14,251.98h335.45v13.77H872.14V251.98z M872.14,287.86h335.45v13.77H872.14V287.86z M1018.74,323.74
		h188.85v13.77H872.14v-13.77H1018.74 M872.14,502.68h335.45v13.77H872.14V502.68z M872.14,538.56h335.45v13.77H872.14V538.56z
		 M872.14,574.44h159.85v13.77H872.14V574.44z M872.14,759.76h335.45v13.77H872.14V759.76z M872.14,795.64h321.85v13.77H872.14
		V795.64z M872.14,831.52h335.45v13.77H872.14V831.52z"/>
	<path class="st3" d="M1120.83,150.32H825.2V86.04c0-13.25,10.74-24,24-24h247.63c13.26,0,24,10.75,24,24V150.32L1120.83,150.32z"/>
	<g>
		<path class="st3" d="M864.56,880.18h287.87v175.13H864.56V880.18z M1152.43,880.18H864.56l23.59-52.84h240.7L1152.43,880.18z"/>
		<path class="st5" d="M864.56,880.18h287.87v175.13H864.56V880.18z"/>
	</g>
	<path class="st6" d="M963.84,584.69c0,0-67.22,75.96-72.03,101.38s60.92,137.78,60.92,137.78l-30.54,21.29l60.95-5.83
		c0,0-25.65-93.28-40.23-125.04c19.61-13.29,66.84-65.34,66.84-65.34l43.81,102.07l18.89,116.64l50.63,14.9l-29.56-32.07
		c5.24-85.73,5.14-85.75,8.97-111.95c3.67-25.05-18.07-115.91-24.48-144.87C1071.59,564.7,982.8,572.77,963.84,584.69L963.84,584.69
		z"/>
	<path class="st7" d="M948.59,357.17c0.9,3.42,22.22,93.37,22.22,93.37s-19.38,9.49-27.42-1.37s-10.73-93.13-10.73-93.13
		L948.59,357.17L948.59,357.17z"/>
	<path class="st7" d="M945.12,339.36c0,0-11.72-10.12-15.36-2.53c-3.63,7.6,2.77,15.68,2.9,19.21s15.93,1.13,15.93,1.13
		S952.65,345.68,945.12,339.36z"/>
	<path class="st3" d="M952.48,354.29l-124.12-46.45c0,0-11.17,12.46-7.22,27.35l125.9,28.68
		C947.03,363.87,953.66,365.51,952.48,354.29L952.48,354.29z"/>
	<path class="st7" d="M1023.04,415.63l-10.83,28.9c0,0,1.32,13.7,16.32,13.98c14.99,0.28,17.49-8.39,17.49-8.39l-2.47-34.29
		C1043.53,415.84,1029.44,411.94,1023.04,415.63L1023.04,415.63z M928.37,438.06l-14.89-2.96l-11.42-62.74l14.19-15.43l-10.21-2.94
		c0,0,2.03-12.64,0.52-19.15c-1.51-6.51-5.79-8.16-16.45-3.96c-5.62,3.26-10.06,23.56-4.72,35.07c5.34,11.51,4.81,83.94,3.7,95.58
		c-1.11,11.64,31.3,19.18,31.3,19.18s15.51,2.14,20.58-14.1S928.37,438.06,928.37,438.06L928.37,438.06z"/>
	<path class="st3" d="M1025.03,439.54c-11.89-2.36-26.01-3.38-41.99-1.4c-28.55,1.13-54.67-0.08-54.67-0.08s-11.47,20.01-7.98,42.64
		c0,0,28.46,17.4,55.87,18.5c3.13,12.85-1.76,70.99-12.42,85.49c8.02,12.45,75.39,27.14,114.16,8.97
		c6.59-12.81-0.09-67.39-5.5-103.63C1068.76,464.94,1049.92,444.47,1025.03,439.54L1025.03,439.54z"/>
	<path class="st8" d="M1018.24,368.22c0,0-21.5,26.29-18.98,36.38c2.53,10.1,14.63,19.49,43.32,22.68
		c9.85-1.48,20.75-30.89,20.5-37.04C1061.45,349.96,1028.82,361.42,1018.24,368.22L1018.24,368.22z"/>
	<path class="st1" d="M1045.03,382.79c0,0-37.55-6.06-41.2-25.03c-3.66-18.97,26.99-28.71,40.58-22.78
		c5.79,2.53,8.71,6.96,12.12,11.94c3.83,5.6,8.57,7.5,14.68,10.74c1.97,1.04,3.94,2.09,5.7,3.47c9.47,7.41,6.11,16.21,4.51,26.14
		c-1.54,9.53-3.02,19.34-9.27,27.1c-10.88,13.49-29.11,11.4-28.6,1.5C1044.04,405.95,1055.14,385.13,1045.03,382.79L1045.03,382.79z
		 M952.73,823.85c0,0,18.34-0.35,25.32-2.36c3.13,10.8,5.08,17.82,5.08,17.82l-60.95,5.83L952.73,823.85L952.73,823.85z
		 M1069.17,846.28c8.78,5.08,24.34,4.2,24.34,4.2l29.56,32.07l-50.63-16.08L1069.17,846.28z"/>
	<path class="st8" d="M828.36,307.84l-34.17,2.19l26.95,25.16l7.22,1.65l-7.38-9.04l11.44,0.6l-8.43-9.03l12.95,0.3l-10.24-6.92
		l11.39-1.26L828.36,307.84z"/>
	<path class="st3" d="M811.01,308.95c0,0,0.52,9.76-4.84,12.27l-11.99-11.19L811.01,308.95L811.01,308.95z"/>
	<path class="st9" d="M947.46,352.41c0,0-11.67,3.21-24.32-1.31s0.67-18.86,9.52-17.86C941.51,334.24,953.26,342.17,947.46,352.41z"
		/>
</g>
</svg>
