<svg xmlns="http://www.w3.org/2000/svg" width="243.5" height="220.014" viewBox="0 0 243.5 220.014">
  <g id="added_to_favorites" data-name="added to favorites" transform="translate(-59 -126.966)">
    <path id="Path_10760" data-name="Path 10760" d="M613.523,360.772H497.68c-2.488,0-4.5-2.513-4.507-5.609V193.814c0-3.1,2.019-5.606,4.507-5.609H613.523c2.488,0,4.5,2.513,4.506,5.609V355.163C618.027,358.259,616.011,360.769,613.523,360.772ZM497.68,188.865c-2.2,0-3.974,2.217-3.976,4.949V355.163c0,2.732,1.781,4.946,3.976,4.949H613.523c2.2,0,3.974-2.217,3.976-4.949V193.814c0-2.732-1.781-4.946-3.976-4.949Z" transform="translate(-318.03 -16.292)" fill="#226bff" stroke="#0c4587" stroke-width="5" opacity="0.2"/>
    <path id="Path_10762" data-name="Path 10762" d="M706.526,395.021H660.141a2.613,2.613,0,0,1,0-5.226h46.385a2.613,2.613,0,0,1,0,5.226Z" transform="translate(-443.502 -196.95)" fill="#0c4587" opacity="0.2"/>
    <path id="Path_10763" data-name="Path 10763" d="M733.311,422.021h-73.17a2.613,2.613,0,1,1,0-5.226h73.17a2.613,2.613,0,1,1,0,5.226Z" transform="translate(-443.502 -215.13)" fill="#0c4587" opacity="0.2"/>
    <path id="Path_10765" data-name="Path 10765" d="M706.526,490.021H660.141a2.613,2.613,0,1,1,0-5.226h46.385a2.613,2.613,0,1,1,0,5.226Z" transform="translate(-443.502 -260.918)" fill="#0c4587" opacity="0.2"/>
    <path id="Path_10766" data-name="Path 10766" d="M733.311,517.021h-73.17a2.613,2.613,0,0,1,0-5.226h73.17a2.613,2.613,0,1,1,0,5.226Z" transform="translate(-443.502 -279.098)" fill="#0c4587" opacity="0.2"/>
    <path id="Path_10768" data-name="Path 10768" d="M706.526,585.021H660.141a2.613,2.613,0,0,1,0-5.227h46.385a2.613,2.613,0,0,1,0,5.227Z" transform="translate(-443.502 -324.885)" fill="#0c4587" opacity="0.2"/>
    <path id="Path_10795" data-name="Path 10795" d="M706.526,585.021H660.141a2.613,2.613,0,0,1,0-5.227h46.385a2.613,2.613,0,0,1,0,5.227Z" transform="translate(-443.502 -294.653)" fill="#0c4587" opacity="0.2"/>
    <path id="Path_10798" data-name="Path 10798" d="M706.526,585.021H660.141a2.613,2.613,0,0,1,0-5.227h46.385a2.613,2.613,0,0,1,0,5.227Z" transform="translate(-443.502 -265.283)" fill="#0c4587" opacity="0.2"/>
    <path id="Path_10769" data-name="Path 10769" d="M733.311,612.021h-73.17a2.613,2.613,0,1,1,0-5.226h73.17a2.613,2.613,0,1,1,0,5.226Z" transform="translate(-443.502 -343.066)" fill="#0c4587" opacity="0.2"/>
    <path id="Path_10792" data-name="Path 10792" d="M733.311,612.021h-73.17a2.613,2.613,0,1,1,0-5.226h73.17a2.613,2.613,0,1,1,0,5.226Z" transform="translate(-443.502 -312.833)" fill="#0c4587" opacity="0.2"/>
    <path id="Path_10796" data-name="Path 10796" d="M733.311,612.021h-73.17a2.613,2.613,0,1,1,0-5.226h73.17a2.613,2.613,0,1,1,0,5.226Z" transform="translate(-443.502 -283.464)" fill="#0c4587" opacity="0.2"/>
    <path id="Path_10770" data-name="Path 10770" d="M576.968,596.277H562.922c-1.713,0-3.1-1.664-3.1-3.714V582.009c0-2.05,1.39-3.711,3.1-3.714h14.046c1.713,0,3.1,1.664,3.1,3.714v10.555C580.069,594.613,578.681,596.275,576.968,596.277Z" transform="translate(-374.255 -387.797)" fill="#0c4587" opacity="0.2"/>
    <path id="Path_10786" data-name="Path 10786" d="M576.968,596.277H562.922c-1.713,0-3.1-1.664-3.1-3.714V582.009c0-2.05,1.39-3.711,3.1-3.714h14.046c1.713,0,3.1,1.664,3.1,3.714v10.555C580.069,594.613,578.681,596.275,576.968,596.277Z" transform="translate(-375.119 -355.836)" fill="#0c4587" opacity="0.2"/>
    <path id="Path_10788" data-name="Path 10788" d="M576.968,596.277H562.922c-1.713,0-3.1-1.664-3.1-3.714V582.009c0-2.05,1.39-3.711,3.1-3.714h14.046c1.713,0,3.1,1.664,3.1,3.714v10.555C580.069,594.613,578.681,596.275,576.968,596.277Z" transform="translate(-374.255 -325.603)" fill="#0c4587" opacity="0.2"/>
    <path id="Path_10793" data-name="Path 10793" d="M576.968,596.277H562.922c-1.713,0-3.1-1.664-3.1-3.714V582.009c0-2.05,1.39-3.711,3.1-3.714h14.046c1.713,0,3.1,1.664,3.1,3.714v10.555C580.069,594.613,578.681,596.275,576.968,596.277Z" transform="translate(-374.255 -295.37)" fill="#0c4587" opacity="0.2"/>
    <path id="Path_10797" data-name="Path 10797" d="M576.968,596.277H562.922c-1.713,0-3.1-1.664-3.1-3.714V582.009c0-2.05,1.39-3.711,3.1-3.714h14.046c1.713,0,3.1,1.664,3.1,3.714v10.555C580.069,594.613,578.681,596.275,576.968,596.277Z" transform="translate(-374.255 -266.001)" fill="#0c4587" opacity="0.2"/>
    <path id="Path_10771" data-name="Path 10771" d="M580.067,406.186l-.756-.682c-2.686-2.466-4.459-4.067-4.459-6.06a2.836,2.836,0,0,1,2.869-2.886,3.05,3.05,0,0,0,4.694,0,2.836,2.836,0,0,1,2.869,2.886c0,1.994-1.773,3.594-4.459,6.06Z" transform="translate(-384.377 -201.503)" fill="#0c4587"/>
    <path id="Path_10787" data-name="Path 10787" d="M580.067,406.186l-.756-.682c-2.686-2.466-4.459-4.067-4.459-6.06a2.836,2.836,0,0,1,2.869-2.886,3.05,3.05,0,0,0,4.694,0,2.836,2.836,0,0,1,2.869,2.886c0,1.994-1.773,3.594-4.459,6.06Z" transform="translate(-385.241 -169.542)" fill="#0c4587"/>
    <path id="Path_10789" data-name="Path 10789" d="M580.067,406.186l-.756-.682c-2.686-2.466-4.459-4.067-4.459-6.06a2.836,2.836,0,0,1,2.869-2.886,3.05,3.05,0,0,0,4.694,0,2.836,2.836,0,0,1,2.869,2.886c0,1.994-1.773,3.594-4.459,6.06Z" transform="translate(-384.377 -139.309)" fill="#0c4587"/>
    <path id="Path_10794" data-name="Path 10794" d="M580.067,406.186l-.756-.682c-2.686-2.466-4.459-4.067-4.459-6.06a2.836,2.836,0,0,1,2.869-2.886,3.05,3.05,0,0,0,4.694,0,2.836,2.836,0,0,1,2.869,2.886c0,1.994-1.773,3.594-4.459,6.06Z" transform="translate(-384.377 -109.076)" fill="#0c4587"/>
    <path id="Path_10799" data-name="Path 10799" d="M580.067,406.186l-.756-.682c-2.686-2.466-4.459-4.067-4.459-6.06a2.836,2.836,0,0,1,2.869-2.886,3.05,3.05,0,0,0,4.694,0,2.836,2.836,0,0,1,2.869,2.886c0,1.994-1.773,3.594-4.459,6.06Z" transform="translate(-384.377 -79.707)" fill="#0c4587"/>
    <g id="Group_6367" data-name="Group 6367" transform="translate(59 126.966)">
      <path id="Path_10790" data-name="Path 10790" d="M591.227,611.229H565.5c-3.137,0-5.68-3.047-5.683-6.8V585.1c0-3.755,2.546-6.8,5.683-6.8h25.725c3.137,0,5.68,3.047,5.683,6.8v19.331c0,3.755-2.546,6.8-5.684,6.8Z" transform="translate(-486.222 -510.784)" fill="#0c4587" opacity="0.2"/>
      <path id="Path_10791" data-name="Path 10791" d="M584.4,414.192l-1.385-1.25c-4.919-4.516-8.167-7.448-8.167-11.1a5.195,5.195,0,0,1,5.254-5.286,5.651,5.651,0,0,1,4.3,2.018,5.651,5.651,0,0,1,4.3-2.018,5.195,5.195,0,0,1,5.254,5.286c0,3.652-3.248,6.583-8.167,11.1Z" transform="translate(-492.261 -320.702)" fill="#0c4587"/>
      <path id="Path_10775" data-name="Path 10775" d="M122.865,493.3l6.654-1.583L126.58,465.3l-9.82,2.336Z" transform="translate(-46.907 -281.603)" fill="#ffb8b8"/>
      <path id="Path_10776" data-name="Path 10776" d="M0,0H21.5V8.305H8.305A8.3,8.3,0,0,1,0,0H0Z" transform="matrix(-0.973, 0.231, -0.231, -0.973, 96.913, 213.245)" fill="#2f2e41"/>
      <path id="Path_10777" data-name="Path 10777" d="M342.171,635.611,327.72,586.083l18.059-4.479,10.594,52.453a2.692,2.692,0,0,1-2.559,3.224l-8.978.267h-.081A2.693,2.693,0,0,1,342.171,635.611Z" transform="translate(-272.744 -440.922)" fill="#2f2e41"/>
      <path id="Path_10778" data-name="Path 10778" d="M58.088,494.668h6.839l3.253-26.381H58.086Z" transform="translate(-23.336 -282.802)" fill="#ffb8b8"/>
      <path id="Path_10779" data-name="Path 10779" d="M0,0H21.5V8.305H8.305A8.3,8.3,0,0,1,0,0H0Z" transform="translate(54.784 218.215) rotate(179.995)" fill="#2f2e41"/>
      <path id="Path_10780" data-name="Path 10780" d="M287.185,647.136a2.642,2.642,0,0,1-.8-1.872l-6.231-49.407a2.7,2.7,0,0,1,2.673-2.706l13.909-.1h.02a2.7,2.7,0,0,1,2.691,2.651l.739,48.671a2.69,2.69,0,0,1-2.63,2.731l-8.443.8h-.039A2.673,2.673,0,0,1,287.185,647.136Z" transform="translate(-253.633 -445.52)" fill="#2f2e41"/>
      <circle id="Ellipse_490" data-name="Ellipse 490" cx="14.694" cy="14.694" r="14.694" transform="translate(21.839 8.699)" fill="#ffb8b8"/>
      <path id="Path_10781" data-name="Path 10781" d="M259.034,522.556c-9.56-7.47-9.459-16.185-6.2-27.825.919-3.279,1.911-6.6,2.961-10.121,4.879-16.347,10.408-34.876,8.309-50.175l.3-.041-.3.041a15.071,15.071,0,0,1,26.88-11.484c2.926,3.638,4.322,16.432,4.736,18.265,1.9,8.416,3.047,13.5,3.87,21.6.973,9.58,12.625,38.223,16.338,43.027a11.366,11.366,0,0,1,2.2,9.053,10.651,10.651,0,0,1-5.058,7.26,60.812,60.812,0,0,1-19.567,7.7,47.971,47.971,0,0,1-9.11.877C274.91,530.732,265.845,527.878,259.034,522.556Z" transform="translate(-241.86 -374.8)" fill="#0c4587"/>
      <path id="Path_10782" data-name="Path 10782" d="M349.85,495.4a5.61,5.61,0,0,0-8.4-1.832l-11.134-6.354-5.511,5.825,15.85,8.751a5.64,5.64,0,0,0,9.2-6.39Z" transform="translate(-271.571 -403.001)" fill="#ffb8b8"/>
      <path id="Path_10783" data-name="Path 10783" d="M317.886,476.8l-19.956-6.269a13.737,13.737,0,0,1-9.578-12.461l-.859-19.39a8.119,8.119,0,1,1,16.227-.109l-.549,17.84,21.239,8.662a2.692,2.692,0,0,1,1.183,4.044l-4.7,6.666a2.685,2.685,0,0,1-3.007,1.017Z" transform="translate(-256.58 -380.098)" fill="#2f2e41"/>
      <path id="Path_10784" data-name="Path 10784" d="M257.184,388.129a72.126,72.126,0,0,0,.623-12.237c-.006-1.1-.013-2.191-.006-3.285.031-5.081.347-10.467,2.424-15.425,2.261-5.4,6.448-9.292,11.2-10.423,5.358-1.276,11.171,1.545,12.922,6.189a8.978,8.978,0,1,1,5.473,16.733l-.224.02-1.751-4.55c-.01.08-.019.16-.029.242a3.281,3.281,0,0,1-1.006,2.482h0a6.212,6.212,0,0,0-1.83,5.364,20.228,20.228,0,0,0,.982,3.519A19.311,19.311,0,0,1,287,380.633a6.619,6.619,0,0,1-1.24,4.794,3.7,3.7,0,0,1-2.536,1.455l-19.735,2.041-.882-6.592L257,389.245Z" transform="translate(-244.332 -346.451)" fill="#2f2e41"/>
      <path id="Path_10785" data-name="Path 10785" d="M351.291,710.991H236.425a.6.6,0,1,1,0-1.2H351.291a.6.6,0,0,1,0,1.2Z" transform="translate(-235.827 -492.421)" fill="#ccc"/>
    </g>
  </g>
</svg>
