<svg xmlns="http://www.w3.org/2000/svg" width="32" height="32" viewBox="0 0 32 32">
  <g id="Group_5" data-name="Group 5" transform="translate(-7278 -3499)">
    <path id="Path_12012" data-name="Path 12012" d="M16,0A16,16,0,1,1,0,16,16,16,0,0,1,16,0Z" transform="translate(7278 3499)" fill="#0c4587"/>
    <g id="Group_7698" data-name="Group 7698" transform="translate(43.13 32.22)">
      <path id="Path_11959" data-name="Path 11959" d="M303.669,407.5a.544.544,0,0,1,.249.525q-.007,11.081,0,22.162c0,.42-.11.523-.562.523h-2.417c-.46,0-.569-.1-.572-.515V430h-5.529c0,.11,0,.22,0,.331a.367.367,0,0,1-.4.376q-1.382.008-2.763,0a.364.364,0,0,1-.388-.361c0-.053,0-.106,0-.158q0-11.081,0-22.162a.543.543,0,0,1,.25-.525Zm-11.586,21.745h11.023v-14.48H292.083Zm11.033-21H292.092v5.776h11.024Z" transform="translate(6953.72 3063.5)" fill="#fff" stroke="#fff" stroke-width="0.1"/>
      <g id="Group_7697" data-name="Group 7697" transform="translate(7247.319 3473.32)">
        <path id="Path_11960" data-name="Path 11960" d="M292.969,423.41c0-.619,0-1.239,0-1.857,0-.362.187-.574.486-.574s.486.212.487.573q0,1.873,0,3.746c0,.355-.2.567-.5.558s-.47-.215-.472-.557C292.967,424.669,292.969,424.039,292.969,423.41Z" transform="translate(-292.968 -414.253)" fill="#fff"/>
        <path id="Path_11961" data-name="Path 11961" d="M292.969,411.215c0-.41,0-.82,0-1.23,0-.237.193-.379.493-.376s.479.142.48.383q0,1.23,0,2.461c0,.242-.179.382-.478.385s-.494-.141-.5-.394C292.968,412.034,292.969,411.625,292.969,411.215Z" transform="translate(-292.968 -409.609)" fill="#fff"/>
      </g>
    </g>
  </g>
</svg>
