<svg xmlns="http://www.w3.org/2000/svg" width="32" height="32" viewBox="0 0 32 32">
  <g id="Group_3" data-name="Group 3" transform="translate(-7201 -3502)">
    <circle id="Ellipse_66" data-name="Ellipse 66" cx="16" cy="16" r="16" transform="translate(7201 3502)" fill="#0c4587"/>
    <path id="_16847478761582094055_2_" data-name="16847478761582094055 (2)" d="M15.071,20.743l-1.638-4.3.489,4.431c-.858.084-1.8.137-2.811.137-.973,0-1.878-.048-2.7-.124l.49-4.444L7.251,20.758a23.074,23.074,0,0,1-3.971-.866l5.049-9.843h5.73L19,19.867a23.116,23.116,0,0,1-3.931.875M7.107,5.048l-2.232.733L3.938,4.291l3.74-3.162c.287.788,1.28,2.981,3.474,2.981,2.323,0,3.206-2.381,3.4-3.025l3.809,3.207-.937,1.488-2.241-.735L14.12,9.135H8.259L7.107,5.048Zm6.311-3.571A2.638,2.638,0,0,1,11.151,3.2,2.8,2.8,0,0,1,8.826,1.462a6.947,6.947,0,0,0,4.592.016m1.495,8.237.912-3.5,2,.654,1.741-2.765L14.668-.013a7.182,7.182,0,0,1-7.055,0L2.741,4.107,4.482,6.871l2-.657.987,3.5L2,20.384l.463.188a24.818,24.818,0,0,0,8.647,1.354,24.917,24.917,0,0,0,8.7-1.38l.46-.185L14.913,9.714Z" transform="translate(7205.696 3506.51)" fill="#fff" fill-rule="evenodd"/>
  </g>
</svg>
