<svg xmlns="http://www.w3.org/2000/svg" width="194.523" height="138.565" viewBox="0 0 194.523 138.565">
  <g id="fast_delivery" data-name="fast delivery" transform="translate(-2642.021 -3796.19)">
    <g id="Group_6593" data-name="Group 6593" transform="translate(2642.021 3870.712)">
      <path id="Path_11189" data-name="Path 11189" d="M2644.08,4233.5a140.762,140.762,0,0,1-1.547-15.186A133.287,133.287,0,0,0,2644.08,4233.5Z" transform="translate(-2642.392 -4212.346)" fill="#3f4d50"/>
      <path id="Path_11190" data-name="Path 11190" d="M2642.236,4209.9c-.029-.715-.056-1.43-.073-2.143C2642.18,4208.475,2642.208,4209.188,2642.236,4209.9Z" transform="translate(-2642.124 -4204.68)" fill="#3f4d50"/>
      <path id="Path_11191" data-name="Path 11191" d="M2642.458,4216.333c-.011-.248-.019-.5-.028-.746C2642.44,4215.835,2642.447,4216.083,2642.458,4216.333Z" transform="translate(-2642.318 -4210.366)" fill="#2f383a"/>
      <path id="Path_11192" data-name="Path 11192" d="M2642.06,4199.591c-.024-1.023-.039-2.049-.039-3.078Q2642.021,4198.048,2642.06,4199.591Z" transform="translate(-2642.021 -4196.513)" fill="#2f383a"/>
    </g>
    <g id="Group_6599" data-name="Group 6599" transform="translate(2644.865 3820.211)">
      <g id="Group_6598" data-name="Group 6598" transform="translate(0)">
        <path id="Path_11194" data-name="Path 11194" d="M2860.793,4339.085c0,5-3.681,9.058-8.222,9.058s-8.222-4.055-8.222-9.058,3.682-9.058,8.222-9.058S2860.793,4334.083,2860.793,4339.085Z" transform="translate(-2830.732 -4242.982)" fill="#fdfcea"/>
        <path id="Path_11195" data-name="Path 11195" d="M3329.487,4336.31c0,5.156-3.743,9.337-8.362,9.337s-8.361-4.182-8.361-9.337,3.744-9.338,8.361-9.338S3329.487,4331.153,3329.487,4336.31Z" transform="translate(-3170.936 -4240.763)" fill="#fdfcea"/>
        <path id="Path_11196" data-name="Path 11196" d="M3305.635,4086.658v34.282l28.708-1.952.279-3.9-7.8-25.363Z" transform="translate(-3165.758 -4066.226)" fill="rgba(255,255,255,0.85)"/>
        <rect id="Rectangle_4211" data-name="Rectangle 4211" width="15.125" height="8.968" transform="translate(172.154 74.972)" fill="rgba(67,67,67,0.85)"/>
        <g id="Group_6597" data-name="Group 6597">
          <g id="Group_6596" data-name="Group 6596">
            <path id="Path_11197" data-name="Path 11197" d="M2915.625,4012.009H2800.982a4.441,4.441,0,0,0-4.436,4.436v65.461a4.443,4.443,0,0,0,4.436,4.434h114.642a4.436,4.436,0,0,0,4.439-4.434v-65.461A4.434,4.434,0,0,0,2915.625,4012.009Z" transform="translate(-2796.013 -4012.009)" fill="#0c4587"/>
            <g id="Group_6595" data-name="Group 6595" transform="translate(0 8.868)">
              <g id="Group_6594" data-name="Group 6594">
                <path id="Path_11198" data-name="Path 11198" d="M3289.929,4294.167a18.657,18.657,0,1,0,18.657,18.656A18.657,18.657,0,0,0,3289.929,4294.167Zm3.764,22.754a5.515,5.515,0,1,1,1.806-4.1A5.538,5.538,0,0,1,3293.693,4316.921Z" transform="translate(-3140.801 -4225.806)" fill="rgba(67,67,67,0.85)"/>
                <path id="Path_11199" data-name="Path 11199" d="M2827.091,4294.168H2827a18.654,18.654,0,1,0,.089,0Zm3.721,22.753a5.569,5.569,0,0,1-9.334-4.1,5.661,5.661,0,0,1,.1-1.011,5.567,5.567,0,1,1,9.238,5.108Z" transform="translate(-2804.614 -4225.807)" fill="rgba(67,67,67,0.85)"/>
                <path id="Path_11200" data-name="Path 11200" d="M2810.328,4294.168H2794.6v15.481h2.876c.011-.065.018-.131.03-.2A19.753,19.753,0,0,1,2810.328,4294.168Z" transform="translate(-2794.598 -4225.807)" fill="#0c4587"/>
                <path id="Path_11201" data-name="Path 11201" d="M3059.672,4118.564c-.077-8.517.159-16.954-.156-25.471-2.717-1.243-5.459-2.49-8.2-3.765-1.908-.889-3.814-1.789-5.707-2.719a6.054,6.054,0,0,1-.713-.335c-3.871-2.078-3.747-7.3-5.224-10.992-1.53-6.264-4.054-12.354-5.586-18.607a38.048,38.048,0,0,1-1.211-12.174c-11.136-.158-22.195-.08-33.253,0h-.108v.02l-.057-.049v13.705l.055.048c-.038,18.175-.186,36.37-.005,54.547h-98.476a19.751,19.751,0,0,1,12.826,15.284c.011.065.019.131.03.2h85.86c2.736-8.672,9.532-17.033,19.3-17.579,10.781-1.562,20.781,6.719,23.124,17.032,7.111.079,14.22.079,21.329.079,0-2.971.079-6.018.079-8.986C3062.25,4118.718,3061,4118.641,3059.672,4118.564Zm-45.469-33.439c-.077-8.281-.234-16.563.08-24.843,5.545,0,11.172-.08,16.718.156,2.186,8.2,4.844,16.328,7.031,24.609C3030.063,4085.2,3022.172,4085.125,3014.2,4085.125Zm44.573,34.06c-4.828.167-9.739.167-14.565.085-.084-2.914-.084-5.744,0-8.656q7.24-.127,14.48,0C3058.857,4113.526,3058.857,4116.356,3058.775,4119.185Z" transform="translate(-2871.901 -4044.409)" fill="#0c4587"/>
              </g>
            </g>
          </g>
        </g>
      </g>
    </g>
    <path id="Path_11202" data-name="Path 11202" d="M2942.924,3974.478a38.03,38.03,0,1,1-38.03-38.03A38.029,38.029,0,0,1,2942.924,3974.478Z" transform="translate(-188.054 -140.258)" fill="rgba(67,67,67,0.85)"/>
    <g id="Group_6600" data-name="Group 6600" transform="translate(2688.171 3805.55)">
      <path id="Path_11203" data-name="Path 11203" d="M2902.361,4000.612a28.669,28.669,0,0,0,28.669,28.669v-57.339A28.67,28.67,0,0,0,2902.361,4000.612Z" transform="translate(-2902.361 -3971.942)" fill="#f9f6ec"/>
      <path id="Path_11204" data-name="Path 11204" d="M3034.407,3971.942v57.339a28.669,28.669,0,1,0,0-57.339Z" transform="translate(-3005.738 -3971.942)" fill="#dfebf8" opacity="0.807"/>
    </g>
    <g id="Group_6601" data-name="Group 6601" transform="translate(2699.877 3808.478)">
      <path id="Path_11205" data-name="Path 11205" d="M3023.442,4087.859a5.167,5.167,0,1,1-5.167-5.166A5.167,5.167,0,0,1,3023.442,4087.859Z" transform="translate(-2998.482 -4060.331)" fill="#3f4d50"/>
      <path id="Path_11206" data-name="Path 11206" d="M3030.625,4010.614c0,.69-.849,1.249-1.895,1.249h0c-1.046,0-1.894-.559-1.894-1.249v-18.857c0-.69.848-1.249,1.894-1.249h0c1.046,0,1.895.559,1.895,1.249Z" transform="translate(-3008.879 -3990.507)" fill="#3f4d50"/>
      <path id="Path_11207" data-name="Path 11207" d="M2956,4122.819a2.218,2.218,0,0,1-2.933-1.1h0a2.218,2.218,0,0,1,.9-3l10.446-5.164a2.221,2.221,0,0,1,2.935,1.1h0a2.219,2.219,0,0,1-.906,3Z" transform="translate(-2952.813 -4083.544)" fill="#3f4d50"/>
    </g>
  </g>
</svg>
