<svg xmlns="http://www.w3.org/2000/svg" width="208.146" height="114.255" viewBox="0 0 208.146 114.255">
  <g id="Group_7702" data-name="Group 7702" transform="translate(0)">
    <path id="Path_11207" data-name="Path 11207" d="M501.88,385.928a3.651,3.651,0,0,0-.452-2.732,2.833,2.833,0,0,0-2.135-1.361l-16.462-23.37-4.073,4.311,17.39,22.324a3.194,3.194,0,0,0,2.542,3.305A2.95,2.95,0,0,0,501.88,385.928Z" transform="translate(-408.124 -328.961)" fill="#ffb8b8"/>
    <path id="Path_11208" data-name="Path 11208" d="M475.681,350.205l-5.2,4.524a1.18,1.18,0,0,1-1.053.273,1.325,1.325,0,0,1-.87-.728l-3.169-6.487a4.47,4.47,0,0,1,.685-5.734,3.327,3.327,0,0,1,5.05.777l4.675,5.147a1.586,1.586,0,0,1,.392,1.143,1.541,1.541,0,0,1-.506,1.084Z" transform="translate(-398.103 -316.989)" fill="#0c4587"/>
    <ellipse id="Ellipse_566" data-name="Ellipse 566" cx="6.616" cy="7.512" rx="6.616" ry="7.512" transform="translate(62.093 4.084)" fill="#ffb8b8"/>
    <path id="Path_11209" data-name="Path 11209" d="M294.572,340.578h3.3l-.315-7.018h-4.874Z" transform="translate(-211.193 -231.54)" fill="#ffb8b8"/>
    <path id="Path_11210" data-name="Path 11210" d="M522.468,614.5h6.5a4.452,4.452,0,0,1,4.145,4.706v.153H522.468Z" transform="translate(-439.819 -506.688)" fill="#2f2e41"/>
    <path id="Path_11211" data-name="Path 11211" d="M168.975,324.163l2.809,1.971,2.981-6.158-3.4-2.415Z" transform="translate(-121.922 -220.433)" fill="#ffb8b8"/>
    <path id="Path_11212" data-name="Path 11212" d="M388.226,596.1l5.533,3.881h0a5.089,5.089,0,0,1,1.348,6.477l-.071.13-9.059-6.354Z" transform="translate(-341.374 -493.914)" fill="#2f2e41"/>
    <path id="Path_11213" data-name="Path 11213" d="M430.687,475.773a1.225,1.225,0,0,1-1.131-.887l-11.945-32.429a.418.418,0,0,0-.33-.3.387.387,0,0,0-.383.2l-16.41,29.353a1.128,1.128,0,0,1-1.519.48L396.723,471a1.466,1.466,0,0,1-.593-1.811l13.444-34.029c-.294-.811-3.157-9.138,1.243-13.251l.031-.022,11.93-6.042.3,10.391,11.891,46.846a1.542,1.542,0,0,1-.111,1.061,1.246,1.246,0,0,1-.746.651l-3.115.931a1.083,1.083,0,0,1-.311.046Z" transform="translate(-348.337 -368.792)" fill="#2f2e41"/>
    <path id="Path_11214" data-name="Path 11214" d="M456.911,343.181c-.454-2.07-1.1-4.157-1.961-5.12a12.014,12.014,0,0,1-.893-1.117,6.791,6.791,0,0,0-2.142-1.993.854.854,0,0,0,.482-.668c0-.676-1.327-1.223-2.963-1.223s-2.963.548-2.963,1.223a.631.631,0,0,0,.176.412,7.128,7.128,0,0,0-3.9,5.969c-.383,4.654-.494,10.6.847,14.365a15.611,15.611,0,0,1,.252,9.763,1.337,1.337,0,0,0,.284,1.278.981.981,0,0,0,1.141.242l11.838-5.416a1.233,1.233,0,0,0,.675-1.135v-8.227a39.01,39.01,0,0,0-.874-8.354Z" transform="translate(-382.084 -311.326)" fill="#0c4587"/>
    <path id="Path_11215" data-name="Path 11215" d="M402.2,400.662a2.985,2.985,0,0,0,1.927-1.716,3.69,3.69,0,0,0,.079-2.779l9.262-27.733-4.7-1.377L400.2,394.506a3.5,3.5,0,0,0-1.41,4.085,2.86,2.86,0,0,0,3.407,2.071Z" transform="translate(-350.446 -334.925)" fill="#ffb8b8"/>
    <path id="Path_11216" data-name="Path 11216" d="M435.488,357.367l-5.935-3.154a1.438,1.438,0,0,1-.7-.935,1.643,1.643,0,0,1,.167-1.212l3.607-6.185a3.431,3.431,0,0,1,4.8-1.955,4.346,4.346,0,0,1,1.722,5.446l-1.865,7.084a1.43,1.43,0,0,1-.713.922,1.158,1.158,0,0,1-1.08-.01Z" transform="translate(-372.259 -318.596)" fill="#0c4587"/>
    <path id="Path_11217" data-name="Path 11217" d="M440.951,273.437a1.354,1.354,0,0,0,.868-.178c.488-.363.44-1.187.275-1.822a8.947,8.947,0,0,0-5.751-6.355,2.225,2.225,0,0,0-2.672.649,6.232,6.232,0,0,0-8.8,1.228,11.134,11.134,0,0,0-2.066,5c-.565,3.145-2.986,9.632-1.645,12.458.892,1.88,5,.415,6.737,1.234a5.153,5.153,0,0,0,5.392-.494,5.374,5.374,0,0,0,1.692-5.632,18.26,18.26,0,0,0-1.049-2.169,3.877,3.877,0,0,1-.456-2.368C433.716,273.729,438.937,273.39,440.951,273.437Z" transform="translate(-366.345 -263.69)" fill="#2f2e41"/>
    <path id="Path_11218" data-name="Path 11218" d="M354.392,629.866a.327.327,0,0,1-.079.217.253.253,0,0,1-.191.089H226.176a.308.308,0,0,1,0-.612H354.123a.253.253,0,0,1,.191.089A.328.328,0,0,1,354.392,629.866Z" transform="translate(-225.907 -517.141)" fill="#fff"/>
    <ellipse id="Ellipse_567" data-name="Ellipse 567" cx="9.428" cy="1.835" rx="9.428" ry="1.835" transform="translate(143.422 110.584)" fill="#fff"/>
    <path id="Path_11219" data-name="Path 11219" d="M874.457,630.612H838.362a.308.308,0,0,1,0-.612h36.094a.308.308,0,0,1,0,.612Z" transform="translate(-666.581 -517.446)" fill="#fff"/>
    <path id="Path_11220" data-name="Path 11220" d="M734.128,336.2c0-6.864,4.222-12.8,10.134-14.242-5.12-1.248-10.393,1.163-13.323,6.09a16.223,16.223,0,0,0,0,16.308c2.931,4.926,8.205,7.336,13.324,6.087-5.912-1.443-10.135-7.377-10.136-14.243Z" transform="translate(-588.482 -303.397)" fill="#0c4587"/>
    <path id="Path_11221" data-name="Path 11221" d="M677.912,295.366c0-16.443,10.8-30.308,25.173-32.319a26.491,26.491,0,0,0-22.5,7.934,34.645,34.645,0,0,0-9.68,24.385c0,14.606,18.918,55.8,26.023,70.75a2.857,2.857,0,0,0,5.308,0c.266-.56.55-1.16.848-1.791C695.438,348.111,677.912,309.426,677.912,295.366Z" transform="translate(-546.362 -262.559)" fill="#0c4587"/>
    <path id="Path_11222" data-name="Path 11222" d="M698.946,367.723a3.209,3.209,0,0,1-2.891-1.961C688.221,349.274,670,309.357,670,294.868,670,276.715,682.96,262,698.946,262s28.946,14.715,28.946,32.868c0,9.057-7.118,28.045-14.461,45.254-4.258,9.98-8.657,19.458-11.595,25.641A3.208,3.208,0,0,1,698.946,367.723Zm0-105.112c-15.682.02-28.39,14.45-28.407,32.256,0,14.351,18.176,54.156,25.99,70.6a2.6,2.6,0,0,0,4.834,0c7.815-16.448,25.991-56.253,25.991-70.6-.018-17.806-12.726-32.236-28.407-32.256Z" transform="translate(-543.766 -262)" fill="#0c4587"/>
    <path id="Path_11223" data-name="Path 11223" d="M741.932,350.579c-7.234,0-13.1-6.659-13.1-14.873s5.864-14.873,13.1-14.873,13.1,6.659,13.1,14.873-5.868,14.864-13.1,14.873Zm0-29.134c-6.937,0-12.56,6.385-12.56,14.261s5.623,14.261,12.56,14.261,12.56-6.385,12.56-14.261-5.626-14.252-12.56-14.261Z" transform="translate(-588.255 -302.839)" fill="#3f3d56"/>
  </g>
</svg>
