<svg xmlns="http://www.w3.org/2000/svg" xmlns:xlink="http://www.w3.org/1999/xlink" width="219.117" height="167.883" viewBox="0 0 219.117 167.883">
  <defs>
    <linearGradient id="linear-gradient" x1="0.5" y1="1" x2="0.5" gradientUnits="objectBoundingBox">
      <stop offset="0" stop-color="gray" stop-opacity="0.251"/>
      <stop offset="0.54" stop-color="gray" stop-opacity="0.122"/>
      <stop offset="1" stop-color="gray" stop-opacity="0.102"/>
    </linearGradient>
    <linearGradient id="linear-gradient-2" x1="0.5" x2="0.5" y2="0" xlink:href="#linear-gradient"/>
  </defs>
  <g id="Group_7701" data-name="Group 7701" transform="translate(0.007 0.029)">
    <path id="Path_11337" data-name="Path 11337" d="M77.022,153.1a9.723,9.723,0,0,0-6.626,6.713c-.867,3.82,1.13,7.681,1.415,11.6.932,12.858-16,21.93-13.582,34.565.96,5.015,4.837,8.712,8.66,11.754C73.007,222.6,79.8,226.906,87.3,228.123c11.409,1.846,23.331-3.584,34.422-.152,8.945,2.767,15.789,10.881,24.673,13.875,6.764,2.28,14.047,1.381,21.079.459,3.782-.5,7.756-1.069,10.814-3.525,5.694-4.572,6.038-13.6,9.846-20.07,5.876-9.988,18.76-11.938,29.565-10s21.289,6.725,32.235,6.321a13.809,13.809,0,0,0,6.776-1.668c2.48-1.508,4.158-4.162,5.64-6.79A116.459,116.459,0,0,0,277.1,151.984c.063-3.313-.044-6.77-1.486-9.7-1.819-3.7-5.458-5.91-9.1-7.4-8.708-3.562-18.328-4.138-26.864-8.18-8.233-3.9-14.9-10.729-22.071-16.575a113.56,113.56,0,0,0-48.416-23.3c-4.118-.859-8.391-1.474-12.482-.481-4.714,1.144-8.777,4.32-12.429,7.736-9.721,9.1-17.509,20.311-26.464,30.276a154.657,154.657,0,0,1-20.111,18.716c-3.321,2.581-6.838,5.646-10.531,7.554C83.769,152.37,80.594,151.931,77.022,153.1Z" transform="translate(-58 -75.531)" fill="#0c4587" opacity="0.1"/>
    <path id="Path_11338" data-name="Path 11338" d="M373.984,118.866c-4.447-.93-12.866-2.674-22.395-4.607-14.107-2.86-17.788,7.966-17.788,7.966,0,5.514-18.395,28.388-18.395,28.388l-5.486-12.29a5.785,5.785,0,0,0,2.523-.17c3.141-.938,4.694-4.481,5.2-7.718a25.36,25.36,0,0,0-1.975-14.352c-.936-2.05-2.149-3.978-2.9-6.1-3.172-8.906,2.323-19.215-1-28.087-1.373-3.661-4.109-6.63-6-10.05-4.245-7.691-4.063-17.313-8.692-24.784a22.433,22.433,0,0,0-21.1-10.23c-4.833.546-8.288,2.272-12.791.2-3.8-1.742-8.366-3.691-12.282-.946-3.339,2.341-3.907,6.952-5.731,10.6-3.2,6.4-10.8,10.58-11.692,17.681-.22,1.751,0,3.566-.511,5.256-1.459,4.777-7.815,6.187-10.418,10.451-2.549,4.172.026,10.481,4.768,11.684,2.021.513,4.2.2,6.216.746,1.894.505,3.731,2.276,3.4,4.126l-4.2.764-12.086,1.342-1.87.117v.091l-.1.012.1.081V99.7c-3.4,1.332-8.914,4.888-11,14.214a14.117,14.117,0,0,1-2.816,5.811c-3.1,3.82-8.241,11.281-7.954,18.443.4,10.212.4,14.3,13.9,11.437a47.02,47.02,0,0,0,10.76-4.008,41.28,41.28,0,0,0,1.916,11.564c3.681,10.008-4.089,45.341-4.089,45.341h75.039s-6.339-20.832-12.472-31.453c-4.344-7.524-2.739-12.074-1.433-14.089a18.913,18.913,0,0,0,2.5-5.583c.222-.871.439-1.86.625-2.955a15.769,15.769,0,0,0,4.522,2.751,8.161,8.161,0,0,0,4.863.281c3.2,3.909,6.77,8.2,10.592,12.652,14.722,17.155,18.811,6.535,18.811,6.535s14.926-28.388,16.98-36.967,6.543-8.17,6.543-8.17c12.306,3.111,23.213-1.4,28.281-4.122a1.348,1.348,0,0,0-.376-2.515ZM222.154,124a19.42,19.42,0,0,0,2.628-3.841h.038a29.168,29.168,0,0,1-1.437,4.18c-1.146.22-1.837.336-1.837.336Z" transform="translate(-168.911 -34.75)" fill="url(#linear-gradient)"/>
    <path id="Path_11339" data-name="Path 11339" d="M346.441,45.122c-3.3,2.316-3.863,6.873-5.66,10.487-3.165,6.335-10.675,10.473-11.558,17.5-.218,1.732,0,3.529-.505,5.2-1.441,4.728-7.726,6.125-10.309,10.343-2.521,4.128.026,10.372,4.714,11.562,2,.509,4.148.2,6.145.738s3.932,2.492,3.271,4.447c-.491,1.455-2.224,2.284-2.539,3.788-.275,1.294.606,2.527,1.459,3.533a14.657,14.657,0,0,0,3.689,3.362c3.986,2.3,8.959.918,13.555.766a24.493,24.493,0,0,1,15.457,4.914,11.852,11.852,0,0,1,3.256,3.467c2.569,4.524.139,10.2.685,15.375.619,5.878,5.009,10.6,9.442,14.5a18.99,18.99,0,0,0,5.862,3.905,7.186,7.186,0,0,0,6.751-.677c1.965-1.512,2.648-4.19,2.66-6.671s-.509-4.948-.384-7.424c.061-1.213.5-2.654,1.686-2.893a2.755,2.755,0,0,1,1.732.392c3.772,1.9,7.39,5.609,11.433,4.4,3.107-.928,4.649-4.435,5.138-7.639a25.124,25.124,0,0,0-1.953-14.2c-.926-2.021-2.124-3.936-2.868-6.038-3.125-8.831,2.3-19.037-.98-27.812-1.356-3.622-4.063-6.561-5.933-9.947-4.2-7.612-4.016-17.135-8.595-24.529a22.168,22.168,0,0,0-20.855-10.125c-4.779.54-8.193,2.25-12.646.2C354.833,44.336,350.322,42.4,346.441,45.122Z" transform="translate(-264.985 -41.966)" fill="#40243e"/>
    <path id="Path_11340" data-name="Path 11340" d="M598.756,366.2s13.139-4.043,18.394,19.405l13.341,29.916s18.192-22.639,18.192-28.1c0,0,3.638-10.713,17.586-7.883,9.422,1.912,17.736,3.638,22.14,4.558a1.334,1.334,0,0,1,.362,2.48c-5.009,2.688-15.793,7.158-27.96,4.079,0,0-4.447-.4-6.468,8.086s-16.777,36.587-16.777,36.587-4.043,10.511-18.6-6.468S593.5,397.33,593.5,397.33Z" transform="translate(-485.261 -299.014)" fill="#ffbcc8"/>
    <path id="Path_11341" data-name="Path 11341" d="M401.684,272.741l-1.742,5.739-1.722,5.676-3.408,11.225-16.171,3.032-5.27-3.362-6.454-4.118-5.565-3.841-8.18-5.66L346.5,267.485s1.839-.325,7.574-1.368l7.99-1.461c5.518-1.011,7.6-5.118,8.241-9.3a28.731,28.731,0,0,0-.56-10.107h20.416s2.284,3.436,1.926,9.371a23.759,23.759,0,0,1-.916,5.183c-1.795,6.214,2.258,8.288,5.007,8.961a11.394,11.394,0,0,0,2.27.338Z" transform="translate(-288.189 -202.724)" fill="#ffbcc8"/>
    <path id="Path_11342" data-name="Path 11342" d="M483.812,254.637a19.215,19.215,0,0,1-21.782.74,28.73,28.73,0,0,0-.56-10.107h20.416S484.176,248.692,483.812,254.637Z" transform="translate(-379.919 -202.74)" opacity="0.1"/>
    <circle id="Ellipse_569" data-name="Ellipse 569" cx="19.203" cy="19.203" r="19.203" transform="translate(73.269 16.653)" fill="#ffbcc8"/>
    <path id="Path_11343" data-name="Path 11343" d="M401.684,355.1l-1.742,5.739-1.722,5.676-3.408,11.225-16.171,3.032-5.27-3.362-6.454-4.118-5.565-3.841-8.18-5.66L346.5,349.848s1.839-.325,7.574-1.368c4.043,11.249,9.157,15.437,13.772,16.8a16.98,16.98,0,0,0,7.394.3,19.079,19.079,0,0,1,7.93.4c6.206,1.726,9.472-1.579,11.188-5.773a29.285,29.285,0,0,0,1.819-9.1,11.394,11.394,0,0,0,2.27.338Z" transform="translate(-288.189 -285.087)" opacity="0.1"/>
    <path id="Path_11344" data-name="Path 11344" d="M304.293,453.968s7.681-34.97,4.043-44.874a38.565,38.565,0,0,1-1.831-10.366,128.608,128.608,0,0,1,.619-19.955c.174-.338.338-.673.5-1.011q.606-1.294,1.067-2.531c4.332-11.655-1.057-19.415-3.79-22.383a13.612,13.612,0,0,0-1.415-1.36l15.464-1.718c4.065,11.665,9.278,15.969,13.968,17.347a16.98,16.98,0,0,0,7.394.3,19.08,19.08,0,0,1,7.93.4c6.206,1.726,9.472-1.579,11.188-5.773,2.131-5.207,1.868-11.783,1.868-11.783l8.894,2.628s-.784,4.871-1.494,11.273c-.168,1.5-.332,3.087-.479,4.714-.606,6.788-.966,14.293-.251,19.387a39.224,39.224,0,0,1-.762,15.1,18.72,18.72,0,0,1-2.474,5.526c-1.292,1.993-2.878,6.5,1.415,13.948,6.064,10.511,12.33,31.129,12.33,31.129Z" transform="translate(-253.865 -286.116)" fill="#0c4587"/>
    <path id="Path_11345" data-name="Path 11345" d="M598.1,365.75s7.344,11.522-2.292,21.427-5.793-4.043-5.793-4.043l2.426-16.171Z" transform="translate(-481.876 -299.866)" fill="#0c4587"/>
    <path id="Path_11346" data-name="Path 11346" d="M310.48,363.516a10,10,0,0,1,1.68-.376c2.628,1.253,4.083,4.732,4.874,8.364a18.811,18.811,0,0,1-2.763,14.4C318.6,374.243,313.213,366.483,310.48,363.516Z" transform="translate(-259.45 -296.784)" opacity="0.1"/>
    <path id="Path_11347" data-name="Path 11347" d="M379.487,416.271a77.778,77.778,0,0,1-9.953-.22,8.8,8.8,0,0,1-2.426,7.964,5.51,5.51,0,0,1-4.985,1.744c-9.327-1.617-23.509,6.873-23.509,6.873a131.286,131.286,0,0,1-20.84,13.487,128.608,128.608,0,0,1,.619-19.955c.174-.338.338-.673.5-1.011,4.322-.809,20.024-4,23.155-8.692a7.406,7.406,0,0,1,2.143-1.957c2.674-1.73,6.954-3.087,11.023-4.077a44.022,44.022,0,0,1,15.49-.982,42.733,42.733,0,0,1,6.582,1.284c.942.261,1.852.542,2.686.835,2.288.809,4.023,1.712,4.324,2.674C384.7,415.531,382.39,416.081,379.487,416.271Z" transform="translate(-265.136 -333.501)" opacity="0.1"/>
    <path id="Path_11348" data-name="Path 11348" d="M456.838,409.314c-3.111-.053-5.834-.3-5.834-.3a8.8,8.8,0,0,1-2.426,7.964,5.51,5.51,0,0,1-4.985,1.744c-3.515-.606-7.722.22-11.6,1.484l-6.462-4.118-5.565-3.841a9.815,9.815,0,0,0,3.543-2.83c1.795-2.692,7.681-4.7,13.165-6.034a43.678,43.678,0,0,1,21.881.251l.19.051c3.515.98,6.6,2.2,7.01,3.509C466.35,409.087,461.212,409.39,456.838,409.314Z" transform="translate(-346.808 -327.882)" opacity="0.1"/>
    <path id="Path_11349" data-name="Path 11349" d="M221.77,358.12S211.2,359.2,208.114,372.9a14.2,14.2,0,0,1-2.81,5.822c-3.064,3.786-8.132,11.158-7.849,18.235.4,10.107.4,14.15,13.745,11.32s31.331-17.384,31.331-17.384,14.182-8.476,23.509-6.873a5.514,5.514,0,0,0,4.985-1.744,8.778,8.778,0,0,0,2.426-7.964s15.767,1.415,14.756-1.819c-.4-1.314-3.495-2.529-7.01-3.507a43.709,43.709,0,0,0-22.071-.3c-5.494,1.34-11.37,3.343-13.165,6.034-3.638,5.458-24.257,8.894-24.257,8.894l.606-.681a18.886,18.886,0,0,0,4.334-16.446C225.855,362.852,224.406,359.373,221.77,358.12Z" transform="translate(-169.262 -292.778)" fill="#ffbcc8"/>
    <path id="Path_11350" data-name="Path 11350" d="M303.967,356.154s-.606,24.459,8.49,20.82,2.021-20.82,2.021-20.82l-4.043-.4Z" transform="translate(-254.247 -290.887)" fill="#0c4587"/>
    <path id="Path_11351" data-name="Path 11351" d="M416.977,123.521a89.4,89.4,0,0,0,17.653-3.794c1.476-.477,3.079-1.112,3.768-2.5.178-.358.311-.782.661-.978a1.4,1.4,0,0,1,1-.038c1.971.467,3.663,1.7,5.541,2.46s4.269.936,5.712-.487c1.7-1.682,1.14-4.572.018-6.685-4.166-7.859-13.925-11.447-22.8-10.8a9.845,9.845,0,0,0-3.638.809c-2.377,1.142-3.679,3.683-4.966,5.985C417.416,111.963,404.174,124.938,416.977,123.521Z" transform="translate(-340.035 -87.336)" opacity="0.1"/>
    <path id="Path_11352" data-name="Path 11352" d="M416.977,120.521a89.4,89.4,0,0,0,17.653-3.794c1.476-.477,3.079-1.112,3.768-2.5.178-.358.311-.782.661-.978a1.4,1.4,0,0,1,1-.038c1.971.467,3.663,1.7,5.541,2.46s4.269.936,5.712-.487c1.7-1.682,1.14-4.572.018-6.685-4.166-7.859-13.925-11.447-22.8-10.8a9.844,9.844,0,0,0-3.638.809c-2.377,1.142-3.679,3.683-4.966,5.985C417.416,108.963,404.174,121.938,416.977,120.521Z" transform="translate(-340.035 -84.942)" fill="#40243e"/>
    <path id="Path_11353" data-name="Path 11353" d="M913.894,316.75H872.86a1.87,1.87,0,0,0-1.87,1.87v24.054a1.87,1.87,0,0,0,1.87,1.87h41.034a1.87,1.87,0,0,0,1.87-1.87V318.62A1.87,1.87,0,0,0,913.894,316.75Z" transform="translate(-706.66 -259.771)" fill="url(#linear-gradient-2)"/>
    <rect id="Rectangle_4247" data-name="Rectangle 4247" width="43.728" height="27.141" rx="3" transform="translate(164.85 57.307)" fill="rgba(67,67,67,0.85)"/>
    <rect id="Rectangle_4249" data-name="Rectangle 4249" width="36.728" height="3.977" transform="translate(167.85 63.057)" fill="#fff"/>
    <rect id="Rectangle_4250" data-name="Rectangle 4250" width="35.435" height="2.414" transform="translate(168.996 70.727)" fill="#d6d6e3"/>
    <circle id="Ellipse_570" data-name="Ellipse 570" cx="3.469" cy="3.469" r="3.469" transform="translate(168.468 75.701)" fill="#fff"/>
    <path id="Path_11354" data-name="Path 11354" d="M287.862,484.75s-3.841,2.04-4.477,4.532S282,492.229,282,492.229" transform="translate(-236.727 -393.812)" opacity="0.05"/>
    <path id="Path_11355" data-name="Path 11355" d="M773.809,610.75s-1.819,6.266,0,7.075" transform="translate(-628.477 -494.342)" opacity="0.05"/>
    <path id="Path_11356" data-name="Path 11356" d="M328,631.388s15.767,3.436,27.491-3.638h5.053s15.16,7.681,22.437,5.458" transform="translate(-273.428 -507.906)" opacity="0.05"/>
    <rect id="Rectangle_4251" data-name="Rectangle 4251" width="7.643" height="14.893" transform="translate(163.438 118.333) rotate(-66.42)" fill="#0c4587"/>
    <ellipse id="Ellipse_572" data-name="Ellipse 572" cx="1.569" cy="3.135" rx="1.569" ry="3.135" transform="translate(168.249 118.083) rotate(-66.42)" fill="#8ed16f"/>
    <ellipse id="Ellipse_573" data-name="Ellipse 573" cx="1.569" cy="3.135" rx="1.569" ry="3.135" transform="translate(168.249 118.083) rotate(-66.42)" fill="#fff"/>
    <rect id="Rectangle_4252" data-name="Rectangle 4252" width="7.643" height="14.893" transform="translate(183.455 93.377) rotate(-66.42)" fill="#0c4587"/>
    <ellipse id="Ellipse_574" data-name="Ellipse 574" cx="1.569" cy="3.135" rx="1.569" ry="3.135" transform="translate(188.267 93.127) rotate(-66.42)" fill="#8ed16f"/>
    <ellipse id="Ellipse_575" data-name="Ellipse 575" cx="1.569" cy="3.135" rx="1.569" ry="3.135" transform="translate(188.267 93.127) rotate(-66.42)" fill="#fff"/>
    <rect id="Rectangle_4253" data-name="Rectangle 4253" width="7.643" height="14.893" transform="translate(203.259 113.194) rotate(-11.09)" fill="#0c4587"/>
    <ellipse id="Ellipse_576" data-name="Ellipse 576" cx="1.569" cy="3.135" rx="1.569" ry="3.135" transform="translate(206.204 117.01) rotate(-11.09)" fill="#8ed16f"/>
    <ellipse id="Ellipse_577" data-name="Ellipse 577" cx="1.569" cy="3.135" rx="1.569" ry="3.135" transform="translate(206.204 117.01) rotate(-11.09)" fill="#fff"/>
    <rect id="Rectangle_4254" data-name="Rectangle 4254" width="7.643" height="14.893" transform="translate(180.718 152.621) rotate(-66.42)" fill="#0c4587"/>
    <ellipse id="Ellipse_578" data-name="Ellipse 578" cx="1.569" cy="3.135" rx="1.569" ry="3.135" transform="translate(185.534 152.372) rotate(-66.42)" fill="#8ed16f"/>
    <ellipse id="Ellipse_579" data-name="Ellipse 579" cx="1.569" cy="3.135" rx="1.569" ry="3.135" transform="translate(185.534 152.372) rotate(-66.42)" fill="#fff"/>
    <rect id="Rectangle_4255" data-name="Rectangle 4255" width="7.643" height="14.893" transform="translate(146.991 146.002) rotate(-66.42)" fill="#0c4587"/>
    <ellipse id="Ellipse_580" data-name="Ellipse 580" cx="1.569" cy="3.135" rx="1.569" ry="3.135" transform="translate(151.805 145.752) rotate(-66.42)" fill="#8ed16f"/>
    <ellipse id="Ellipse_581" data-name="Ellipse 581" cx="1.569" cy="3.135" rx="1.569" ry="3.135" transform="translate(151.805 145.752) rotate(-66.42)" fill="#fff"/>
  </g>
</svg>
