<svg xmlns="http://www.w3.org/2000/svg" width="252.372" height="145.469" viewBox="0 0 252.372 145.469">
  <g id="_404" data-name="404" transform="translate(0.372)">
    <path id="Path_11128" data-name="Path 11128" d="M470.477,324.894c-20.168,0-34.648,14.129-34.648,47.1,0,37.364,14.48,47.255,34.648,47.255s35.51-10.832,35.51-47.255C505.987,333.058,490.644,324.894,470.477,324.894Zm.133,81.95c-13.969,0-21.266-8.949-21.266-34.828,0-22.835,7.6-34.877,21.565-34.877s21.565,7.91,21.565,34.877c0,25.227-7.9,34.829-21.864,34.829Z" transform="translate(-348.353 -282.098)" fill="#2f2e41"/>
    <path id="Path_11129" data-name="Path 11129" d="M180.4,403.947h-8.338V377.133a5.159,5.159,0,0,0-4.918-5.37h-1.954a5.159,5.159,0,0,0-4.918,5.37v26.814h-23.52a2.767,2.767,0,0,1-2.4-1.483,3.312,3.312,0,0,1-.078-3.014L159.16,348a5.817,5.817,0,0,0,.317-4.207,5.243,5.243,0,0,0-2.565-3.158l-1.469-.758a4.725,4.725,0,0,0-6.437,2.324l-30.361,62.02a7.821,7.821,0,0,0-.787,3.433h0c0,4.021,2.985,7.282,6.668,7.282h35.743v16.955a6.184,6.184,0,0,0,5.894,6.437h0a6.184,6.184,0,0,0,5.894-6.437V414.936H180.4a5.279,5.279,0,0,0,5.032-5.495h0a5.279,5.279,0,0,0-5.032-5.495Z" transform="translate(-104.997 -292.859)" fill="#0c4587"/>
    <path id="Path_11130" data-name="Path 11130" d="M838.393,403.947h-8.338V377.133a5.159,5.159,0,0,0-4.917-5.37h-1.954a5.159,5.159,0,0,0-4.917,5.37v26.814h-23.52a2.767,2.767,0,0,1-2.4-1.483,3.312,3.312,0,0,1-.078-3.014L817.157,348a5.816,5.816,0,0,0,.317-4.207,5.242,5.242,0,0,0-2.565-3.158l-1.469-.758A4.725,4.725,0,0,0,807,342.2l-30.361,62.02a7.822,7.822,0,0,0-.787,3.433h0c0,4.021,2.985,7.282,6.668,7.282h35.743v16.955a6.184,6.184,0,0,0,5.894,6.437h0a6.184,6.184,0,0,0,5.895-6.437V414.936h8.338a5.279,5.279,0,0,0,5.032-5.495h0a5.279,5.279,0,0,0-5.032-5.495Z" transform="translate(-608.589 -292.859)" fill="#0c4587"/>
    <path id="Path_11131" data-name="Path 11131" d="M190.2,391.694h-8.338V364.88a5.159,5.159,0,0,0-4.918-5.37H174.99a5.159,5.159,0,0,0-4.918,5.37v26.814h-23.52a2.767,2.767,0,0,1-2.4-1.483,3.312,3.312,0,0,1-.078-3.014l24.893-51.45a5.816,5.816,0,0,0,.317-4.207,5.242,5.242,0,0,0-2.565-3.157l-1.469-.758a4.725,4.725,0,0,0-6.437,2.324l-30.361,62.02a7.821,7.821,0,0,0-.787,3.433h0c0,4.021,2.985,7.281,6.668,7.281h35.743v16.955a6.183,6.183,0,0,0,5.894,6.437h0a6.184,6.184,0,0,0,5.894-6.437V402.683H190.2a5.279,5.279,0,0,0,5.032-5.495h0a5.278,5.278,0,0,0-5.032-5.495Z" transform="translate(-112.5 -283.746)" fill="none" stroke="#3f3d56" stroke-miterlimit="10" stroke-width="1"/>
    <path id="Path_11132" data-name="Path 11132" d="M856.772,391.694h-8.339V364.88a5.159,5.159,0,0,0-4.918-5.37h-1.953a5.159,5.159,0,0,0-4.917,5.37v26.814h-23.52a2.767,2.767,0,0,1-2.4-1.483,3.312,3.312,0,0,1-.078-3.014l24.893-51.45a5.816,5.816,0,0,0,.317-4.207,5.242,5.242,0,0,0-2.565-3.157l-1.47-.758a4.725,4.725,0,0,0-6.437,2.324l-30.361,62.02a7.821,7.821,0,0,0-.787,3.433h0c0,4.021,2.985,7.281,6.668,7.281h35.743v16.955a6.183,6.183,0,0,0,5.894,6.437h0a6.184,6.184,0,0,0,5.894-6.437V402.683h8.338a5.279,5.279,0,0,0,5.032-5.495h0a5.278,5.278,0,0,0-5.032-5.495Z" transform="translate(-622.655 -283.746)" fill="none" stroke="#3f3d56" stroke-miterlimit="10" stroke-width="1"/>
    <path id="Path_11133" data-name="Path 11133" d="M490.082,313.866c-20.168,0-34.648,14.129-34.648,47.1,0,37.364,14.48,47.255,34.648,47.255s35.51-10.832,35.51-47.255C525.592,322.03,510.249,313.866,490.082,313.866Zm.133,81.95c-13.969,0-21.266-8.949-21.266-34.828,0-22.835,7.6-34.877,21.565-34.877s21.565,7.91,21.565,34.877c0,25.227-7.895,34.828-21.864,34.828Z" transform="translate(-363.358 -273.896)" fill="none" stroke="#3f3d56" stroke-miterlimit="10" stroke-width="1"/>
    <ellipse id="Ellipse_492" data-name="Ellipse 492" cx="3.027" cy="3.306" rx="3.027" ry="3.306" transform="translate(107.531 1.371)" fill="#2f2e41"/>
    <ellipse id="Ellipse_493" data-name="Ellipse 493" cx="8.491" cy="12.014" rx="8.491" ry="12.014" transform="translate(109.451 0)" fill="#2f2e41"/>
    <path id="Path_11134" data-name="Path 11134" d="M537.966,207.889c-4.254,0-7.777-4.425-8.4-10.2a17.049,17.049,0,0,0-.1,1.814c0,6.635,3.8,12.014,8.491,12.014s8.491-5.379,8.491-12.014a17.017,17.017,0,0,0-.1-1.814C545.744,203.464,542.22,207.889,537.966,207.889Z" transform="translate(-420.024 -187.489)" opacity="0.1"/>
    <path id="Path_11135" data-name="Path 11135" d="M597.389,332.4a3.3,3.3,0,0,1-1.839,1.932,15.074,15.074,0,0,1-6.279,1.346,9.716,9.716,0,0,1-1.676-.034,4.651,4.651,0,0,1-2.875-1.443.452.452,0,0,1,.01-.729,10.76,10.76,0,0,1,5.072-2.874c1.486-.468,4.079-1.681,5.7-1.518C597.071,329.234,597.619,331.362,597.389,332.4Z" transform="translate(-462.167 -285.197)" fill="#3f3d56"/>
    <path id="Path_11136" data-name="Path 11136" d="M597.389,332.4a3.3,3.3,0,0,1-1.839,1.932,15.074,15.074,0,0,1-6.279,1.346,9.716,9.716,0,0,1-1.676-.034,4.651,4.651,0,0,1-2.875-1.443.452.452,0,0,1,.01-.729,10.76,10.76,0,0,1,5.072-2.874c1.486-.468,4.079-1.681,5.7-1.518C597.071,329.234,597.619,331.362,597.389,332.4Z" transform="translate(-462.167 -285.197)" opacity="0.1"/>
    <path id="Path_11137" data-name="Path 11137" d="M538.445,279.42a5.489,5.489,0,0,0-.281,3.863,6.774,6.774,0,0,0,2.072,3.2c2.369,2.073,5.629,2.359,8.665,2.33a61.277,61.277,0,0,0,7.956-.6,8.846,8.846,0,0,0,2.581-.655,4.163,4.163,0,0,0,2.214-2.441,3.161,3.161,0,0,0-.735-3.222,4.334,4.334,0,0,0-2.7-.805l-5.418-.356a9.155,9.155,0,0,1,1.9-1.356,9.068,9.068,0,0,0,2.068-2.392,31.928,31.928,0,0,1,3.154-3.541,5.173,5.173,0,0,0,1.569,2.774c.753.762,1.621,1.376,2.4,2.1,1.9,1.757,3.261,4.143,5.255,5.766a9.977,9.977,0,0,0,3.766-2.053l-.775-1.533a1,1,0,0,0-.292-.4c-.219-.147-.5-.071-.757-.113-.681-.111-.978-.97-1.245-1.662a21.538,21.538,0,0,0-3.336-4.972,25.355,25.355,0,0,1-2.346-3.773,13.133,13.133,0,0,0-1.318-2.307,2.9,2.9,0,0,0-2.145-1.225,3.92,3.92,0,0,0-2.045.816A54.111,54.111,0,0,0,553.113,271a12.785,12.785,0,0,1-2.931,2.095c-.457.2-.939.341-1.377.587a9.457,9.457,0,0,0-1.979,1.81A12.635,12.635,0,0,1,538.445,279.42Z" transform="translate(-426.501 -238.338)" fill="#3f3d56"/>
    <path id="Path_11138" data-name="Path 11138" d="M565.63,223.439a6.575,6.575,0,0,1-.407,2.059,2.465,2.465,0,0,1-1.354,1.428,2.667,2.667,0,0,1-1.319.047,2.414,2.414,0,0,1-1.075-.4,2.575,2.575,0,0,1-.854-1.728c-.092-.665-.051-1.345-.11-2.015a11.908,11.908,0,0,0-.282-1.6c-.04-.175-.081-.349-.12-.523s-.078-.348-.113-.523-.063-.328-.089-.493c-.021-.139-.041-.28-.055-.421a5.112,5.112,0,0,0-.19-1.233,3.834,3.834,0,0,0-.4-.731c-.067-.1-.132-.21-.192-.319a1.616,1.616,0,0,1-.228-.96.91.91,0,0,1,.035-.154c.006-.019.013-.039.02-.057a.441.441,0,0,0,.289-.294.959.959,0,0,0-.035-.456,3.049,3.049,0,0,0-.225-.586c-.062-.123-.273-.344-.274-.484,0-.282.5-.51.707-.621a3.662,3.662,0,0,1,2.017-.447,1.44,1.44,0,0,1,1.178.592,4.173,4.173,0,0,1,.286,1.274.4.4,0,0,0,.07.17.3.3,0,0,0,.174.087.978.978,0,0,0,.332.014h0a.632.632,0,0,0,.087-.014,1.116,1.116,0,0,0,.477-.225,2.78,2.78,0,0,1,.277-.065l.011,0c.37,1.275.418,2.641.721,3.94a10.924,10.924,0,0,1,.4,1.948c0,.029,0,.059,0,.089,0,.214-.011.429,0,.642a1.987,1.987,0,0,0,.029.285,4.324,4.324,0,0,0,.123.447l0,.007c.014.047.027.094.038.142s.016.069.021.1v0A4.179,4.179,0,0,1,565.63,223.439Z" transform="translate(-442.359 -198.814)" fill="#fbbebe"/>
    <ellipse id="Ellipse_494" data-name="Ellipse 494" cx="4.356" cy="4.757" rx="4.356" ry="4.757" transform="translate(113.733 6.773)" fill="#fbbebe"/>
    <path id="Path_11139" data-name="Path 11139" d="M601.73,241.493a8.253,8.253,0,0,0-1.229-3.614q.169,1.1.34,2.2a.717.717,0,0,1-.79-.265,2.731,2.731,0,0,1-.414-.839,17.793,17.793,0,0,0-1.927-3.776,19.433,19.433,0,0,1-7.954-2.971c-2.44-1.463-4.723-3.216-7.13-4.741a9.929,9.929,0,0,0-1.3-.726c-.753-.33-1.6-.5-2.313-.889-.048-.026-.1-.053-.143-.081a2.95,2.95,0,0,1-.456-.335,2.539,2.539,0,0,1-.219-.219,5.337,5.337,0,0,1-.835-1.526c-.383-.926-.52-2.042-.9-2.968a2.641,2.641,0,0,1,.587-.452h0c.031-.018.062-.035.094-.051a2.658,2.658,0,0,1,.47-.188,2.781,2.781,0,0,1,.277-.065l.011,0a2.5,2.5,0,0,1,1.289.111,5.9,5.9,0,0,1,1.629,1.1,27.287,27.287,0,0,1,2.381,2.063c.421.44.8.924,1.257,1.324a9.847,9.847,0,0,0,1.187.859l7.348,4.779c.829.539,1.659,1.079,2.47,1.65,1.231.868,2.419,1.808,3.605,2.747l2.1,1.66a2.375,2.375,0,0,1,.594.6,2.308,2.308,0,0,1,.264.88A8.749,8.749,0,0,1,601.73,241.493Z" transform="translate(-455.982 -204.043)" fill="#fbbebe"/>
    <path id="Path_11140" data-name="Path 11140" d="M547.911,232.364c-.294,1.439-1.626,2.309-2.322,3.574-.865,1.569-.512,3.393-.188,5.19l-1.782,1.676c-.328.307-.656.616-1.009.888A13.237,13.237,0,0,1,541,244.7l-1.577.886a7.209,7.209,0,0,1-1.544.714,5.475,5.475,0,0,1-3.161-.249,1.358,1.358,0,0,1-.345-.154.584.584,0,0,1-.164-.162,1.084,1.084,0,0,1-.1-.651,33.087,33.087,0,0,1,.946-5.558,23.346,23.346,0,0,1,.9-3.223,22.535,22.535,0,0,1,1.271-2.6,17.649,17.649,0,0,1,1.861-2.95,4.712,4.712,0,0,0,.863-1.214,7.083,7.083,0,0,0,.214-2.113,4.714,4.714,0,0,1,.383-1.539h0a4.49,4.49,0,0,1,.409-.739l.215.546q.071.179.14.357l.18.458.515,1.31a5.691,5.691,0,0,0,.783,1.523,1.481,1.481,0,0,0,1.362.7,1.53,1.53,0,0,0,1.249-.918,5.771,5.771,0,0,0,.533-1.541,5.37,5.37,0,0,0,.059-2.008,25.4,25.4,0,0,0-1.041-3.787,4.134,4.134,0,0,1-.253-1.248.949.949,0,0,1,.013-.144l.007-.037a2.652,2.652,0,0,1,.47-.188,2.769,2.769,0,0,1,.277-.065q.48,2.835.961,5.67c.007.044.015.089.023.134.046.271.092.542.144.812.046.245.1.489.153.732l0,.007c.019.082.039.164.06.245v0c.057.223.12.443.192.661C547.432,229.682,548.189,231,547.911,232.364Z" transform="translate(-423.559 -204.162)" fill="#0c4587"/>
    <path id="Path_11141" data-name="Path 11141" d="M668.314,333.695a1.817,1.817,0,0,0,.143.805,1.707,1.707,0,0,0,1.493.719,40.518,40.518,0,0,0,9.918-.33,1.079,1.079,0,0,0,.5-.171c.467-.357.179-1.229-.331-1.508a5.925,5.925,0,0,0-1.674-.332,5.056,5.056,0,0,1-1.567-.742q-1.7-1.068-3.354-2.226c-.656-.46-1.43-.951-2.168-.678A4.2,4.2,0,0,0,668.314,333.695Z" transform="translate(-526.281 -285.266)" fill="#3f3d56"/>
    <path id="Path_11142" data-name="Path 11142" d="M519.586,228.929h0c-.005.034-.01.067-.017.1-.008.055-.018.11-.027.165-.092.512-.2,1.022-.333,1.528-.354,1.4-.829,2.775-1.3,4.132l-3.793,10.91c-.319.916-.637,1.833-1,2.73-.121.3-.246.6-.37.906a13.433,13.433,0,0,0-1.013,3.378,7.679,7.679,0,0,0-.045,2.317,2.362,2.362,0,0,0,1.227,1.786c.323.138.786.323.7.689a.515.515,0,0,1-.446.334,1.618,1.618,0,0,1-1.4-.44c-.354-.343-.625-.876-1.1-.933a1.747,1.747,0,0,0-.924.323c-1.217.607-2.635.182-3.913-.249a1.415,1.415,0,0,1,1.136-1.051,8.426,8.426,0,0,1,1.576-.048.771.771,0,0,0,.479-.135.972.972,0,0,0,.258-.482,21.8,21.8,0,0,0,.754-3.369c.17-1.2.241-2.41.483-3.591.188-.922.479-1.814.729-2.719q.724-2.794,1.187-5.657a21.684,21.684,0,0,0,.335-2.4c.042-.669.022-1.342.081-2.009a16.856,16.856,0,0,1,.5-2.562l.677-2.739a9.646,9.646,0,0,1,1.541-3.8,3.177,3.177,0,0,1,2.353-1.227,2.132,2.132,0,0,1,.5.059l.082.023a1.931,1.931,0,0,1,.51.231c.261-.181.394-.118.568.162a1.92,1.92,0,0,1,.207.972A14.626,14.626,0,0,1,519.586,228.929Z" transform="translate(-401.931 -207.663)" fill="#fbbebe"/>
    <path id="Path_11143" data-name="Path 11143" d="M559.291,229.722l-.011.012-.06.065-.594.648-.291-1.334-1-4.575a2.133,2.133,0,0,1,.5.059.881.881,0,0,1,.035-.154l.047.177.338,1.256.64,2.385.105.393h0Z" transform="translate(-441.349 -207.387)" fill="#6c63ff"/>
    <path id="Path_11144" data-name="Path 11144" d="M550.885,178.728a3.38,3.38,0,0,1-.868,2.28,2.971,2.971,0,0,1-.319.3,2.781,2.781,0,0,1-1.768.647h-3.542a3.239,3.239,0,0,1,0-6.452h3.542A3.109,3.109,0,0,1,550.885,178.728Z" transform="translate(-429.176 -170.988)" fill="#2f2e41"/>
    <ellipse id="Ellipse_495" data-name="Ellipse 495" cx="3.027" cy="3.306" rx="3.027" ry="3.306" transform="translate(122.003 1.371)" fill="#2f2e41"/>
    <path id="Path_11145" data-name="Path 11145" d="M595.193,163.234c-.037,0-.074,0-.111,0a3.328,3.328,0,0,1,0,6.606c.037,0,.074,0,.111,0a3.319,3.319,0,0,0,0-6.612Z" transform="translate(-470.236 -161.863)" opacity="0.1"/>
    <path id="Path_11146" data-name="Path 11146" d="M524.321,163.234c.037,0,.074,0,.111,0a3.328,3.328,0,0,0,0,6.606c-.037,0-.074,0-.111,0a3.319,3.319,0,0,1,0-6.612Z" transform="translate(-413.763 -161.863)" opacity="0.1"/>
    <path id="Path_11147" data-name="Path 11147" d="M553.566,198.159a2.782,2.782,0,0,1-1.768.647h-3.543a2.781,2.781,0,0,1-1.768-.647Z" transform="translate(-433.045 -187.839)" opacity="0.1"/>
    <path id="Path_11148" data-name="Path 11148" d="M674.14,287.644s.763,2.4,1.462,1.762l-.557-3.139Z" transform="translate(-530.742 -253.369)" fill="#fbbebe"/>
    <path id="Path_11149" data-name="Path 11149" d="M1059.428,547.406a4.63,4.63,0,0,0,5.447-1.634,5.731,5.731,0,0,0,.391-6.154,4.727,4.727,0,0,0-5.188-2.44l.122,2.745-1.189-2.352a5.17,5.17,0,0,0-2.507,3,5.635,5.635,0,0,0-.281,1.443A5.366,5.366,0,0,0,1059.428,547.406Z" transform="translate(-823.157 -439.897)" fill="#0c4587"/>
    <path id="Path_11150" data-name="Path 11150" d="M1092,565.939c-.42-2.334,1.4-4.4,3.2-5.749s3.9-2.667,4.51-4.95c.881-3.281-1.744-6.286-3.787-8.877a32.443,32.443,0,0,1-3.877-6.293,9.191,9.191,0,0,1-.927-2.861,10.68,10.68,0,0,1,.7-4.289q2.154-6.932,4.606-13.748" transform="translate(-849.843 -426.593)" fill="none" stroke="#3f3d56" stroke-miterlimit="10" stroke-width="1"/>
    <path id="Path_11151" data-name="Path 11151" d="M1060.278,544.648a4.63,4.63,0,0,0,5.448-1.634,5.73,5.73,0,0,0,.391-6.154,4.728,4.728,0,0,0-5.188-2.44l.122,2.745-1.189-2.352a5.17,5.17,0,0,0-2.507,3,5.65,5.65,0,0,0-.281,1.443A5.366,5.366,0,0,0,1060.278,544.648Z" transform="translate(-823.807 -437.846)" fill="none"/>
    <path id="Path_11152" data-name="Path 11152" d="M1091.494,505.277a5.045,5.045,0,0,1,3.515-3.382l.4,2.609.745-2.741a4.965,4.965,0,0,1,4.6,3.784,5.6,5.6,0,0,1-1.9,5.937,4.555,4.555,0,0,1-5.757-.168,5.636,5.636,0,0,1-1.606-6.04Z" transform="translate(-849.936 -413.645)" fill="#0c4587"/>
    <path id="Path_11153" data-name="Path 11153" d="M1092.634,501.6a5.045,5.045,0,0,1,3.515-3.382l.4,2.609.745-2.741a4.964,4.964,0,0,1,4.6,3.784,5.6,5.6,0,0,1-1.9,5.937,4.556,4.556,0,0,1-5.758-.168A5.635,5.635,0,0,1,1092.634,501.6Z" transform="translate(-850.808 -410.91)" fill="none"/>
    <path id="Path_11154" data-name="Path 11154" d="M1097.54,595.456a4.727,4.727,0,0,0,6.037-2.638,5.621,5.621,0,0,0-1.715-6.849l-.573,2.106-.406-2.64-.013-.005a4.782,4.782,0,0,0-6.256,3.195A5.48,5.48,0,0,0,1097.54,595.456Z" transform="translate(-852.323 -475.633)" fill="#0c4587"/>
    <path id="Path_11155" data-name="Path 11155" d="M1098.54,591.731a4.727,4.727,0,0,0,6.037-2.638,5.621,5.621,0,0,0-1.715-6.849l-.573,2.106-.406-2.64-.012-.005a4.782,4.782,0,0,0-6.256,3.195A5.479,5.479,0,0,0,1098.54,591.731Z" transform="translate(-853.088 -472.862)" fill="none"/>
    <path id="Path_11156" data-name="Path 11156" d="M1086.135,641.9a5.042,5.042,0,0,0,4.643,4.4,4.968,4.968,0,0,0,4.9-4.053,5.5,5.5,0,0,0-2.622-6.076,4.624,4.624,0,0,0-5.985,1.549l2.176,3.576-2.973-1.9A5.744,5.744,0,0,0,1086.135,641.9Z" transform="translate(-846.002 -513.222)" fill="#0c4587"/>
    <path id="Path_11157" data-name="Path 11157" d="M1086.985,639.144a5.043,5.043,0,0,0,4.643,4.4,4.968,4.968,0,0,0,4.9-4.054,5.5,5.5,0,0,0-2.621-6.076,4.624,4.624,0,0,0-5.985,1.549l2.176,3.576-2.973-1.9A5.753,5.753,0,0,0,1086.985,639.144Z" transform="translate(-846.652 -511.171)" fill="none"/>
    <path id="Path_11158" data-name="Path 11158" d="M65.168,608.4a3.042,3.042,0,0,0,3.579-1.073A3.766,3.766,0,0,0,69,603.287a3.106,3.106,0,0,0-3.409-1.6l.08,1.8-.781-1.546a3.4,3.4,0,0,0-1.647,1.974,3.71,3.71,0,0,0-.185.948A3.526,3.526,0,0,0,65.168,608.4Z" transform="translate(-63.054 -487.904)" fill="#0c4587"/>
    <path id="Path_11159" data-name="Path 11159" d="M86.566,620.581c-.276-1.534.919-2.894,2.1-3.777s2.56-1.752,2.963-3.252c.579-2.156-1.146-4.13-2.488-5.832a21.312,21.312,0,0,1-2.548-4.134,6.041,6.041,0,0,1-.609-1.88,7.021,7.021,0,0,1,.459-2.818q1.415-4.554,3.026-9.032" transform="translate(-80.586 -479.163)" fill="none" stroke="#3f3d56" stroke-miterlimit="10" stroke-width="1"/>
    <path id="Path_11160" data-name="Path 11160" d="M65.731,606.592a3.042,3.042,0,0,0,3.579-1.073,3.766,3.766,0,0,0,.257-4.044,3.107,3.107,0,0,0-3.409-1.6l.08,1.8-.781-1.545A3.4,3.4,0,0,0,63.81,602.1a3.708,3.708,0,0,0-.185.948A3.526,3.526,0,0,0,65.731,606.592Z" transform="translate(-63.485 -486.556)" fill="none" stroke="#3f3d56" stroke-miterlimit="10" stroke-width="1"/>
    <path id="Path_11161" data-name="Path 11161" d="M86.238,580.724a3.314,3.314,0,0,1,2.31-2.222l.264,1.714.49-1.8a3.261,3.261,0,0,1,3.023,2.486,3.678,3.678,0,0,1-1.248,3.9,2.993,2.993,0,0,1-3.783-.111,3.7,3.7,0,0,1-1.055-3.968Z" transform="translate(-80.65 -470.655)" fill="#0c4587"/>
    <path id="Path_11162" data-name="Path 11162" d="M86.989,578.308a3.314,3.314,0,0,1,2.31-2.222l.264,1.715.49-1.8a3.262,3.262,0,0,1,3.023,2.486,3.678,3.678,0,0,1-1.248,3.9,2.993,2.993,0,0,1-3.783-.111,3.7,3.7,0,0,1-1.055-3.968Z" transform="translate(-81.225 -468.859)" fill="none" stroke="#3f3d56" stroke-miterlimit="10" stroke-width="1"/>
    <path id="Path_11163" data-name="Path 11163" d="M90.213,639.974a3.106,3.106,0,0,0,3.967-1.733,3.693,3.693,0,0,0-1.127-4.5l-.376,1.384-.267-1.735-.008,0a3.142,3.142,0,0,0-4.11,2.1A3.6,3.6,0,0,0,90.213,639.974Z" transform="translate(-82.22 -511.383)" fill="#0c4587"/>
    <path id="Path_11164" data-name="Path 11164" d="M90.863,637.527a3.106,3.106,0,0,0,3.967-1.733,3.693,3.693,0,0,0-1.127-4.5l-.376,1.384-.267-1.735-.008,0a3.142,3.142,0,0,0-4.11,2.1,3.6,3.6,0,0,0,1.922,4.489Z" transform="translate(-82.718 -509.563)" fill="none" stroke="#3f3d56" stroke-miterlimit="10" stroke-width="1"/>
    <path id="Path_11165" data-name="Path 11165" d="M82.715,670.489a3.313,3.313,0,0,0,3.051,2.894,3.264,3.264,0,0,0,3.222-2.663,3.611,3.611,0,0,0-1.722-3.992,3.038,3.038,0,0,0-3.932,1.018l1.43,2.35-1.953-1.247a3.778,3.778,0,0,0-.095,1.641Z" transform="translate(-78.063 -536.079)" fill="#0c4587"/>
    <path id="Path_11166" data-name="Path 11166" d="M83.278,668.677a3.313,3.313,0,0,0,3.051,2.894,3.264,3.264,0,0,0,3.222-2.663,3.611,3.611,0,0,0-1.722-3.992,3.037,3.037,0,0,0-3.932,1.017l1.43,2.35-1.953-1.247A3.778,3.778,0,0,0,83.278,668.677Z" transform="translate(-78.494 -534.731)" fill="none" stroke="#3f3d56" stroke-miterlimit="10" stroke-width="1"/>
    <ellipse id="Ellipse_496" data-name="Ellipse 496" cx="3.989" cy="5.637" rx="3.989" ry="5.637" transform="translate(108.87 76.135)" fill="#2f2e41"/>
    <ellipse id="Ellipse_497" data-name="Ellipse 497" cx="3.989" cy="5.637" rx="3.989" ry="5.637" transform="translate(130.576 76.264)" fill="#2f2e41"/>
    <path id="Path_11167" data-name="Path 11167" d="M576.049,529.112c0,2.547-3.257,4.612-7.274,4.612s-7.274-2.065-7.274-4.612c0-2.206,2.443-4.051,5.707-4.5a10.784,10.784,0,0,1,1.568-.11,10.926,10.926,0,0,1,2.612.308C574.113,525.471,576.049,527.149,576.049,529.112Z" transform="translate(-444.534 -430.555)" fill="#2f2e41"/>
    <ellipse id="Ellipse_498" data-name="Ellipse 498" cx="3.989" cy="5.637" rx="3.989" ry="5.637" transform="translate(109.809 74.854)" fill="none" stroke="#3f3d56" stroke-miterlimit="10" stroke-width="1"/>
    <ellipse id="Ellipse_499" data-name="Ellipse 499" cx="3.989" cy="5.637" rx="3.989" ry="5.637" transform="translate(131.515 74.982)" fill="none" stroke="#3f3d56" stroke-miterlimit="10" stroke-width="1"/>
    <ellipse id="Ellipse_500" data-name="Ellipse 500" cx="7.274" cy="4.612" rx="7.274" ry="4.612" transform="translate(117.904 92.664)" fill="none" stroke="#3f3d56" stroke-miterlimit="10" stroke-width="1"/>
    <path id="Path_11168" data-name="Path 11168" d="M589.457,524.82a1.33,1.33,0,0,1-.31.869.982.982,0,0,1-.746.361h-2.346A1.156,1.156,0,0,1,585,524.82a1.343,1.343,0,0,1,.192-.7,10.12,10.12,0,0,1,1.568-.117,10.276,10.276,0,0,1,2.612.328A1.406,1.406,0,0,1,589.457,524.82Z" transform="translate(-462.518 -430.183)" fill="#fff"/>
    <ellipse id="Ellipse_501" data-name="Ellipse 501" cx="1.173" cy="1.281" rx="1.173" ry="1.281" transform="translate(112.624 77.673)" fill="#fff"/>
    <ellipse id="Ellipse_502" data-name="Ellipse 502" cx="1.173" cy="1.281" rx="1.173" ry="1.281" transform="translate(134.448 77.673)" fill="#fff"/>
    <ellipse id="Ellipse_503" data-name="Ellipse 503" cx="1.173" cy="1.281" rx="1.173" ry="1.281" transform="translate(135.621 89.717)" fill="#0c4587" opacity="0.3"/>
    <ellipse id="Ellipse_504" data-name="Ellipse 504" cx="1.173" cy="1.281" rx="1.173" ry="1.281" transform="translate(106.993 89.717)" fill="#0c4587" opacity="0.3"/>
  </g>
</svg>
