<svg xmlns="http://www.w3.org/2000/svg" width="189" height="183.226" viewBox="0 0 189 183.226">
  <g id="secure_payment" data-name="secure payment" transform="translate(-91 -167.394)">
    <path id="Path_10664" data-name="Path 10664" d="M410.061,442.4h-6.838a.7.7,0,0,0-.694.809l1.033,6.716H409.5l1.255-6.694a.7.7,0,0,0-.69-.831Z" transform="translate(-257.777 -204.391)" fill="#fff"/>
    <circle id="Ellipse_472" data-name="Ellipse 472" cx="4.724" cy="4.724" r="4.724" transform="translate(143.009 197.241)" fill="#fff"/>
    <circle id="Ellipse_473" data-name="Ellipse 473" cx="4.724" cy="4.724" r="4.724" transform="translate(143.009 196.06)" fill="#fff"/>
    <circle id="Ellipse_474" data-name="Ellipse 474" cx="4.724" cy="4.724" r="4.724" transform="translate(143.009 197.241)" fill="#fff"/>
    <g id="Group_6612" data-name="Group 6612" transform="translate(-3944.535 -2563.663)">
      <g id="Group_6610" data-name="Group 6610" transform="translate(4077.72 2783.663)">
        <path id="Path_11224" data-name="Path 11224" d="M4419.578,2911.353l-1.38-3,1.889-.871,1.332,2.909a8.935,8.935,0,0,1,4.379-.747l.161,2.321a7.925,7.925,0,0,0-4.256.692c-2.3,1.06-2.347,2.754-1.78,3.981a2.657,2.657,0,0,0,1.873,1.556h21.258a18.307,18.307,0,0,0-1.568-5.686,18.452,18.452,0,0,0-35.108,5.686h10.917C4416.18,2915.728,4417.07,2913.048,4419.578,2911.353Z" transform="translate(-4343.134 -2868.195)" fill="#fcfdff"/>
        <path id="Path_11225" data-name="Path 11225" d="M4353.408,2841.079a10.83,10.83,0,0,1,12.3-15.092l6.211,13.48.082-.038-25.7-55.766-.082.038,6.385,13.854a10.806,10.806,0,0,1-20.071-7.549l-90.958,41.912.805,1.75h0l-.8-1.748,13.688-6.307a10.718,10.718,0,0,1,4.867,5.049,10.893,10.893,0,0,1,.892,3.006h2.695a13.216,13.216,0,0,0-5.553-9.39l71.468-32.931a13.381,13.381,0,0,0,8.751,13.8,13.35,13.35,0,0,0,15.543-4.714l10.445,22.663a13.444,13.444,0,0,0-9.307,24.137l2.825-1.3A10.743,10.743,0,0,1,4353.408,2841.079Z" transform="translate(-4225.189 -2783.663)" fill="#fcfdff"/>
        <path id="Path_11226" data-name="Path 11226" d="M4260.139,2936.272a10.724,10.724,0,0,0-4.866-5.05l-13.688,6.307.8,1.748h18.643A10.885,10.885,0,0,0,4260.139,2936.272Z" transform="translate(-4225.191 -2889.272)" fill="rgba(67,67,67,0.85)"/>
        <path id="Path_11227" data-name="Path 11227" d="M4566.636,2793.592l-13.685,6.307h0l13.685-6.307Z" transform="translate(-4448.038 -2790.769)" fill="#3e8257"/>
        <path id="Path_11228" data-name="Path 11228" d="M4561.446,2797.086a10.828,10.828,0,0,0,19.4.566l-6.386-13.854-13.686,6.305A10.754,10.754,0,0,0,4561.446,2797.086Z" transform="translate(-4453.427 -2783.759)" fill="rgba(67,67,67,0.85)"/>
        <path id="Path_11229" data-name="Path 11229" d="M4644.7,2931.833a10.829,10.829,0,0,0-12.3,15.092,10.739,10.739,0,0,0,4.487,4.851l14.026-6.463Z" transform="translate(-4504.18 -2889.509)" fill="rgba(67,67,67,0.85)"/>
        <path id="Path_11230" data-name="Path 11230" d="M4392.737,2861.537a13.492,13.492,0,0,1,13.4-19.1l-10.445-22.663a13.447,13.447,0,0,1-24.294-9.083l-71.469,32.931a13.4,13.4,0,0,1,4.4,5.262,13.536,13.536,0,0,1,1.149,4.129h24.708a18.447,18.447,0,0,1,36.676,0H4384.7v19.155l12.137-5.593A13.452,13.452,0,0,1,4392.737,2861.537Z" transform="translate(-4266.951 -2803.006)" fill="#0c4587"/>
        <path id="Path_11231" data-name="Path 11231" d="M4446.213,2931.027c-.565-1.227-.522-2.921,1.78-3.981a7.93,7.93,0,0,1,4.256-.693l-.161-2.32a8.933,8.933,0,0,0-4.379.747l-1.332-2.91-1.889.871,1.38,3c-2.508,1.695-3.4,4.375-2.283,6.846h4.5A2.659,2.659,0,0,1,4446.213,2931.027Z" transform="translate(-4369.426 -2882.579)" fill="#3e8257"/>
        <rect id="Rectangle_4212" data-name="Rectangle 4212" width="14.762" height="0.004" transform="translate(0 52.789)" fill="#fcfdff"/>
        <path id="Path_11232" data-name="Path 11232" d="M4199.912,3028.865a13.544,13.544,0,0,0-15.987-2.281v-24.838a13.471,13.471,0,0,0,19.531-8.062l-2.213-4.8a10.553,10.553,0,0,1,.06,1.072,10.822,10.822,0,0,1-17.378,8.635h0v46.143h0v-15.011a10.829,10.829,0,0,1,17.275,8.726,10.747,10.747,0,0,1-2.04,6.285h3.1a13.363,13.363,0,0,0-2.35-15.864Z" transform="translate(-4183.922 -2930.538)" fill="#fcfdff"/>
        <path id="Path_11233" data-name="Path 11233" d="M4538.438,3061.1a13.442,13.442,0,0,0-18.552,18.027h3.106a10.82,10.82,0,0,1,15.445-14.843v14.843h.091v-42.185l-.089.041Z" transform="translate(-4423.217 -2964.936)" fill="#fcfdff"/>
        <path id="Path_11234" data-name="Path 11234" d="M4452.043,2969.351h20.721a13.325,13.325,0,0,0-1.792,6.621,13.656,13.656,0,0,0,.5,3.629,18.51,18.51,0,0,0,1.819-10.254h-21.261A.028.028,0,0,1,4452.043,2969.351Z" transform="translate(-4375.809 -2916.558)" fill="#fcfdff"/>
        <path id="Path_11235" data-name="Path 11235" d="M4408.726,2969.351a.007.007,0,0,0,0,0h-10.916v0Z" transform="translate(-4337.001 -2916.558)" fill="#fcfdff"/>
        <path id="Path_11236" data-name="Path 11236" d="M4235.845,2969.351v0h0v0Z" transform="translate(-4221.083 -2916.558)" fill="#fcfdff"/>
        <path id="Path_11237" data-name="Path 11237" d="M4244.842,2988.88h0l2.213,4.8h0Z" transform="translate(-4227.522 -2930.538)" fill="#fcfdff"/>
        <path id="Path_11238" data-name="Path 11238" d="M4304.108,2969.351v0h-2.7a.007.007,0,0,1,0,0Z" transform="translate(-4268.011 -2916.558)" fill="#fcfdff"/>
        <path id="Path_11239" data-name="Path 11239" d="M4236.155,2969.351a10.775,10.775,0,0,1,2.248,5.549l2.214,4.8a13.589,13.589,0,0,0,.528-3.733,13.377,13.377,0,0,0-1.8-6.621h15.141a.007.007,0,0,0,0,0h-18.641v0Z" transform="translate(-4221.083 -2916.558)" fill="#fcfdff"/>
        <path id="Path_11240" data-name="Path 11240" d="M4520.417,2979.6a13.41,13.41,0,0,0,19.557,8.166v.776l.088-.041v-19.155h-.09V2984.6a10.8,10.8,0,0,1-15.067-15.256h-2.668A18.5,18.5,0,0,1,4520.417,2979.6Z" transform="translate(-4424.753 -2916.558)" fill="#fcfdff"/>
        <path id="Path_11241" data-name="Path 11241" d="M4335.6,2969.351v0h-24.708v0Z" transform="translate(-4274.797 -2916.558)" fill="#fcfdff"/>
        <path id="Path_11242" data-name="Path 11242" d="M4354.327,3019.18a18.577,18.577,0,0,0-7.006-5.256,18.466,18.466,0,1,0-12.848,34.583c.022.006.045.018.069.025a18.469,18.469,0,0,0,22.513-10.37c.012-.025.025-.05.037-.077a18.444,18.444,0,0,0-2.765-18.9Zm-19.834,20.853a5.507,5.507,0,0,1-.578-.352l.121-.333.674-1.875a8.928,8.928,0,0,0,4.72,1.421c2.336,0,3.711-1.35,3.711-3.231,0-1.811-1.076-2.937-3.516-3.922-3.365-1.327-5.437-2.876-5.437-5.743,0-2.736,1.938-4.817,4.941-5.31v-3.3h2.08l-.007,3.2a8.943,8.943,0,0,1,4.292,1.153l-.827,2.174a7.938,7.938,0,0,0-4.154-1.152c-2.536,0-3.283,1.52-3.283,2.872,0,1.679,1.01,2.533,3.881,3.756,3.394,1.388,5.11,3.067,5.11,6,0,2.64-1.817,5.078-5.212,5.6v3.44h-2.076l-.006-3.3c-.325-.007-.652-.036-.975-.073A9.723,9.723,0,0,1,4334.493,3040.033Z" transform="translate(-4282.457 -2947.398)" fill="#fcfdff"/>
        <path id="Path_11243" data-name="Path 11243" d="M4440.706,2969.347h-4.5a.01.01,0,0,1,0,0h4.511A.034.034,0,0,0,4440.706,2969.347Z" transform="translate(-4364.484 -2916.558)" fill="#fcfdff"/>
        <path id="Path_11244" data-name="Path 11244" d="M4183.926,3185.379h15.2c.012-.017.023-.035.035-.052h-15.236Z" transform="translate(-4183.925 -3071.137)" fill="#3e8257"/>
        <path id="Path_11245" data-name="Path 11245" d="M4198.024,3128.234a10.857,10.857,0,0,0-14.1-1.038v15.011h15.236a10.807,10.807,0,0,0-1.138-13.973Z" transform="translate(-4183.925 -3028.016)" fill="#3e8257"/>
        <path id="Path_11246" data-name="Path 11246" d="M4198.125,2983.665a10.793,10.793,0,0,0,3.177-7.684,10.557,10.557,0,0,0-.06-1.072l-2.557-5.549h-14.762v15.255h0A10.847,10.847,0,0,0,4198.125,2983.665Z" transform="translate(-4183.922 -2916.568)" fill="rgba(67,67,67,0.85)"/>
        <path id="Path_11247" data-name="Path 11247" d="M4235.847,2969.361h0l2.558,5.55h0Z" transform="translate(-4221.084 -2916.568)" fill="#3e8257"/>
        <path id="Path_11248" data-name="Path 11248" d="M4236.157,2969.361h-.31l2.557,5.549A10.781,10.781,0,0,0,4236.157,2969.361Z" transform="translate(-4221.085 -2916.568)" fill="#3e8257"/>
        <path id="Path_11249" data-name="Path 11249" d="M4531.24,2983.654a10.84,10.84,0,0,0,14.2.949v-15.256h-15.067a10.76,10.76,0,0,0,.867,14.307Z" transform="translate(-4430.222 -2916.558)" fill="rgba(67,67,67,0.85)"/>
        <path id="Path_11250" data-name="Path 11250" d="M4534.908,3185.379h15.41v-.052h-15.445C4534.885,3185.344,4534.9,3185.362,4534.908,3185.379Z" transform="translate(-4435.1 -3071.137)" fill="#3e8257"/>
        <path id="Path_11251" data-name="Path 11251" d="M4530.869,3128.245a10.79,10.79,0,0,0-1.141,13.973h15.444v-14.843A10.849,10.849,0,0,0,4530.869,3128.245Z" transform="translate(-4429.955 -3028.027)" fill="rgba(67,67,67,0.85)"/>
        <path id="Path_11252" data-name="Path 11252" d="M4248.338,3185.382h78.38c-.009-.018-.016-.037-.026-.054h-78.328C4248.354,3185.344,4248.349,3185.364,4248.338,3185.382Z" transform="translate(-4230.024 -3071.137)" fill="#3e8257"/>
        <path id="Path_11253" data-name="Path 11253" d="M4299.148,2988.553v-.777a13.469,13.469,0,0,1-19.557-8.166,13.638,13.638,0,0,1-.5-3.629,13.338,13.338,0,0,1,1.792-6.621h-78.692a13.389,13.389,0,0,1,1.8,6.621,13.607,13.607,0,0,1-.527,3.733,13.413,13.413,0,0,1-19.531,8.062v24.837a13.441,13.441,0,0,1,18.337,18.145H4280.6a13.46,13.46,0,0,1,18.553-18.028v-24.117l.089-.041v-.062Zm-57.606,30a18.407,18.407,0,0,1-5.528-.847l-.069-.025a18.52,18.52,0,0,1-12.293-13.078,18.176,18.176,0,0,1-.486-2.624,18.48,18.48,0,0,1,18.377-20.368,18.368,18.368,0,0,1,7.25,1.487,18.575,18.575,0,0,1,7.007,5.256,18.446,18.446,0,0,1,2.764,18.9c-.012.028-.024.052-.036.078A18.494,18.494,0,0,1,4241.542,3018.548Z" transform="translate(-4183.928 -2916.568)" fill="#0c4587"/>
        <path id="Path_11254" data-name="Path 11254" d="M4365.349,3102.375c.163.22.311.453.457.685a9.73,9.73,0,0,0,3.459,1.033c-.115-.309-.215-.62-.355-.922a13.445,13.445,0,0,0-.98-1.741,8.621,8.621,0,0,1-1.907-.929Z" transform="translate(-4313.77 -3010.426)" fill="#3e8257"/>
        <path id="Path_11255" data-name="Path 11255" d="M4364.924,3107.428a5.566,5.566,0,0,0,.578.352c-.147-.232-.294-.465-.458-.685Z" transform="translate(-4313.467 -3015.145)" fill="#3e8257"/>
        <path id="Path_11256" data-name="Path 11256" d="M4369.648,3053.535c.323.036.65.065.975.073l.007,3.3h2.076v-3.44c3.394-.525,5.209-2.963,5.212-5.6,0-2.936-1.716-4.614-5.11-6-2.871-1.223-3.879-2.077-3.88-3.756,0-1.352.747-2.872,3.282-2.872a7.933,7.933,0,0,1,4.155,1.152l.827-2.174a8.936,8.936,0,0,0-4.292-1.153l.008-3.2h-2.08v3.3c-3,.492-4.941,2.574-4.941,5.31,0,2.866,2.072,4.415,5.437,5.742,2.44.985,3.517,2.111,3.517,3.922,0,1.882-1.375,3.231-3.712,3.231a8.573,8.573,0,0,1-2.812-.492,13.577,13.577,0,0,1,.979,1.742C4369.434,3052.914,4369.534,3053.225,4369.648,3053.535Z" transform="translate(-4314.154 -2959.867)" fill="#3e8257"/>
      </g>
      <g id="Group_6611" data-name="Group 6611" transform="translate(4035.535 2859.419)">
        <path id="Path_11257" data-name="Path 11257" d="M4050.079,3054.462c7.792-2.721,27.09-6.7,44.535-2.5,17,4.092,12.937,1.9,32.595,2.073.508,0,1.022.008,1.564.016,21.461.31,19.508,8.558,19.508,8.558.727,8.75-8.988,9.467-8.988,9.467l-35.053,3.559s-3.619,4.5-3,8.587c.118.786,1.6.817,3.9.363l23.789,3.8c-7.535,6.413-18.228,15.453-22.79,16.333-3.662.7-10.842.025-20.183-1.2-7.055-.925-15.341-2.157-24.284-3.342-3.649-.483-19.612-.81-26.138.7v-42.6C4041.309,3054.881,4044.661,3056.353,4050.079,3054.462Z" transform="translate(-4035.535 -3050.132)" fill="#f2c9a9"/>
      </g>
    </g>
    <g id="Group_6618" data-name="Group 6618" transform="matrix(0.899, -0.438, 0.438, 0.899, -3155.073, 8.02)">
      <path id="Path_11258" data-name="Path 11258" d="M2905.363,1844.663a2.972,2.972,0,0,1-3.006,2.939h-55.729a2.972,2.972,0,0,1-3.006-2.939V1808.5a2.972,2.972,0,0,1,3.006-2.939h55.729a2.972,2.972,0,0,1,3.006,2.939Z" transform="translate(0 -176.437)" fill="#3c444f"/>
      <g id="Group_6613" data-name="Group 6613" transform="translate(2859.513 1604.198)">
        <path id="Path_11259" data-name="Path 11259" d="M3076.415,1650.269l-52.509-18.666a.985.985,0,0,0-1.275.554l-2.155,6.06,54.424,19.347,2.155-6.061A.984.984,0,0,0,3076.415,1650.269Z" transform="translate(-3014.472 -1628.155)" fill="none"/>
        <path id="Path_11260" data-name="Path 11260" d="M3035.99,1623.042l-52.51-18.666a2.974,2.974,0,0,0-3.818,1.762l-2.154,6.06-1.241,3.494-1.021,2.871-1.4,3.95-1.856,5.219h2.112l1.619-4.553,12.808,4.553h27.7a2.972,2.972,0,0,1,3.006,2.939v7.977l10.912,3.879-6.291,17.7a.986.986,0,0,1-1.276.554l-3.345-1.189v2.112l2.679.952a2.973,2.973,0,0,0,3.818-1.762l6.291-17.7,1.4-3.95,1.02-2.87,1.241-3.494,2.155-6.061A2.972,2.972,0,0,0,3035.99,1623.042Zm-.027,3.11-2.154,6.061-54.425-19.347,2.154-6.06a.986.986,0,0,1,1.276-.554l52.51,18.666A.984.984,0,0,1,3035.962,1626.152Z" transform="translate(-2971.986 -1604.198)" fill="#0c4587"/>
      </g>
      <g id="Group_6615" data-name="Group 6615" transform="translate(2847.801 1660.872)">
        <g id="Group_6614" data-name="Group 6614" transform="translate(0)">
          <path id="Path_11261" data-name="Path 11261" d="M2877.414,2066.855h.739v-3.3h-.768v-.845h1.691v4.143h.684v.789h-2.346Z" transform="translate(-2877.385 -2062.621)" fill="#fff"/>
          <path id="Path_11262" data-name="Path 11262" d="M2900.772,2063.693c.007-1.043.993-1.493,1.9-1.493.988,0,2.058.4,2.058,1.571,0,1.254-.945,1.493-1.98,1.493-.408,0-1.071.106-1.071.641v.423h3.065v.866h-4v-1.3c0-1.134,1.029-1.473,2-1.473.373,0,1.057-.063,1.057-.633,0-.536-.485-.789-1.12-.789-.486,0-.986.246-.994.69Z" transform="translate(-2897.858 -2062.171)" fill="#fff"/>
          <path id="Path_11263" data-name="Path 11263" d="M2937.823,2065v-.761h.712c.5,0,1.029-.134,1.035-.592,0-.281-.226-.655-1.014-.655-.437,0-1.029.155-1.029.606h-.929c0-1.064,1.056-1.451,1.965-1.451.93,0,1.931.451,1.938,1.5a1.041,1.041,0,0,1-.683.973,1.172,1.172,0,0,1,.8,1.035c0,1.2-1.134,1.564-2.085,1.564s-2.008-.395-2.014-1.515h.936c0,.508.683.684,1.084.684.472,0,1.1-.2,1.1-.725,0-.3-.162-.663-1.05-.663Z" transform="translate(-2929.199 -2062.122)" fill="#fff"/>
          <path id="Path_11264" data-name="Path 11264" d="M2978.47,2062.771v3.085h.577v.9h-.577v.937h-.916v-.937h-2.635l-.084-.944,2.22-3.043Zm-.916,3.085v-2.282l-1.669,2.282Z" transform="translate(-2962.77 -2062.672)" fill="#fff"/>
          <path id="Path_11265" data-name="Path 11265" d="M3028.884,2063.645h-2.663v.866h.958c1.049,0,1.986.43,1.979,1.585a1.72,1.72,0,0,1-1.929,1.655c-1.086,0-2.015-.387-2.022-1.542h.923c0,.542.62.683,1.084.683s1.022-.211,1.022-.8c.007-.557-.55-.719-1.057-.719h-1.867v-2.606h3.571Z" transform="translate(-3006.906 -2062.672)" fill="#fff"/>
          <path id="Path_11266" data-name="Path 11266" d="M3061.489,2063.577v.74a1.461,1.461,0,0,1,1.142-.521c.993,0,2.036.416,2.036,1.641,0,1.092-1.051,1.635-2.043,1.635s-2.057-.542-2.057-1.648v-1.839c0-1.1,1.015-1.614,2.029-1.614,1.071,0,2.022.423,2.022,1.459h-.93c0-.437-.548-.655-1.077-.655-.557-.007-1.12.3-1.12.831Zm2.254,1.86c0-.542-.493-.831-1.113-.831s-1.148.282-1.142.831.529.8,1.134.8C3063.208,2066.241,3063.743,2065.98,3063.743,2065.437Z" transform="translate(-3037.887 -2061.971)" fill="#fff"/>
          <path id="Path_11267" data-name="Path 11267" d="M3095.126,2067.644l2.014-4.044h-2.4v-.888h3.622l.049.493-2.212,4.438Z" transform="translate(-3067.829 -2062.621)" fill="#fff"/>
          <path id="Path_11268" data-name="Path 11268" d="M3126.078,2064.5a1.086,1.086,0,0,1-.62-.972c0-.994.916-1.5,1.986-1.5s2.022.515,2.022,1.5a1.012,1.012,0,0,1-.634.93,1.236,1.236,0,0,1,.747,1.1c.021,1.148-1.036,1.606-2.135,1.6-1.07-.007-2.142-.443-2.12-1.6A1.192,1.192,0,0,1,3126.078,2064.5Zm.217,1.071c-.007.381.4.74,1.156.74s1.162-.353,1.154-.74c-.006-.486-.534-.7-1.154-.7C3126.874,2064.868,3126.3,2065.087,3126.3,2065.573Zm1.156-1.381c.571,0,1.028-.26,1.042-.69s-.422-.7-1.05-.7c-.7,0-1.049.36-1.036.7C3126.422,2063.931,3126.909,2064.192,3127.452,2064.192Z" transform="translate(-3094.628 -2062.022)" fill="#fff"/>
          <path id="Path_11269" data-name="Path 11269" d="M3174.589,2066.855h.74v-3.3h-.769v-.845h1.691v4.143h.683v.789h-2.345Z" transform="translate(-3137.769 -2062.621)" fill="#fff"/>
          <path id="Path_11270" data-name="Path 11270" d="M3197.948,2063.693c.007-1.043.993-1.493,1.9-1.493.986,0,2.056.4,2.056,1.571,0,1.254-.943,1.493-1.979,1.493-.408,0-1.071.106-1.071.641v.423h3.065v.866h-3.994v-1.3c0-1.134,1.028-1.473,2-1.473.374,0,1.057-.063,1.057-.633,0-.536-.487-.789-1.12-.789-.486,0-.987.246-.993.69Z" transform="translate(-3158.242 -2062.171)" fill="#fff"/>
          <path id="Path_11271" data-name="Path 11271" d="M3234.994,2065v-.761h.711c.5,0,1.029-.134,1.035-.592,0-.281-.226-.655-1.014-.655-.437,0-1.029.155-1.029.606h-.931c0-1.064,1.058-1.451,1.966-1.451.93,0,1.931.451,1.937,1.5a1.041,1.041,0,0,1-.683.973,1.171,1.171,0,0,1,.8,1.035c0,1.2-1.134,1.564-2.085,1.564s-2.008-.395-2.015-1.515h.937c0,.508.683.684,1.085.684.472,0,1.1-.2,1.1-.725,0-.3-.161-.663-1.05-.663Z" transform="translate(-3189.578 -2062.122)" fill="#fff"/>
          <path id="Path_11272" data-name="Path 11272" d="M3275.642,2062.771v3.085h.577v.9h-.577v.937h-.916v-.937h-2.634l-.085-.944,2.219-3.043Zm-.916,3.085v-2.282l-1.669,2.282Z" transform="translate(-3223.151 -2062.672)" fill="#fff"/>
        </g>
      </g>
      <path id="Path_11273" data-name="Path 11273" d="M2880.543,1949.072v1.873a2.408,2.408,0,0,0,.055.57,2.005,2.005,0,0,0,2.122,1.575q2.687,0,5.37,0v-4.017Z" transform="translate(-32.351 -302.178)" fill="#e9d319"/>
      <path id="Path_11274" data-name="Path 11274" d="M2947.259,1909.713h4.129v.712h-4.129v5.58q2.668,0,5.337,0a2.472,2.472,0,0,0,.6-.057,2.029,2.029,0,0,0,1.579-2.185q0-3.508,0-7.015h-7.517Z" transform="translate(-90.807 -265.094)" fill="#e9d319"/>
      <path id="Path_11275" data-name="Path 11275" d="M2922.852,1859.876v-5.809h-6.708v5.808Z" transform="translate(-63.544 -218.935)" fill="#e9d319"/>
      <path id="Path_11276" data-name="Path 11276" d="M2888.087,1906.748h-7.547q0,2.264,0,4.527h7.547Z" transform="translate(-32.347 -265.094)" fill="#e9d319"/>
      <path id="Path_11277" data-name="Path 11277" d="M2884.228,1854.084l-1.432,0a2.937,2.937,0,0,0-.721.066,1.993,1.993,0,0,0-1.543,2.084c0,1.219,0,2.437,0,3.655h3.7Z" transform="translate(-32.341 -218.95)" fill="#e9d319"/>
      <path id="Path_11278" data-name="Path 11278" d="M2980.031,1859.881c0-1.19,0-2.38,0-3.569a2.745,2.745,0,0,0-.068-.691,2.006,2.006,0,0,0-2.115-1.547q-.882,0-1.763,0v5.809Z" transform="translate(-116.064 -218.939)" fill="#e9d319"/>
      <g id="Group_6617" data-name="Group 6617" transform="translate(2868.5 1639.355)">
        <g id="Group_6616" data-name="Group 6616" transform="translate(0 0)">
          <path id="Path_11279" data-name="Path 11279" d="M3051.284,1896.641a3.476,3.476,0,0,1-2.8,1.407c-2.74,0-3.9-2.422-3.91-4.884s1.244-4.992,3.91-4.992a3.436,3.436,0,0,1,2.707,1.448l-.927,1.15a2.26,2.26,0,0,0-1.78-.893c-1.781,0-2.55,1.7-2.54,3.288s.717,3.206,2.54,3.206a2.436,2.436,0,0,0,1.854-.961Z" transform="translate(-3044.572 -1888.173)" fill="#fff"/>
          <path id="Path_11280" data-name="Path 11280" d="M3102.29,1897.385h-3.857l-.632,1.786H3096.3l3.309-9.47h1.517l3.309,9.47h-1.518Zm-1.929-5.7-1.369,4.031h2.739Z" transform="translate(-3089.892 -1889.512)" fill="#fff"/>
          <path id="Path_11281" data-name="Path 11281" d="M3173.6,1899.077h-1.654l-2.15-3.166h-1.337v3.166h-1.392v-9.483c1.17,0,2.339.013,3.509.013,1.739.014,2.656,1.5,2.656,3.138,0,1.3-.463,2.611-1.866,2.976l2.234,3.233Zm-5.141-7.806v3.03h2.117c.886,0,1.265-.758,1.265-1.515s-.39-1.515-1.265-1.515Z" transform="translate(-3151.899 -1889.418)" fill="#fff"/>
          <path id="Path_11282" data-name="Path 11282" d="M3230.215,1894.355c.032,2.394-1.107,4.816-3.688,4.816h-2.9v-9.47h2.9C3229.056,1889.7,3230.184,1892.015,3230.215,1894.355Zm-5.205,3.1h1.517c1.675,0,2.339-1.569,2.308-3.111-.032-1.475-.706-2.949-2.308-2.949h-1.517Z" transform="translate(-3201.462 -1889.512)" fill="#fff"/>
        </g>
      </g>
    </g>
  </g>
</svg>
