<svg xmlns="http://www.w3.org/2000/svg" width="32" height="32" viewBox="0 0 32 32">
  <g id="Group_7829" data-name="Group 7829" transform="translate(361 -1300)">
    <g id="Group_7807" data-name="Group 7807" transform="translate(-7639 -2199)">
      <path id="Path_12012" data-name="Path 12012" d="M16,0A16,16,0,1,1,0,16,16,16,0,0,1,16,0Z" transform="translate(7278 3499)" fill="#0c4587"/>
    </g>
    <g id="_12405348911595759946" data-name="12405348911595759946" transform="translate(-355.81 1305.211)">
      <path id="Path_12013" data-name="Path 12013" d="M18.663,20.358H13.377a3.143,3.143,0,0,1-2.088-.848L3,11.221,7.568,6h0a5.724,5.724,0,0,0,5.221,5.221h.653c-.065,2.937,1.044,5.09,3.916,6a1.536,1.536,0,0,0,.522.131h0a1.548,1.548,0,0,1,1.109,1.827Z" transform="translate(-0.695 -1.737)" fill="none" stroke="#fff" stroke-linecap="round" stroke-linejoin="round" stroke-miterlimit="10" stroke-width="0.9"/>
      <path id="Path_12014" data-name="Path 12014" d="M1,16l8.941,8.941a3.019,3.019,0,0,0,2.088.848h5.939" transform="translate(0 -5.211)" fill="none" stroke="#fff" stroke-linecap="round" stroke-linejoin="round" stroke-miterlimit="10" stroke-width="0.9"/>
      <circle id="Ellipse_600" data-name="Ellipse 600" cx="1" cy="1" r="1" transform="translate(6 9)" fill="none" stroke="#fff" stroke-linecap="round" stroke-linejoin="round" stroke-miterlimit="10" stroke-width="0.9"/>
      <line id="Line_82" data-name="Line 82" x2="2.937" transform="translate(10.137 12.747)" fill="none" stroke="#fff" stroke-linecap="round" stroke-linejoin="round" stroke-miterlimit="10" stroke-width="0.9"/>
      <line id="Line_83" data-name="Line 83" x2="3.589" transform="translate(11.442 14.705)" fill="none" stroke="#fff" stroke-linecap="round" stroke-linejoin="round" stroke-miterlimit="10" stroke-width="0.9"/>
      <path id="Path_12015" data-name="Path 12015" d="M24.795,1,20.031,5.764a4.3,4.3,0,0,0-1.109,4.177h0" transform="translate(-6.174)" fill="none" stroke="#fff" stroke-linecap="round" stroke-linejoin="round" stroke-miterlimit="10" stroke-width="0.9"/>
      <path id="Path_12016" data-name="Path 12016" d="M10,4.916h0A5.508,5.508,0,0,0,13,2.5L13.916,1" transform="translate(-3.126)" fill="none" stroke="#fff" stroke-linecap="round" stroke-linejoin="round" stroke-miterlimit="10" stroke-width="0.9"/>
    </g>
  </g>
</svg>
