<svg xmlns="http://www.w3.org/2000/svg" width="32" height="32" viewBox="0 0 32 32">
  <g id="Group_7834" data-name="Group 7834" transform="translate(360 -1225)">
    <g id="Group_7833" data-name="Group 7833" transform="translate(-79 -115)">
      <g id="Group_7824" data-name="Group 7824" transform="translate(-7559 -2159)">
        <path id="Path_12012" data-name="Path 12012" d="M16,0A16,16,0,1,1,0,16,16,16,0,0,1,16,0Z" transform="translate(7278 3499)" fill="#0c4587"/>
      </g>
    </g>
    <path id="stationery" d="M11.853,11.395a.647.647,0,0,0-.647.647v8.367a3.713,3.713,0,0,0-1,2.547v.06a.323.323,0,0,0,.323.323H23.9a.323.323,0,0,0,.323-.323v-.06a3.715,3.715,0,0,0-1.036-2.584v-8.33a.648.648,0,0,0-.519-.634L25.7,6.7a.325.325,0,0,0,.021-.054.331.331,0,0,0,.024-.063v0l.482-2.8a.323.323,0,0,0-.5-.321l-2.287,1.58a.328.328,0,0,0-.033.035.308.308,0,0,0-.051.05s0,0,0,.006l0,0-3.866,6.257h-.17V4.812h.505V7.558a.323.323,0,1,0,.647,0V4.488a.323.323,0,0,0-.323-.323h-.829V2.848A.849.849,0,0,0,18.469,2H17.56a.849.849,0,0,0-.848.848v8.547h-.5L14.347,3.132a.323.323,0,0,0-.387-.244l-3.175.718a.324.324,0,0,0-.244.387l1.515,6.7s0,0,0,0h0l.158.7Zm.759.647h4.409l.013,0,.013,0H18.98l.014,0,.014,0h3.534v8.174H11.853V12.041ZM23.566,22.693h-12.7a3.068,3.068,0,0,1,.809-1.831H22.757A3.068,3.068,0,0,1,23.566,22.693ZM25.2,5.976l-1-.672,1.264-.873Zm-1.473-.213,1.263.851-3.083,4.78h-1.66ZM17.56,2.647h.909a.2.2,0,0,1,.2.2V4.165H17.358V2.848A.2.2,0,0,1,17.56,2.647Zm-.2,2.165H18.67v6.583H17.358Zm-4.6,6.057.413-.093a.323.323,0,1,0-.142-.631l-.413.093L12.358,9.1l.413-.093a.323.323,0,1,0-.142-.631l-.413.093-.257-1.137.414-.093a.323.323,0,0,0-.142-.631l-.414.093L11.56,5.567l.414-.093a.323.323,0,1,0-.142-.631l-.414.094-.174-.771,2.544-.575,1.76,7.805H12.877Z" transform="translate(-361.239 1227.889)" fill="#fff" stroke="#fff" stroke-width="0.2"/>
  </g>
</svg>
